SplineFontDB: 3.2
FontName: TutorialFont
FullName: Tutorial Font Regular
FamilyName: Tutorial Font
Weight: Book
Copyright: Copyright ZQWY 2020
Version: 1.0
ItalicAngle: 0
UnderlinePosition: 0
UnderlineWidth: 0
Ascent: 89
Descent: 23
InvalidEm: 0
sfntRevision: 0x00010000
LayerCount: 2
Layer: 0 1 "Back" 1
Layer: 1 1 "Fore" 0
XUID: [1021 290 -731316418 11426139]
StyleMap: 0x0040
FSType: 4
OS2Version: 2
OS2_WeightWidthSlopeOnly: 0
OS2_UseTypoMetrics: 0
CreationTime: 1782487089
ModificationTime: 1784295546
PfmFamily: 81
TTFWeight: 400
TTFWidth: 5
LineGap: 3
VLineGap: 0
Panose: 0 0 6 0 0 0 0 0 0 0
OS2TypoAscent: 60
OS2TypoAOffset: 0
OS2TypoDescent: -24
OS2TypoDOffset: 0
OS2TypoLinegap: 3
OS2WinAscent: 60
OS2WinAOffset: 0
OS2WinDescent: 24
OS2WinDOffset: 0
HheadAscent: 60
HheadAOffset: 0
HheadDescent: -24
HheadDOffset: 0
OS2SubXSize: 56
OS2SubYSize: 56
OS2SubXOff: 0
OS2SubYOff: -28
OS2SupXSize: 56
OS2SupYSize: 56
OS2SupXOff: 0
OS2SupYOff: 56
OS2StrikeYSize: 3
OS2StrikeYPos: 28
OS2Vendor: '    '
OS2CodePages: 00000001.00000000
OS2UnicodeRanges: 00000201.00000000.00000000.00000000
DEI: 91125
ShortTable: maxp 16
  1
  0
  76
  136
  13
  0
  0
  2
  0
  0
  0
  0
  0
  0
  0
  0
EndShort
LangName: 1033 "" "" "Regular" "Tutorial Font" "" "Version 1.0" "" "" "https://pixel-forge.com" "ZQWY" "Tutorial Font was created using PixelForge" "" "" "" "" "" "" "" "" "Sphinx of black quartz judge my vow"
Encoding: UnicodeBmp
UnicodeInterp: none
NameList: AGL For New Fonts
DisplaySize: -48
AntiAlias: 1
FitToEm: 0
WinInfo: 0 38 16
Grid
-112 -24 m 0
 -78 -24 l 0
 -59 -24 l 0
 -6 -24 l 0
 224 -24 l 1024
  Named: "123"
-111 48 m 0
 225 48 l 1024
EndSplineSet
BeginChars: 65538 109

StartChar: asterisk
Encoding: 42 42 3
Width: 42
GlyphClass: 1
Flags: W
LayerCount: 2
Fore
SplineSet
12 3 m 1,0,-1
 15 3 l 1,1,-1
 15 6 l 1,2,-1
 15 9 l 1,3,-1
 15 12 l 1,4,-1
 12 12 l 1,5,-1
 12 9 l 1,6,-1
 9 9 l 1,7,-1
 9 12 l 1,8,-1
 12 12 l 1,9,-1
 12 15 l 1,10,-1
 9 15 l 1,11,-1
 6 15 l 1,12,-1
 3 15 l 1,13,-1
 3 12 l 1,14,-1
 6 12 l 1,15,-1
 6 9 l 1,16,-1
 3 9 l 1,17,-1
 3 12 l 1,18,-1
 0 12 l 1,19,-1
 0 9 l 1,20,-1
 0 6 l 1,21,-1
 0 3 l 1,22,-1
 3 3 l 1,23,-1
 3 6 l 1,24,-1
 6 6 l 1,25,-1
 6 3 l 1,26,-1
 3 3 l 1,27,-1
 3 0 l 1,28,-1
 6 0 l 1,29,-1
 9 0 l 1,30,-1
 12 0 l 1,31,-1
 12 3 l 1,32,-1
 9 3 l 1,33,-1
 9 6 l 1,34,-1
 12 6 l 1,35,-1
 12 3 l 1,0,-1
EndSplineSet
Validated: 5
EndChar

StartChar: plus
Encoding: 43 43 4
Width: 42
GlyphClass: 1
Flags: W
LayerCount: 2
Fore
SplineSet
9 15 m 1,0,-1
 12 15 l 1,1,-1
 12 12 l 1,2,-1
 9 12 l 1,3,-1
 9 15 l 1,4,-1
 6 15 l 1,5,-1
 3 15 l 1,6,-1
 3 12 l 1,7,-1
 0 12 l 1,8,-1
 0 9 l 1,9,-1
 3 9 l 1,10,-1
 3 6 l 1,11,-1
 6 6 l 1,12,-1
 9 6 l 1,13,-1
 9 9 l 1,14,-1
 12 9 l 1,15,-1
 12 6 l 1,16,-1
 9 6 l 1,17,-1
 9 3 l 1,18,-1
 9 0 l 1,19,-1
 12 0 l 1,20,-1
 12 -3 l 1,21,-1
 15 -3 l 1,22,-1
 15 0 l 1,23,-1
 18 0 l 1,24,-1
 18 3 l 1,25,-1
 18 6 l 1,26,-1
 15 6 l 1,27,-1
 15 9 l 1,28,-1
 18 9 l 1,29,-1
 18 6 l 1,30,-1
 21 6 l 1,31,-1
 24 6 l 1,32,-1
 24 9 l 1,33,-1
 27 9 l 1,34,-1
 27 12 l 1,35,-1
 24 12 l 1,36,-1
 24 15 l 1,37,-1
 21 15 l 1,38,-1
 18 15 l 1,39,-1
 18 12 l 1,40,-1
 15 12 l 1,41,-1
 15 15 l 1,42,-1
 18 15 l 1,43,-1
 18 18 l 1,44,-1
 18 21 l 1,45,-1
 15 21 l 1,46,-1
 15 24 l 1,47,-1
 12 24 l 1,48,-1
 12 21 l 1,49,-1
 9 21 l 1,50,-1
 9 18 l 1,51,-1
 9 15 l 1,0,-1
EndSplineSet
Validated: 5
EndChar

StartChar: equal
Encoding: 61 61 5
Width: 54
GlyphClass: 1
Flags: W
LayerCount: 2
Fore
SplineSet
36 12 m 1,0,-1
 33 12 l 1,1,-1
 30 12 l 1,2,-1
 27 12 l 1,3,-1
 24 12 l 1,4,-1
 21 12 l 1,5,-1
 18 12 l 1,6,-1
 15 12 l 1,7,-1
 12 12 l 1,8,-1
 12 15 l 1,9,-1
 12 18 l 1,10,-1
 9 18 l 1,11,-1
 6 18 l 1,12,-1
 6 15 l 1,13,-1
 6 12 l 1,14,-1
 3 12 l 1,15,-1
 0 12 l 1,16,-1
 0 9 l 1,17,-1
 0 6 l 1,18,-1
 3 6 l 1,19,-1
 6 6 l 1,20,-1
 6 3 l 1,21,-1
 6 0 l 1,22,-1
 9 0 l 1,23,-1
 12 0 l 1,24,-1
 12 3 l 1,25,-1
 12 6 l 1,26,-1
 15 6 l 1,27,-1
 18 6 l 1,28,-1
 21 6 l 1,29,-1
 24 6 l 1,30,-1
 27 6 l 1,31,-1
 30 6 l 1,32,-1
 33 6 l 1,33,-1
 36 6 l 1,34,-1
 36 3 l 1,35,-1
 36 0 l 1,36,-1
 39 0 l 1,37,-1
 42 0 l 1,38,-1
 42 3 l 1,39,-1
 42 6 l 1,40,-1
 45 6 l 1,41,-1
 48 6 l 1,42,-1
 48 9 l 1,43,-1
 48 12 l 1,44,-1
 45 12 l 1,45,-1
 42 12 l 1,46,-1
 42 15 l 1,47,-1
 42 18 l 1,48,-1
 39 18 l 1,49,-1
 36 18 l 1,50,-1
 36 15 l 1,51,-1
 36 12 l 1,0,-1
18 30 m 1,52,-1
 21 30 l 1,53,-1
 24 30 l 1,54,-1
 27 30 l 1,55,-1
 30 30 l 1,56,-1
 33 30 l 1,57,-1
 36 30 l 1,58,-1
 36 27 l 1,59,-1
 36 24 l 1,60,-1
 39 24 l 1,61,-1
 42 24 l 1,62,-1
 42 27 l 1,63,-1
 42 30 l 1,64,-1
 45 30 l 1,65,-1
 48 30 l 1,66,-1
 48 33 l 1,67,-1
 48 36 l 1,68,-1
 45 36 l 1,69,-1
 42 36 l 1,70,-1
 42 39 l 1,71,-1
 42 42 l 1,72,-1
 39 42 l 1,73,-1
 36 42 l 1,74,-1
 36 39 l 1,75,-1
 36 36 l 1,76,-1
 33 36 l 1,77,-1
 30 36 l 1,78,-1
 27 36 l 1,79,-1
 24 36 l 1,80,-1
 21 36 l 1,81,-1
 18 36 l 1,82,-1
 15 36 l 1,83,-1
 12 36 l 1,84,-1
 12 39 l 1,85,-1
 12 42 l 1,86,-1
 9 42 l 1,87,-1
 6 42 l 1,88,-1
 6 39 l 1,89,-1
 6 36 l 1,90,-1
 3 36 l 1,91,-1
 0 36 l 1,92,-1
 0 33 l 1,93,-1
 0 30 l 1,94,-1
 3 30 l 1,95,-1
 6 30 l 1,96,-1
 6 27 l 1,97,-1
 6 24 l 1,98,-1
 9 24 l 1,99,-1
 12 24 l 1,100,-1
 12 27 l 1,101,-1
 12 30 l 1,102,-1
 15 30 l 1,103,-1
 18 30 l 1,52,-1
EndSplineSet
EndChar

StartChar: A
Encoding: 65 65 6
Width: 42
GlyphClass: 1
Flags: W
LayerCount: 2
Fore
SplineSet
0 0 m 1,0,-1
 3 0 l 1,1,-1
 3 3 l 1,2,-1
 3 6 l 1,3,-1
 6 6 l 1,4,-1
 9 6 l 1,5,-1
 9 3 l 1,6,-1
 9 0 l 1,7,-1
 12 0 l 1,8,-1
 12 3 l 1,9,-1
 12 6 l 1,10,-1
 12 9 l 1,11,-1
 12 12 l 1,12,-1
 9 12 l 1,13,-1
 9 9 l 1,14,-1
 6 9 l 1,15,-1
 3 9 l 1,16,-1
 3 12 l 1,17,-1
 0 12 l 1,18,-1
 0 9 l 1,19,-1
 0 6 l 1,20,-1
 0 3 l 1,21,-1
 0 0 l 1,0,-1
6 12 m 1,22,-1
 9 12 l 1,23,-1
 9 15 l 1,24,-1
 6 15 l 1,25,-1
 3 15 l 1,26,-1
 3 12 l 1,27,-1
 6 12 l 1,22,-1
EndSplineSet
Validated: 5
EndChar

StartChar: B
Encoding: 66 66 7
Width: 42
GlyphClass: 1
Flags: W
LayerCount: 2
Fore
SplineSet
0 0 m 1,0,-1
 3 0 l 1,1,-1
 6 0 l 1,2,-1
 9 0 l 1,3,-1
 9 3 l 1,4,-1
 6 3 l 1,5,-1
 3 3 l 1,6,-1
 3 6 l 1,7,-1
 6 6 l 1,8,-1
 9 6 l 1,9,-1
 9 9 l 1,10,-1
 6 9 l 1,11,-1
 3 9 l 1,12,-1
 3 12 l 1,13,-1
 6 12 l 1,14,-1
 9 12 l 1,15,-1
 9 15 l 1,16,-1
 6 15 l 1,17,-1
 3 15 l 1,18,-1
 0 15 l 1,19,-1
 0 12 l 1,20,-1
 0 9 l 1,21,-1
 0 6 l 1,22,-1
 0 3 l 1,23,-1
 0 0 l 1,0,-1
9 3 m 1,24,-1
 12 3 l 1,25,-1
 12 6 l 1,26,-1
 9 6 l 1,27,-1
 9 3 l 1,24,-1
9 9 m 1,28,-1
 12 9 l 1,29,-1
 12 12 l 1,30,-1
 9 12 l 1,31,-1
 9 9 l 1,28,-1
EndSplineSet
Validated: 5
EndChar

StartChar: C
Encoding: 67 67 8
Width: 42
GlyphClass: 1
Flags: W
LayerCount: 2
Fore
SplineSet
0 3 m 1,0,-1
 3 3 l 1,1,-1
 3 6 l 1,2,-1
 3 9 l 1,3,-1
 3 12 l 1,4,-1
 0 12 l 1,5,-1
 0 9 l 1,6,-1
 0 6 l 1,7,-1
 0 3 l 1,0,-1
6 0 m 1,8,-1
 9 0 l 1,9,-1
 12 0 l 1,10,-1
 12 3 l 1,11,-1
 9 3 l 1,12,-1
 6 3 l 1,13,-1
 3 3 l 1,14,-1
 3 0 l 1,15,-1
 6 0 l 1,8,-1
6 12 m 1,16,-1
 9 12 l 1,17,-1
 12 12 l 1,18,-1
 12 15 l 1,19,-1
 9 15 l 1,20,-1
 6 15 l 1,21,-1
 3 15 l 1,22,-1
 3 12 l 1,23,-1
 6 12 l 1,16,-1
EndSplineSet
Validated: 5
EndChar

StartChar: uni0401
Encoding: 1025 1025 10
Width: 42
GlyphClass: 1
Flags: W
LayerCount: 2
Fore
SplineSet
36 39 m 1,0,-1
 36 42 l 1,1,-1
 33 42 l 1,2,-1
 30 42 l 1,3,-1
 27 42 l 1,4,-1
 24 42 l 1,5,-1
 21 42 l 1,6,-1
 18 42 l 1,7,-1
 15 42 l 1,8,-1
 12 42 l 1,9,-1
 9 42 l 1,10,-1
 6 42 l 1,11,-1
 3 42 l 1,12,-1
 0 42 l 1,13,-1
 0 39 l 1,14,-1
 0 36 l 1,15,-1
 3 36 l 1,16,-1
 6 36 l 1,17,-1
 6 33 l 1,18,-1
 6 30 l 1,19,-1
 6 27 l 1,20,-1
 6 24 l 1,21,-1
 6 21 l 1,22,-1
 6 18 l 1,23,-1
 6 15 l 1,24,-1
 6 12 l 1,25,-1
 6 9 l 1,26,-1
 6 6 l 1,27,-1
 3 6 l 1,28,-1
 0 6 l 1,29,-1
 0 3 l 1,30,-1
 0 0 l 1,31,-1
 3 0 l 1,32,-1
 6 0 l 1,33,-1
 9 0 l 1,34,-1
 12 0 l 1,35,-1
 15 0 l 1,36,-1
 18 0 l 1,37,-1
 21 0 l 1,38,-1
 24 0 l 1,39,-1
 27 0 l 1,40,-1
 30 0 l 1,41,-1
 33 0 l 1,42,-1
 36 0 l 1,43,-1
 36 3 l 1,44,-1
 36 6 l 1,45,-1
 33 6 l 1,46,-1
 30 6 l 1,47,-1
 27 6 l 1,48,-1
 24 6 l 1,49,-1
 21 6 l 1,50,-1
 18 6 l 1,51,-1
 15 6 l 1,52,-1
 12 6 l 1,53,-1
 12 9 l 1,54,-1
 12 12 l 1,55,-1
 12 15 l 1,56,-1
 12 18 l 1,57,-1
 15 18 l 1,58,-1
 18 18 l 1,59,-1
 21 18 l 1,60,-1
 24 18 l 1,61,-1
 27 18 l 1,62,-1
 30 18 l 1,63,-1
 30 21 l 1,64,-1
 30 24 l 1,65,-1
 27 24 l 1,66,-1
 24 24 l 1,67,-1
 21 24 l 1,68,-1
 18 24 l 1,69,-1
 15 24 l 1,70,-1
 12 24 l 1,71,-1
 12 27 l 1,72,-1
 12 30 l 1,73,-1
 12 33 l 1,74,-1
 12 36 l 1,75,-1
 15 36 l 1,76,-1
 18 36 l 1,77,-1
 21 36 l 1,78,-1
 24 36 l 1,79,-1
 27 36 l 1,80,-1
 30 36 l 1,81,-1
 33 36 l 1,82,-1
 36 36 l 1,83,-1
 36 39 l 1,0,-1
6 45 m 1,84,-1
 9 45 l 1,85,-1
 12 45 l 1,86,-1
 12 48 l 1,87,-1
 12 51 l 1,88,-1
 9 51 l 1,89,-1
 6 51 l 1,90,-1
 6 48 l 1,91,-1
 6 45 l 1,84,-1
30 51 m 1,92,-1
 27 51 l 1,93,-1
 27 48 l 1,94,-1
 27 45 l 1,95,-1
 30 45 l 1,96,-1
 33 45 l 1,97,-1
 33 48 l 1,98,-1
 33 51 l 1,99,-1
 30 51 l 1,92,-1
EndSplineSet
EndChar

StartChar: uni0410
Encoding: 1040 1040 11
Width: 42
GlyphClass: 1
Flags: MW
LayerCount: 2
Fore
SplineSet
30 36 m 1,0,-1
 30 39 l 1,1,-1
 30 42 l 1,2,-1
 27 42 l 1,3,-1
 24 42 l 1,4,-1
 24 39 l 1,5,-1
 24 36 l 1,6,-1
 21 36 l 1,7,-1
 18 36 l 1,8,-1
 18 33 l 1,9,-1
 18 30 l 1,10,-1
 21 30 l 1,11,-1
 24 30 l 1,12,-1
 24 27 l 1,13,-1
 24 24 l 1,14,-1
 24 21 l 1,15,-1
 24 18 l 1,16,-1
 21 18 l 1,17,-1
 18 18 l 1,18,-1
 15 18 l 1,19,-1
 12 18 l 1,20,-1
 12 21 l 1,21,-1
 12 24 l 1,22,-1
 9 24 l 1,23,-1
 6 24 l 1,24,-1
 6 21 l 1,25,-1
 6 18 l 1,26,-1
 3 18 l 1,27,-1
 3 15 l 1,28,-1
 0 15 l 1,29,-1
 0 12 l 1,30,-1
 3 12 l 1,31,-1
 6 12 l 1,32,-1
 6 9 l 1,33,-1
 6 6 l 1,34,-1
 3 6 l 1,35,-1
 0 6 l 1,36,-1
 0 3 l 1,37,-1
 0 0 l 1,38,-1
 3 0 l 1,39,-1
 6 0 l 1,40,-1
 9 0 l 1,41,-1
 12 0 l 1,42,-1
 12 3 l 1,43,-1
 12 6 l 1,44,-1
 12 9 l 1,45,-1
 12 12 l 1,46,-1
 15 12 l 1,47,-1
 18 12 l 1,48,-1
 21 12 l 1,49,-1
 24 12 l 1,50,-1
 24 9 l 1,51,-1
 24 6 l 1,52,-1
 24 3 l 1,53,-1
 24 0 l 1,54,-1
 27 0 l 1,55,-1
 30 0 l 1,56,-1
 33 0 l 1,57,-1
 36 0 l 1,58,-1
 36 3 l 1,59,-1
 36 6 l 1,60,-1
 33 6 l 1,61,-1
 30 6 l 1,62,-1
 30 9 l 1,63,-1
 30 12 l 1,64,-1
 33 12 l 1,65,-1
 36 12 l 1,66,-1
 36 15 l 1,67,-1
 36 18 l 1,68,-1
 33 18 l 1,69,-1
 30 18 l 1,70,-1
 30 21 l 1,71,-1
 30 24 l 1,72,-1
 30 27 l 1,73,-1
 30 30 l 1,74,-1
 30 33 l 1,75,-1
 30 36 l 1,0,-1
18 27 m 1,76,-1
 18 30 l 1,77,-1
 15 30 l 1,78,-1
 12 30 l 1,79,-1
 12 27 l 1,80,-1
 12 24 l 1,81,-1
 15 24 l 1,82,-1
 18 24 l 1,83,-1
 18 27 l 1,76,-1
EndSplineSet
EndChar

StartChar: uni0411
Encoding: 1041 1041 12
Width: 42
GlyphClass: 1
Flags: W
LayerCount: 2
Fore
SplineSet
18 42 m 1,0,-1
 15 42 l 1,1,-1
 12 42 l 1,2,-1
 9 42 l 1,3,-1
 6 42 l 1,4,-1
 3 42 l 1,5,-1
 0 42 l 1,6,-1
 0 39 l 1,7,-1
 0 36 l 1,8,-1
 3 36 l 1,9,-1
 6 36 l 1,10,-1
 6 33 l 1,11,-1
 6 30 l 1,12,-1
 6 27 l 1,13,-1
 6 24 l 1,14,-1
 6 21 l 1,15,-1
 6 18 l 1,16,-1
 6 15 l 1,17,-1
 6 12 l 1,18,-1
 6 9 l 1,19,-1
 6 6 l 1,20,-1
 3 6 l 1,21,-1
 0 6 l 1,22,-1
 0 3 l 1,23,-1
 0 0 l 1,24,-1
 3 0 l 1,25,-1
 6 0 l 1,26,-1
 9 0 l 1,27,-1
 12 0 l 1,28,-1
 15 0 l 1,29,-1
 18 0 l 1,30,-1
 21 0 l 1,31,-1
 24 0 l 1,32,-1
 24 3 l 1,33,-1
 24 6 l 1,34,-1
 21 6 l 1,35,-1
 18 6 l 1,36,-1
 15 6 l 1,37,-1
 12 6 l 1,38,-1
 12 9 l 1,39,-1
 12 12 l 1,40,-1
 15 12 l 1,41,-1
 18 12 l 1,42,-1
 21 12 l 1,43,-1
 24 12 l 1,44,-1
 24 9 l 1,45,-1
 24 6 l 1,46,-1
 27 6 l 1,47,-1
 30 6 l 1,48,-1
 30 9 l 1,49,-1
 30 12 l 1,50,-1
 30 15 l 1,51,-1
 27 15 l 1,52,-1
 27 18 l 1,53,-1
 24 18 l 1,54,-1
 21 18 l 1,55,-1
 18 18 l 1,56,-1
 15 18 l 1,57,-1
 12 18 l 1,58,-1
 12 21 l 1,59,-1
 12 24 l 1,60,-1
 12 27 l 1,61,-1
 12 30 l 1,62,-1
 12 33 l 1,63,-1
 12 36 l 1,64,-1
 15 36 l 1,65,-1
 18 36 l 1,66,-1
 21 36 l 1,67,-1
 24 36 l 1,68,-1
 27 36 l 1,69,-1
 30 36 l 1,70,-1
 30 33 l 1,71,-1
 30 30 l 1,72,-1
 33 30 l 1,73,-1
 36 30 l 1,74,-1
 36 33 l 1,75,-1
 36 36 l 1,76,-1
 36 39 l 1,77,-1
 36 42 l 1,78,-1
 33 42 l 1,79,-1
 30 42 l 1,80,-1
 27 42 l 1,81,-1
 24 42 l 1,82,-1
 21 42 l 1,83,-1
 18 42 l 1,0,-1
EndSplineSet
EndChar

StartChar: uni0412
Encoding: 1042 1042 13
Width: 42
GlyphClass: 1
Flags: W
LayerCount: 2
Fore
SplineSet
6 33 m 1,0,-1
 6 36 l 1,1,-1
 9 36 l 1,2,-1
 12 36 l 1,3,-1
 12 33 l 1,4,-1
 12 30 l 1,5,-1
 12 27 l 1,6,-1
 12 24 l 1,7,-1
 12 21 l 1,8,-1
 12 18 l 1,9,-1
 12 15 l 1,10,-1
 12 12 l 1,11,-1
 12 9 l 1,12,-1
 12 6 l 1,13,-1
 9 6 l 1,14,-1
 6 6 l 1,15,-1
 6 3 l 1,16,-1
 6 0 l 1,17,-1
 9 0 l 1,18,-1
 12 0 l 1,19,-1
 15 0 l 1,20,-1
 18 0 l 1,21,-1
 21 0 l 1,22,-1
 24 0 l 1,23,-1
 27 0 l 1,24,-1
 30 0 l 1,25,-1
 30 3 l 1,26,-1
 30 6 l 1,27,-1
 27 6 l 1,28,-1
 24 6 l 1,29,-1
 21 6 l 1,30,-1
 18 6 l 1,31,-1
 18 9 l 1,32,-1
 18 12 l 1,33,-1
 18 15 l 1,34,-1
 18 18 l 1,35,-1
 21 18 l 1,36,-1
 24 18 l 1,37,-1
 27 18 l 1,38,-1
 30 18 l 1,39,-1
 30 21 l 1,40,-1
 30 24 l 1,41,-1
 27 24 l 1,42,-1
 24 24 l 1,43,-1
 21 24 l 1,44,-1
 18 24 l 1,45,-1
 18 27 l 1,46,-1
 18 30 l 1,47,-1
 18 33 l 1,48,-1
 18 36 l 1,49,-1
 21 36 l 1,50,-1
 24 36 l 1,51,-1
 27 36 l 1,52,-1
 30 36 l 1,53,-1
 30 39 l 1,54,-1
 30 42 l 1,55,-1
 27 42 l 1,56,-1
 24 42 l 1,57,-1
 21 42 l 1,58,-1
 18 42 l 1,59,-1
 15 42 l 1,60,-1
 12 42 l 1,61,-1
 9 42 l 1,62,-1
 6 42 l 1,63,-1
 3 42 l 1,64,-1
 0 42 l 1,65,-1
 0 39 l 1,66,-1
 0 36 l 1,67,-1
 0 33 l 1,68,-1
 0 30 l 1,69,-1
 3 30 l 1,70,-1
 6 30 l 1,71,-1
 6 33 l 1,0,-1
30 6 m 1,72,-1
 33 6 l 1,73,-1
 36 6 l 1,74,-1
 36 9 l 1,75,-1
 36 12 l 1,76,-1
 36 15 l 1,77,-1
 36 18 l 1,78,-1
 33 18 l 1,79,-1
 30 18 l 1,80,-1
 30 15 l 1,81,-1
 30 12 l 1,82,-1
 30 9 l 1,83,-1
 30 6 l 1,72,-1
30 24 m 1,84,-1
 33 24 l 1,85,-1
 36 24 l 1,86,-1
 36 27 l 1,87,-1
 36 30 l 1,88,-1
 36 33 l 1,89,-1
 36 36 l 1,90,-1
 33 36 l 1,91,-1
 30 36 l 1,92,-1
 30 33 l 1,93,-1
 30 30 l 1,94,-1
 30 27 l 1,95,-1
 30 24 l 1,84,-1
EndSplineSet
EndChar

StartChar: uni0413
Encoding: 1043 1043 14
Width: 42
GlyphClass: 1
Flags: W
LayerCount: 2
Fore
SplineSet
3 6 m 1,0,-1
 0 6 l 1,1,-1
 0 3 l 1,2,-1
 0 0 l 1,3,-1
 3 0 l 1,4,-1
 6 0 l 1,5,-1
 9 0 l 1,6,-1
 12 0 l 1,7,-1
 15 0 l 1,8,-1
 18 0 l 1,9,-1
 18 3 l 1,10,-1
 18 6 l 1,11,-1
 15 6 l 1,12,-1
 12 6 l 1,13,-1
 12 9 l 1,14,-1
 12 12 l 1,15,-1
 12 15 l 1,16,-1
 12 18 l 1,17,-1
 12 21 l 1,18,-1
 12 24 l 1,19,-1
 12 27 l 1,20,-1
 12 30 l 1,21,-1
 12 33 l 1,22,-1
 12 36 l 1,23,-1
 15 36 l 1,24,-1
 18 36 l 1,25,-1
 21 36 l 1,26,-1
 24 36 l 1,27,-1
 27 36 l 1,28,-1
 30 36 l 1,29,-1
 30 33 l 1,30,-1
 30 30 l 1,31,-1
 30 27 l 1,32,-1
 30 24 l 1,33,-1
 33 24 l 1,34,-1
 36 24 l 1,35,-1
 36 27 l 1,36,-1
 36 30 l 1,37,-1
 36 33 l 1,38,-1
 36 36 l 1,39,-1
 36 39 l 1,40,-1
 36 42 l 1,41,-1
 33 42 l 1,42,-1
 30 42 l 1,43,-1
 27 42 l 1,44,-1
 24 42 l 1,45,-1
 21 42 l 1,46,-1
 18 42 l 1,47,-1
 15 42 l 1,48,-1
 12 42 l 1,49,-1
 9 42 l 1,50,-1
 6 42 l 1,51,-1
 3 42 l 1,52,-1
 0 42 l 1,53,-1
 0 39 l 1,54,-1
 0 36 l 1,55,-1
 3 36 l 1,56,-1
 6 36 l 1,57,-1
 6 33 l 1,58,-1
 6 30 l 1,59,-1
 6 27 l 1,60,-1
 6 24 l 1,61,-1
 6 21 l 1,62,-1
 6 18 l 1,63,-1
 6 15 l 1,64,-1
 6 12 l 1,65,-1
 6 9 l 1,66,-1
 6 6 l 1,67,-1
 3 6 l 1,0,-1
EndSplineSet
EndChar

StartChar: uni0414
Encoding: 1044 1044 15
Width: 42
GlyphClass: 1
Flags: W
LayerCount: 2
Fore
SplineSet
30 36 m 1,0,-1
 30 39 l 1,1,-1
 30 42 l 1,2,-1
 27 42 l 1,3,-1
 24 42 l 1,4,-1
 21 42 l 1,5,-1
 18 42 l 1,6,-1
 18 39 l 1,7,-1
 18 36 l 1,8,-1
 21 36 l 1,9,-1
 24 36 l 1,10,-1
 24 33 l 1,11,-1
 24 30 l 1,12,-1
 24 27 l 1,13,-1
 24 24 l 1,14,-1
 24 21 l 1,15,-1
 24 18 l 1,16,-1
 24 15 l 1,17,-1
 24 12 l 1,18,-1
 21 12 l 1,19,-1
 18 12 l 1,20,-1
 15 12 l 1,21,-1
 12 12 l 1,22,-1
 12 15 l 1,23,-1
 12 18 l 1,24,-1
 12 21 l 1,25,-1
 12 24 l 1,26,-1
 12 27 l 1,27,-1
 12 30 l 1,28,-1
 9 30 l 1,29,-1
 6 30 l 1,30,-1
 6 27 l 1,31,-1
 6 24 l 1,32,-1
 6 21 l 1,33,-1
 6 18 l 1,34,-1
 6 15 l 1,35,-1
 6 12 l 1,36,-1
 3 12 l 1,37,-1
 0 12 l 1,38,-1
 0 9 l 1,39,-1
 0 6 l 1,40,-1
 0 3 l 1,41,-1
 0 0 l 1,42,-1
 3 0 l 1,43,-1
 6 0 l 1,44,-1
 6 3 l 1,45,-1
 6 6 l 1,46,-1
 9 6 l 1,47,-1
 12 6 l 1,48,-1
 15 6 l 1,49,-1
 18 6 l 1,50,-1
 21 6 l 1,51,-1
 24 6 l 1,52,-1
 27 6 l 1,53,-1
 30 6 l 1,54,-1
 30 3 l 1,55,-1
 30 0 l 1,56,-1
 33 0 l 1,57,-1
 36 0 l 1,58,-1
 36 3 l 1,59,-1
 36 6 l 1,60,-1
 36 9 l 1,61,-1
 36 12 l 1,62,-1
 33 12 l 1,63,-1
 30 12 l 1,64,-1
 30 15 l 1,65,-1
 30 18 l 1,66,-1
 30 21 l 1,67,-1
 30 24 l 1,68,-1
 30 27 l 1,69,-1
 30 30 l 1,70,-1
 30 33 l 1,71,-1
 30 36 l 1,0,-1
15 30 m 1,72,-1
 18 30 l 1,73,-1
 18 33 l 1,74,-1
 18 36 l 1,75,-1
 15 36 l 1,76,-1
 12 36 l 1,77,-1
 12 33 l 1,78,-1
 12 30 l 1,79,-1
 15 30 l 1,72,-1
EndSplineSet
EndChar

StartChar: uni0415
Encoding: 1045 1045 16
Width: 42
GlyphClass: 1
Flags: W
LayerCount: 2
Fore
SplineSet
36 39 m 1,0,-1
 36 42 l 1,1,-1
 33 42 l 1,2,-1
 30 42 l 1,3,-1
 27 42 l 1,4,-1
 24 42 l 1,5,-1
 21 42 l 1,6,-1
 18 42 l 1,7,-1
 15 42 l 1,8,-1
 12 42 l 1,9,-1
 9 42 l 1,10,-1
 6 42 l 1,11,-1
 3 42 l 1,12,-1
 0 42 l 1,13,-1
 0 39 l 1,14,-1
 0 36 l 1,15,-1
 3 36 l 1,16,-1
 6 36 l 1,17,-1
 6 33 l 1,18,-1
 6 30 l 1,19,-1
 6 27 l 1,20,-1
 6 24 l 1,21,-1
 6 21 l 1,22,-1
 6 18 l 1,23,-1
 6 15 l 1,24,-1
 6 12 l 1,25,-1
 6 9 l 1,26,-1
 6 6 l 1,27,-1
 3 6 l 1,28,-1
 0 6 l 1,29,-1
 0 3 l 1,30,-1
 0 0 l 1,31,-1
 3 0 l 1,32,-1
 6 0 l 1,33,-1
 9 0 l 1,34,-1
 12 0 l 1,35,-1
 15 0 l 1,36,-1
 18 0 l 1,37,-1
 21 0 l 1,38,-1
 24 0 l 1,39,-1
 27 0 l 1,40,-1
 30 0 l 1,41,-1
 33 0 l 1,42,-1
 36 0 l 1,43,-1
 36 3 l 1,44,-1
 36 6 l 1,45,-1
 33 6 l 1,46,-1
 30 6 l 1,47,-1
 27 6 l 1,48,-1
 24 6 l 1,49,-1
 21 6 l 1,50,-1
 18 6 l 1,51,-1
 15 6 l 1,52,-1
 12 6 l 1,53,-1
 12 9 l 1,54,-1
 12 12 l 1,55,-1
 12 15 l 1,56,-1
 12 18 l 1,57,-1
 15 18 l 1,58,-1
 18 18 l 1,59,-1
 21 18 l 1,60,-1
 24 18 l 1,61,-1
 27 18 l 1,62,-1
 30 18 l 1,63,-1
 30 21 l 1,64,-1
 30 24 l 1,65,-1
 27 24 l 1,66,-1
 24 24 l 1,67,-1
 21 24 l 1,68,-1
 18 24 l 1,69,-1
 15 24 l 1,70,-1
 12 24 l 1,71,-1
 12 27 l 1,72,-1
 12 30 l 1,73,-1
 12 33 l 1,74,-1
 12 36 l 1,75,-1
 15 36 l 1,76,-1
 18 36 l 1,77,-1
 21 36 l 1,78,-1
 24 36 l 1,79,-1
 27 36 l 1,80,-1
 30 36 l 1,81,-1
 33 36 l 1,82,-1
 36 36 l 1,83,-1
 36 39 l 1,0,-1
EndSplineSet
EndChar

StartChar: uni0416
Encoding: 1046 1046 17
Width: 42
GlyphClass: 1
Flags: W
LayerCount: 2
Fore
SplineSet
3 42 m 1,0,-1
 0 42 l 1,1,-1
 0 39 l 1,2,-1
 0 36 l 1,3,-1
 3 36 l 1,4,-1
 3 33 l 1,5,-1
 3 30 l 1,6,-1
 6 30 l 1,7,-1
 9 30 l 1,8,-1
 9 33 l 1,9,-1
 9 36 l 1,10,-1
 6 36 l 1,11,-1
 6 39 l 1,12,-1
 6 42 l 1,13,-1
 3 42 l 1,0,-1
33 42 m 1,14,-1
 30 42 l 1,15,-1
 30 39 l 1,16,-1
 30 36 l 1,17,-1
 27 36 l 1,18,-1
 27 33 l 1,19,-1
 27 30 l 1,20,-1
 30 30 l 1,21,-1
 33 30 l 1,22,-1
 33 33 l 1,23,-1
 33 36 l 1,24,-1
 36 36 l 1,25,-1
 36 39 l 1,26,-1
 36 42 l 1,27,-1
 33 42 l 1,14,-1
12 24 m 1,28,-1
 15 24 l 1,29,-1
 15 21 l 1,30,-1
 15 18 l 1,31,-1
 12 18 l 1,32,-1
 9 18 l 1,33,-1
 9 15 l 1,34,-1
 9 12 l 1,35,-1
 12 12 l 1,36,-1
 15 12 l 1,37,-1
 15 9 l 1,38,-1
 15 6 l 1,39,-1
 15 3 l 1,40,-1
 15 0 l 1,41,-1
 18 0 l 1,42,-1
 21 0 l 1,43,-1
 21 3 l 1,44,-1
 21 6 l 1,45,-1
 21 9 l 1,46,-1
 21 12 l 1,47,-1
 24 12 l 1,48,-1
 27 12 l 1,49,-1
 27 15 l 1,50,-1
 27 18 l 1,51,-1
 24 18 l 1,52,-1
 21 18 l 1,53,-1
 21 21 l 1,54,-1
 21 24 l 1,55,-1
 24 24 l 1,56,-1
 27 24 l 1,57,-1
 27 27 l 1,58,-1
 27 30 l 1,59,-1
 24 30 l 1,60,-1
 21 30 l 1,61,-1
 21 33 l 1,62,-1
 21 36 l 1,63,-1
 21 39 l 1,64,-1
 21 42 l 1,65,-1
 18 42 l 1,66,-1
 15 42 l 1,67,-1
 15 39 l 1,68,-1
 15 36 l 1,69,-1
 15 33 l 1,70,-1
 15 30 l 1,71,-1
 12 30 l 1,72,-1
 9 30 l 1,73,-1
 9 27 l 1,74,-1
 9 24 l 1,75,-1
 12 24 l 1,28,-1
33 0 m 1,76,-1
 36 0 l 1,77,-1
 36 3 l 1,78,-1
 36 6 l 1,79,-1
 33 6 l 1,80,-1
 33 9 l 1,81,-1
 33 12 l 1,82,-1
 30 12 l 1,83,-1
 27 12 l 1,84,-1
 27 9 l 1,85,-1
 27 6 l 1,86,-1
 30 6 l 1,87,-1
 30 3 l 1,88,-1
 30 0 l 1,89,-1
 33 0 l 1,76,-1
6 6 m 1,90,-1
 9 6 l 1,91,-1
 9 9 l 1,92,-1
 9 12 l 1,93,-1
 6 12 l 1,94,-1
 3 12 l 1,95,-1
 3 9 l 1,96,-1
 3 6 l 1,97,-1
 0 6 l 1,98,-1
 0 3 l 1,99,-1
 0 0 l 1,100,-1
 3 0 l 1,101,-1
 6 0 l 1,102,-1
 6 3 l 1,103,-1
 6 6 l 1,90,-1
EndSplineSet
EndChar

StartChar: uni0417
Encoding: 1047 1047 18
Width: 42
GlyphClass: 1
Flags: W
LayerCount: 2
Fore
SplineSet
6 33 m 1,0,-1
 6 36 l 1,1,-1
 3 36 l 1,2,-1
 0 36 l 1,3,-1
 0 33 l 1,4,-1
 0 30 l 1,5,-1
 3 30 l 1,6,-1
 6 30 l 1,7,-1
 6 33 l 1,0,-1
6 36 m 1,8,-1
 9 36 l 1,9,-1
 12 36 l 1,10,-1
 15 36 l 1,11,-1
 18 36 l 1,12,-1
 21 36 l 1,13,-1
 24 36 l 1,14,-1
 27 36 l 1,15,-1
 30 36 l 1,16,-1
 30 39 l 1,17,-1
 30 42 l 1,18,-1
 27 42 l 1,19,-1
 24 42 l 1,20,-1
 21 42 l 1,21,-1
 18 42 l 1,22,-1
 15 42 l 1,23,-1
 12 42 l 1,24,-1
 9 42 l 1,25,-1
 6 42 l 1,26,-1
 6 39 l 1,27,-1
 6 36 l 1,8,-1
33 36 m 1,28,-1
 30 36 l 1,29,-1
 30 33 l 1,30,-1
 30 30 l 1,31,-1
 30 27 l 1,32,-1
 30 24 l 1,33,-1
 33 24 l 1,34,-1
 36 24 l 1,35,-1
 36 27 l 1,36,-1
 36 30 l 1,37,-1
 36 33 l 1,38,-1
 36 36 l 1,39,-1
 33 36 l 1,28,-1
12 18 m 1,40,-1
 15 18 l 1,41,-1
 18 18 l 1,42,-1
 21 18 l 1,43,-1
 24 18 l 1,44,-1
 27 18 l 1,45,-1
 30 18 l 1,46,-1
 30 21 l 1,47,-1
 30 24 l 1,48,-1
 27 24 l 1,49,-1
 24 24 l 1,50,-1
 21 24 l 1,51,-1
 18 24 l 1,52,-1
 15 24 l 1,53,-1
 12 24 l 1,54,-1
 12 21 l 1,55,-1
 12 18 l 1,40,-1
36 15 m 1,56,-1
 36 18 l 1,57,-1
 33 18 l 1,58,-1
 30 18 l 1,59,-1
 30 15 l 1,60,-1
 30 12 l 1,61,-1
 30 9 l 1,62,-1
 30 6 l 1,63,-1
 33 6 l 1,64,-1
 36 6 l 1,65,-1
 36 9 l 1,66,-1
 36 12 l 1,67,-1
 36 15 l 1,56,-1
30 3 m 1,68,-1
 30 6 l 1,69,-1
 27 6 l 1,70,-1
 24 6 l 1,71,-1
 21 6 l 1,72,-1
 18 6 l 1,73,-1
 15 6 l 1,74,-1
 12 6 l 1,75,-1
 9 6 l 1,76,-1
 6 6 l 1,77,-1
 6 3 l 1,78,-1
 6 0 l 1,79,-1
 9 0 l 1,80,-1
 12 0 l 1,81,-1
 15 0 l 1,82,-1
 18 0 l 1,83,-1
 21 0 l 1,84,-1
 24 0 l 1,85,-1
 27 0 l 1,86,-1
 30 0 l 1,87,-1
 30 3 l 1,68,-1
3 6 m 1,88,-1
 6 6 l 1,89,-1
 6 9 l 1,90,-1
 6 12 l 1,91,-1
 3 12 l 1,92,-1
 0 12 l 1,93,-1
 0 9 l 1,94,-1
 0 6 l 1,95,-1
 3 6 l 1,88,-1
EndSplineSet
EndChar

StartChar: uni0418
Encoding: 1048 1048 19
Width: 42
GlyphClass: 1
Flags: W
LayerCount: 2
Fore
SplineSet
24 0 m 1,0,-1
 27 0 l 1,1,-1
 30 0 l 1,2,-1
 33 0 l 1,3,-1
 36 0 l 1,4,-1
 36 3 l 1,5,-1
 36 6 l 1,6,-1
 33 6 l 1,7,-1
 33 9 l 1,8,-1
 33 12 l 1,9,-1
 33 15 l 1,10,-1
 33 18 l 1,11,-1
 33 21 l 1,12,-1
 33 24 l 1,13,-1
 33 27 l 1,14,-1
 33 30 l 1,15,-1
 33 33 l 1,16,-1
 33 36 l 1,17,-1
 36 36 l 1,18,-1
 36 39 l 1,19,-1
 36 42 l 1,20,-1
 33 42 l 1,21,-1
 30 42 l 1,22,-1
 27 42 l 1,23,-1
 24 42 l 1,24,-1
 24 39 l 1,25,-1
 24 36 l 1,26,-1
 27 36 l 1,27,-1
 27 33 l 1,28,-1
 27 30 l 1,29,-1
 24 30 l 1,30,-1
 21 30 l 1,31,-1
 21 27 l 1,32,-1
 21 24 l 1,33,-1
 24 24 l 1,34,-1
 27 24 l 1,35,-1
 27 21 l 1,36,-1
 27 18 l 1,37,-1
 27 15 l 1,38,-1
 27 12 l 1,39,-1
 27 9 l 1,40,-1
 27 6 l 1,41,-1
 24 6 l 1,42,-1
 24 3 l 1,43,-1
 24 0 l 1,0,-1
9 42 m 1,44,-1
 6 42 l 1,45,-1
 3 42 l 1,46,-1
 0 42 l 1,47,-1
 0 39 l 1,48,-1
 0 36 l 1,49,-1
 3 36 l 1,50,-1
 3 33 l 1,51,-1
 3 30 l 1,52,-1
 3 27 l 1,53,-1
 3 24 l 1,54,-1
 3 21 l 1,55,-1
 3 18 l 1,56,-1
 3 15 l 1,57,-1
 3 12 l 1,58,-1
 3 9 l 1,59,-1
 3 6 l 1,60,-1
 0 6 l 1,61,-1
 0 3 l 1,62,-1
 0 0 l 1,63,-1
 3 0 l 1,64,-1
 6 0 l 1,65,-1
 9 0 l 1,66,-1
 12 0 l 1,67,-1
 12 3 l 1,68,-1
 12 6 l 1,69,-1
 9 6 l 1,70,-1
 9 9 l 1,71,-1
 9 12 l 1,72,-1
 12 12 l 1,73,-1
 15 12 l 1,74,-1
 15 15 l 1,75,-1
 15 18 l 1,76,-1
 12 18 l 1,77,-1
 9 18 l 1,78,-1
 9 21 l 1,79,-1
 9 24 l 1,80,-1
 9 27 l 1,81,-1
 9 30 l 1,82,-1
 9 33 l 1,83,-1
 9 36 l 1,84,-1
 12 36 l 1,85,-1
 12 39 l 1,86,-1
 12 42 l 1,87,-1
 9 42 l 1,44,-1
18 18 m 1,88,-1
 21 18 l 1,89,-1
 21 21 l 1,90,-1
 21 24 l 1,91,-1
 18 24 l 1,92,-1
 15 24 l 1,93,-1
 15 21 l 1,94,-1
 15 18 l 1,95,-1
 18 18 l 1,88,-1
EndSplineSet
EndChar

StartChar: uni0419
Encoding: 1049 1049 20
Width: 42
GlyphClass: 1
Flags: W
LayerCount: 2
Fore
SplineSet
30 57 m 1,0,-1
 30 60 l 1,1,-1
 27 60 l 1,2,-1
 24 60 l 1,3,-1
 24 57 l 1,4,-1
 24 54 l 1,5,-1
 27 54 l 1,6,-1
 30 54 l 1,7,-1
 30 57 l 1,0,-1
12 57 m 1,8,-1
 12 60 l 1,9,-1
 9 60 l 1,10,-1
 6 60 l 1,11,-1
 6 57 l 1,12,-1
 6 54 l 1,13,-1
 9 54 l 1,14,-1
 12 54 l 1,15,-1
 12 57 l 1,8,-1
15 48 m 1,16,-1
 18 48 l 1,17,-1
 21 48 l 1,18,-1
 24 48 l 1,19,-1
 24 51 l 1,20,-1
 24 54 l 1,21,-1
 21 54 l 1,22,-1
 18 54 l 1,23,-1
 15 54 l 1,24,-1
 12 54 l 1,25,-1
 12 51 l 1,26,-1
 12 48 l 1,27,-1
 15 48 l 1,16,-1
24 0 m 1,28,-1
 27 0 l 1,29,-1
 30 0 l 1,30,-1
 33 0 l 1,31,-1
 36 0 l 1,32,-1
 36 3 l 1,33,-1
 36 6 l 1,34,-1
 33 6 l 1,35,-1
 33 9 l 1,36,-1
 33 12 l 1,37,-1
 33 15 l 1,38,-1
 33 18 l 1,39,-1
 33 21 l 1,40,-1
 33 24 l 1,41,-1
 33 27 l 1,42,-1
 33 30 l 1,43,-1
 33 33 l 1,44,-1
 33 36 l 1,45,-1
 36 36 l 1,46,-1
 36 39 l 1,47,-1
 36 42 l 1,48,-1
 33 42 l 1,49,-1
 30 42 l 1,50,-1
 27 42 l 1,51,-1
 24 42 l 1,52,-1
 24 39 l 1,53,-1
 24 36 l 1,54,-1
 27 36 l 1,55,-1
 27 33 l 1,56,-1
 27 30 l 1,57,-1
 24 30 l 1,58,-1
 21 30 l 1,59,-1
 21 27 l 1,60,-1
 21 24 l 1,61,-1
 24 24 l 1,62,-1
 27 24 l 1,63,-1
 27 21 l 1,64,-1
 27 18 l 1,65,-1
 27 15 l 1,66,-1
 27 12 l 1,67,-1
 27 9 l 1,68,-1
 27 6 l 1,69,-1
 24 6 l 1,70,-1
 24 3 l 1,71,-1
 24 0 l 1,28,-1
9 42 m 1,72,-1
 6 42 l 1,73,-1
 3 42 l 1,74,-1
 0 42 l 1,75,-1
 0 39 l 1,76,-1
 0 36 l 1,77,-1
 3 36 l 1,78,-1
 3 33 l 1,79,-1
 3 30 l 1,80,-1
 3 27 l 1,81,-1
 3 24 l 1,82,-1
 3 21 l 1,83,-1
 3 18 l 1,84,-1
 3 15 l 1,85,-1
 3 12 l 1,86,-1
 3 9 l 1,87,-1
 3 6 l 1,88,-1
 0 6 l 1,89,-1
 0 3 l 1,90,-1
 0 0 l 1,91,-1
 3 0 l 1,92,-1
 6 0 l 1,93,-1
 9 0 l 1,94,-1
 12 0 l 1,95,-1
 12 3 l 1,96,-1
 12 6 l 1,97,-1
 9 6 l 1,98,-1
 9 9 l 1,99,-1
 9 12 l 1,100,-1
 12 12 l 1,101,-1
 15 12 l 1,102,-1
 15 15 l 1,103,-1
 15 18 l 1,104,-1
 12 18 l 1,105,-1
 9 18 l 1,106,-1
 9 21 l 1,107,-1
 9 24 l 1,108,-1
 9 27 l 1,109,-1
 9 30 l 1,110,-1
 9 33 l 1,111,-1
 9 36 l 1,112,-1
 12 36 l 1,113,-1
 12 39 l 1,114,-1
 12 42 l 1,115,-1
 9 42 l 1,72,-1
18 18 m 1,116,-1
 21 18 l 1,117,-1
 21 21 l 1,118,-1
 21 24 l 1,119,-1
 18 24 l 1,120,-1
 15 24 l 1,121,-1
 15 21 l 1,122,-1
 15 18 l 1,123,-1
 18 18 l 1,116,-1
EndSplineSet
EndChar

StartChar: uni041A
Encoding: 1050 1050 21
Width: 42
GlyphClass: 1
Flags: W
LayerCount: 2
Fore
SplineSet
30 42 m 1,0,-1
 27 42 l 1,1,-1
 24 42 l 1,2,-1
 24 39 l 1,3,-1
 24 36 l 1,4,-1
 24 33 l 1,5,-1
 24 30 l 1,6,-1
 27 30 l 1,7,-1
 30 30 l 1,8,-1
 30 33 l 1,9,-1
 30 36 l 1,10,-1
 33 36 l 1,11,-1
 36 36 l 1,12,-1
 36 39 l 1,13,-1
 36 42 l 1,14,-1
 33 42 l 1,15,-1
 30 42 l 1,0,-1
33 6 m 1,16,-1
 30 6 l 1,17,-1
 30 9 l 1,18,-1
 30 12 l 1,19,-1
 27 12 l 1,20,-1
 24 12 l 1,21,-1
 24 9 l 1,22,-1
 24 6 l 1,23,-1
 24 3 l 1,24,-1
 24 0 l 1,25,-1
 27 0 l 1,26,-1
 30 0 l 1,27,-1
 33 0 l 1,28,-1
 36 0 l 1,29,-1
 36 3 l 1,30,-1
 36 6 l 1,31,-1
 33 6 l 1,16,-1
18 21 m 1,32,-1
 18 24 l 1,33,-1
 15 24 l 1,34,-1
 12 24 l 1,35,-1
 12 27 l 1,36,-1
 12 30 l 1,37,-1
 12 33 l 1,38,-1
 12 36 l 1,39,-1
 15 36 l 1,40,-1
 18 36 l 1,41,-1
 18 39 l 1,42,-1
 18 42 l 1,43,-1
 15 42 l 1,44,-1
 12 42 l 1,45,-1
 9 42 l 1,46,-1
 6 42 l 1,47,-1
 3 42 l 1,48,-1
 0 42 l 1,49,-1
 0 39 l 1,50,-1
 0 36 l 1,51,-1
 3 36 l 1,52,-1
 6 36 l 1,53,-1
 6 33 l 1,54,-1
 6 30 l 1,55,-1
 6 27 l 1,56,-1
 6 24 l 1,57,-1
 6 21 l 1,58,-1
 6 18 l 1,59,-1
 6 15 l 1,60,-1
 6 12 l 1,61,-1
 6 9 l 1,62,-1
 6 6 l 1,63,-1
 3 6 l 1,64,-1
 0 6 l 1,65,-1
 0 3 l 1,66,-1
 0 0 l 1,67,-1
 3 0 l 1,68,-1
 6 0 l 1,69,-1
 9 0 l 1,70,-1
 12 0 l 1,71,-1
 12 3 l 1,72,-1
 12 6 l 1,73,-1
 12 9 l 1,74,-1
 12 12 l 1,75,-1
 12 15 l 1,76,-1
 12 18 l 1,77,-1
 15 18 l 1,78,-1
 18 18 l 1,79,-1
 18 21 l 1,32,-1
21 18 m 1,80,-1
 18 18 l 1,81,-1
 18 15 l 1,82,-1
 18 12 l 1,83,-1
 21 12 l 1,84,-1
 24 12 l 1,85,-1
 24 15 l 1,86,-1
 24 18 l 1,87,-1
 21 18 l 1,80,-1
21 30 m 1,88,-1
 18 30 l 1,89,-1
 18 27 l 1,90,-1
 18 24 l 1,91,-1
 21 24 l 1,92,-1
 24 24 l 1,93,-1
 24 27 l 1,94,-1
 24 30 l 1,95,-1
 21 30 l 1,88,-1
EndSplineSet
EndChar

StartChar: uni041B
Encoding: 1051 1051 22
Width: 42
GlyphClass: 1
Flags: W
LayerCount: 2
Fore
SplineSet
36 3 m 1,0,-1
 36 6 l 1,1,-1
 33 6 l 1,2,-1
 30 6 l 1,3,-1
 30 9 l 1,4,-1
 30 12 l 1,5,-1
 30 15 l 1,6,-1
 30 18 l 1,7,-1
 30 21 l 1,8,-1
 30 24 l 1,9,-1
 30 27 l 1,10,-1
 30 30 l 1,11,-1
 30 33 l 1,12,-1
 30 36 l 1,13,-1
 30 39 l 1,14,-1
 30 42 l 1,15,-1
 27 42 l 1,16,-1
 24 42 l 1,17,-1
 24 39 l 1,18,-1
 24 36 l 1,19,-1
 21 36 l 1,20,-1
 18 36 l 1,21,-1
 18 33 l 1,22,-1
 18 30 l 1,23,-1
 21 30 l 1,24,-1
 24 30 l 1,25,-1
 24 27 l 1,26,-1
 24 24 l 1,27,-1
 24 21 l 1,28,-1
 24 18 l 1,29,-1
 24 15 l 1,30,-1
 24 12 l 1,31,-1
 24 9 l 1,32,-1
 24 6 l 1,33,-1
 24 3 l 1,34,-1
 24 0 l 1,35,-1
 27 0 l 1,36,-1
 30 0 l 1,37,-1
 33 0 l 1,38,-1
 36 0 l 1,39,-1
 36 3 l 1,0,-1
15 24 m 1,40,-1
 18 24 l 1,41,-1
 18 27 l 1,42,-1
 18 30 l 1,43,-1
 15 30 l 1,44,-1
 12 30 l 1,45,-1
 12 27 l 1,46,-1
 12 24 l 1,47,-1
 15 24 l 1,40,-1
12 18 m 1,48,-1
 12 21 l 1,49,-1
 12 24 l 1,50,-1
 9 24 l 1,51,-1
 6 24 l 1,52,-1
 6 21 l 1,53,-1
 6 18 l 1,54,-1
 6 15 l 1,55,-1
 6 12 l 1,56,-1
 6 9 l 1,57,-1
 6 6 l 1,58,-1
 3 6 l 1,59,-1
 0 6 l 1,60,-1
 0 3 l 1,61,-1
 0 0 l 1,62,-1
 3 0 l 1,63,-1
 6 0 l 1,64,-1
 9 0 l 1,65,-1
 12 0 l 1,66,-1
 12 3 l 1,67,-1
 12 6 l 1,68,-1
 12 9 l 1,69,-1
 12 12 l 1,70,-1
 12 15 l 1,71,-1
 12 18 l 1,48,-1
EndSplineSet
EndChar

StartChar: uni041C
Encoding: 1052 1052 23
Width: 42
GlyphClass: 1
Flags: W
LayerCount: 2
Fore
SplineSet
0 0 m 1,0,-1
 3 0 l 1,1,-1
 6 0 l 1,2,-1
 9 0 l 1,3,-1
 12 0 l 1,4,-1
 12 3 l 1,5,-1
 12 6 l 1,6,-1
 9 6 l 1,7,-1
 9 9 l 1,8,-1
 9 12 l 1,9,-1
 9 15 l 1,10,-1
 9 18 l 1,11,-1
 9 21 l 1,12,-1
 9 24 l 1,13,-1
 12 24 l 1,14,-1
 15 24 l 1,15,-1
 15 27 l 1,16,-1
 15 30 l 1,17,-1
 12 30 l 1,18,-1
 9 30 l 1,19,-1
 9 33 l 1,20,-1
 9 36 l 1,21,-1
 12 36 l 1,22,-1
 12 39 l 1,23,-1
 12 42 l 1,24,-1
 9 42 l 1,25,-1
 6 42 l 1,26,-1
 3 42 l 1,27,-1
 0 42 l 1,28,-1
 0 39 l 1,29,-1
 0 36 l 1,30,-1
 3 36 l 1,31,-1
 3 33 l 1,32,-1
 3 30 l 1,33,-1
 3 27 l 1,34,-1
 3 24 l 1,35,-1
 3 21 l 1,36,-1
 3 18 l 1,37,-1
 3 15 l 1,38,-1
 3 12 l 1,39,-1
 3 9 l 1,40,-1
 3 6 l 1,41,-1
 0 6 l 1,42,-1
 0 3 l 1,43,-1
 0 0 l 1,0,-1
24 0 m 1,44,-1
 27 0 l 1,45,-1
 30 0 l 1,46,-1
 33 0 l 1,47,-1
 36 0 l 1,48,-1
 36 3 l 1,49,-1
 36 6 l 1,50,-1
 33 6 l 1,51,-1
 33 9 l 1,52,-1
 33 12 l 1,53,-1
 33 15 l 1,54,-1
 33 18 l 1,55,-1
 33 21 l 1,56,-1
 33 24 l 1,57,-1
 33 27 l 1,58,-1
 33 30 l 1,59,-1
 33 33 l 1,60,-1
 33 36 l 1,61,-1
 36 36 l 1,62,-1
 36 39 l 1,63,-1
 36 42 l 1,64,-1
 33 42 l 1,65,-1
 30 42 l 1,66,-1
 27 42 l 1,67,-1
 24 42 l 1,68,-1
 24 39 l 1,69,-1
 24 36 l 1,70,-1
 27 36 l 1,71,-1
 27 33 l 1,72,-1
 27 30 l 1,73,-1
 24 30 l 1,74,-1
 21 30 l 1,75,-1
 21 27 l 1,76,-1
 21 24 l 1,77,-1
 24 24 l 1,78,-1
 27 24 l 1,79,-1
 27 21 l 1,80,-1
 27 18 l 1,81,-1
 27 15 l 1,82,-1
 27 12 l 1,83,-1
 27 9 l 1,84,-1
 27 6 l 1,85,-1
 24 6 l 1,86,-1
 24 3 l 1,87,-1
 24 0 l 1,44,-1
18 24 m 1,88,-1
 15 24 l 1,89,-1
 15 21 l 1,90,-1
 15 18 l 1,91,-1
 18 18 l 1,92,-1
 21 18 l 1,93,-1
 21 21 l 1,94,-1
 21 24 l 1,95,-1
 18 24 l 1,88,-1
EndSplineSet
EndChar

StartChar: uni041D
Encoding: 1053 1053 24
Width: 42
GlyphClass: 1
Flags: W
LayerCount: 2
Fore
SplineSet
6 6 m 1,0,-1
 3 6 l 1,1,-1
 0 6 l 1,2,-1
 0 3 l 1,3,-1
 0 0 l 1,4,-1
 3 0 l 1,5,-1
 6 0 l 1,6,-1
 9 0 l 1,7,-1
 12 0 l 1,8,-1
 15 0 l 1,9,-1
 15 3 l 1,10,-1
 15 6 l 1,11,-1
 12 6 l 1,12,-1
 12 9 l 1,13,-1
 12 12 l 1,14,-1
 12 15 l 1,15,-1
 12 18 l 1,16,-1
 15 18 l 1,17,-1
 18 18 l 1,18,-1
 21 18 l 1,19,-1
 24 18 l 1,20,-1
 24 15 l 1,21,-1
 24 12 l 1,22,-1
 24 9 l 1,23,-1
 24 6 l 1,24,-1
 21 6 l 1,25,-1
 21 3 l 1,26,-1
 21 0 l 1,27,-1
 24 0 l 1,28,-1
 27 0 l 1,29,-1
 30 0 l 1,30,-1
 33 0 l 1,31,-1
 36 0 l 1,32,-1
 36 3 l 1,33,-1
 36 6 l 1,34,-1
 33 6 l 1,35,-1
 30 6 l 1,36,-1
 30 9 l 1,37,-1
 30 12 l 1,38,-1
 30 15 l 1,39,-1
 30 18 l 1,40,-1
 30 21 l 1,41,-1
 30 24 l 1,42,-1
 30 27 l 1,43,-1
 30 30 l 1,44,-1
 30 33 l 1,45,-1
 30 36 l 1,46,-1
 33 36 l 1,47,-1
 36 36 l 1,48,-1
 36 39 l 1,49,-1
 36 42 l 1,50,-1
 33 42 l 1,51,-1
 30 42 l 1,52,-1
 27 42 l 1,53,-1
 24 42 l 1,54,-1
 21 42 l 1,55,-1
 21 39 l 1,56,-1
 21 36 l 1,57,-1
 24 36 l 1,58,-1
 24 33 l 1,59,-1
 24 30 l 1,60,-1
 24 27 l 1,61,-1
 24 24 l 1,62,-1
 21 24 l 1,63,-1
 18 24 l 1,64,-1
 15 24 l 1,65,-1
 12 24 l 1,66,-1
 12 27 l 1,67,-1
 12 30 l 1,68,-1
 12 33 l 1,69,-1
 12 36 l 1,70,-1
 15 36 l 1,71,-1
 15 39 l 1,72,-1
 15 42 l 1,73,-1
 12 42 l 1,74,-1
 9 42 l 1,75,-1
 6 42 l 1,76,-1
 3 42 l 1,77,-1
 0 42 l 1,78,-1
 0 39 l 1,79,-1
 0 36 l 1,80,-1
 3 36 l 1,81,-1
 6 36 l 1,82,-1
 6 33 l 1,83,-1
 6 30 l 1,84,-1
 6 27 l 1,85,-1
 6 24 l 1,86,-1
 6 21 l 1,87,-1
 6 18 l 1,88,-1
 6 15 l 1,89,-1
 6 12 l 1,90,-1
 6 9 l 1,91,-1
 6 6 l 1,0,-1
EndSplineSet
EndChar

StartChar: uni041E
Encoding: 1054 1054 25
Width: 42
GlyphClass: 1
Flags: W
LayerCount: 2
Fore
SplineSet
9 6 m 1,0,-1
 6 6 l 1,1,-1
 6 3 l 1,2,-1
 6 0 l 1,3,-1
 9 0 l 1,4,-1
 12 0 l 1,5,-1
 15 0 l 1,6,-1
 18 0 l 1,7,-1
 21 0 l 1,8,-1
 24 0 l 1,9,-1
 27 0 l 1,10,-1
 30 0 l 1,11,-1
 30 3 l 1,12,-1
 30 6 l 1,13,-1
 27 6 l 1,14,-1
 24 6 l 1,15,-1
 21 6 l 1,16,-1
 18 6 l 1,17,-1
 15 6 l 1,18,-1
 12 6 l 1,19,-1
 9 6 l 1,0,-1
6 36 m 1,20,-1
 9 36 l 1,21,-1
 12 36 l 1,22,-1
 15 36 l 1,23,-1
 18 36 l 1,24,-1
 21 36 l 1,25,-1
 24 36 l 1,26,-1
 27 36 l 1,27,-1
 30 36 l 1,28,-1
 30 39 l 1,29,-1
 30 42 l 1,30,-1
 27 42 l 1,31,-1
 24 42 l 1,32,-1
 21 42 l 1,33,-1
 18 42 l 1,34,-1
 15 42 l 1,35,-1
 12 42 l 1,36,-1
 9 42 l 1,37,-1
 6 42 l 1,38,-1
 6 39 l 1,39,-1
 6 36 l 1,20,-1
33 36 m 1,40,-1
 30 36 l 1,41,-1
 30 33 l 1,42,-1
 30 30 l 1,43,-1
 30 27 l 1,44,-1
 30 24 l 1,45,-1
 30 21 l 1,46,-1
 30 18 l 1,47,-1
 30 15 l 1,48,-1
 30 12 l 1,49,-1
 30 9 l 1,50,-1
 30 6 l 1,51,-1
 33 6 l 1,52,-1
 36 6 l 1,53,-1
 36 9 l 1,54,-1
 36 12 l 1,55,-1
 36 15 l 1,56,-1
 36 18 l 1,57,-1
 36 21 l 1,58,-1
 36 24 l 1,59,-1
 36 27 l 1,60,-1
 36 30 l 1,61,-1
 36 33 l 1,62,-1
 36 36 l 1,63,-1
 33 36 l 1,40,-1
3 36 m 1,64,-1
 0 36 l 1,65,-1
 0 33 l 1,66,-1
 0 30 l 1,67,-1
 0 27 l 1,68,-1
 0 24 l 1,69,-1
 0 21 l 1,70,-1
 0 18 l 1,71,-1
 0 15 l 1,72,-1
 0 12 l 1,73,-1
 0 9 l 1,74,-1
 0 6 l 1,75,-1
 3 6 l 1,76,-1
 6 6 l 1,77,-1
 6 9 l 1,78,-1
 6 12 l 1,79,-1
 6 15 l 1,80,-1
 6 18 l 1,81,-1
 6 21 l 1,82,-1
 6 24 l 1,83,-1
 6 27 l 1,84,-1
 6 30 l 1,85,-1
 6 33 l 1,86,-1
 6 36 l 1,87,-1
 3 36 l 1,64,-1
EndSplineSet
EndChar

StartChar: uni041F
Encoding: 1055 1055 26
Width: 42
GlyphClass: 1
Flags: W
LayerCount: 2
Fore
SplineSet
6 0 m 1,0,-1
 9 0 l 1,1,-1
 12 0 l 1,2,-1
 12 3 l 1,3,-1
 12 6 l 1,4,-1
 12 9 l 1,5,-1
 12 12 l 1,6,-1
 12 15 l 1,7,-1
 12 18 l 1,8,-1
 12 21 l 1,9,-1
 12 24 l 1,10,-1
 12 27 l 1,11,-1
 12 30 l 1,12,-1
 12 33 l 1,13,-1
 12 36 l 1,14,-1
 15 36 l 1,15,-1
 18 36 l 1,16,-1
 21 36 l 1,17,-1
 24 36 l 1,18,-1
 24 33 l 1,19,-1
 24 30 l 1,20,-1
 24 27 l 1,21,-1
 24 24 l 1,22,-1
 24 21 l 1,23,-1
 24 18 l 1,24,-1
 24 15 l 1,25,-1
 24 12 l 1,26,-1
 24 9 l 1,27,-1
 24 6 l 1,28,-1
 24 3 l 1,29,-1
 24 0 l 1,30,-1
 27 0 l 1,31,-1
 30 0 l 1,32,-1
 30 3 l 1,33,-1
 30 6 l 1,34,-1
 30 9 l 1,35,-1
 30 12 l 1,36,-1
 30 15 l 1,37,-1
 30 18 l 1,38,-1
 30 21 l 1,39,-1
 30 24 l 1,40,-1
 30 27 l 1,41,-1
 30 30 l 1,42,-1
 30 33 l 1,43,-1
 30 36 l 1,44,-1
 33 36 l 1,45,-1
 36 36 l 1,46,-1
 36 39 l 1,47,-1
 36 42 l 1,48,-1
 33 42 l 1,49,-1
 30 42 l 1,50,-1
 27 42 l 1,51,-1
 24 42 l 1,52,-1
 21 42 l 1,53,-1
 18 42 l 1,54,-1
 15 42 l 1,55,-1
 12 42 l 1,56,-1
 9 42 l 1,57,-1
 6 42 l 1,58,-1
 3 42 l 1,59,-1
 0 42 l 1,60,-1
 0 39 l 1,61,-1
 0 36 l 1,62,-1
 3 36 l 1,63,-1
 6 36 l 1,64,-1
 6 33 l 1,65,-1
 6 30 l 1,66,-1
 6 27 l 1,67,-1
 6 24 l 1,68,-1
 6 21 l 1,69,-1
 6 18 l 1,70,-1
 6 15 l 1,71,-1
 6 12 l 1,72,-1
 6 9 l 1,73,-1
 6 6 l 1,74,-1
 6 3 l 1,75,-1
 6 0 l 1,0,-1
EndSplineSet
EndChar

StartChar: uni0420
Encoding: 1056 1056 27
Width: 42
GlyphClass: 1
Flags: W
LayerCount: 2
Fore
SplineSet
3 6 m 1,0,-1
 0 6 l 1,1,-1
 0 3 l 1,2,-1
 0 0 l 1,3,-1
 3 0 l 1,4,-1
 6 0 l 1,5,-1
 9 0 l 1,6,-1
 12 0 l 1,7,-1
 15 0 l 1,8,-1
 18 0 l 1,9,-1
 18 3 l 1,10,-1
 18 6 l 1,11,-1
 15 6 l 1,12,-1
 12 6 l 1,13,-1
 12 9 l 1,14,-1
 12 12 l 1,15,-1
 12 15 l 1,16,-1
 12 18 l 1,17,-1
 15 18 l 1,18,-1
 18 18 l 1,19,-1
 21 18 l 1,20,-1
 24 18 l 1,21,-1
 27 18 l 1,22,-1
 30 18 l 1,23,-1
 30 21 l 1,24,-1
 30 24 l 1,25,-1
 27 24 l 1,26,-1
 24 24 l 1,27,-1
 21 24 l 1,28,-1
 18 24 l 1,29,-1
 15 24 l 1,30,-1
 12 24 l 1,31,-1
 12 27 l 1,32,-1
 12 30 l 1,33,-1
 12 33 l 1,34,-1
 12 36 l 1,35,-1
 15 36 l 1,36,-1
 18 36 l 1,37,-1
 21 36 l 1,38,-1
 24 36 l 1,39,-1
 27 36 l 1,40,-1
 30 36 l 1,41,-1
 30 39 l 1,42,-1
 30 42 l 1,43,-1
 27 42 l 1,44,-1
 24 42 l 1,45,-1
 21 42 l 1,46,-1
 18 42 l 1,47,-1
 15 42 l 1,48,-1
 12 42 l 1,49,-1
 9 42 l 1,50,-1
 6 42 l 1,51,-1
 3 42 l 1,52,-1
 0 42 l 1,53,-1
 0 39 l 1,54,-1
 0 36 l 1,55,-1
 3 36 l 1,56,-1
 6 36 l 1,57,-1
 6 33 l 1,58,-1
 6 30 l 1,59,-1
 6 27 l 1,60,-1
 6 24 l 1,61,-1
 6 21 l 1,62,-1
 6 18 l 1,63,-1
 6 15 l 1,64,-1
 6 12 l 1,65,-1
 6 9 l 1,66,-1
 6 6 l 1,67,-1
 3 6 l 1,0,-1
30 24 m 1,68,-1
 33 24 l 1,69,-1
 36 24 l 1,70,-1
 36 27 l 1,71,-1
 36 30 l 1,72,-1
 36 33 l 1,73,-1
 36 36 l 1,74,-1
 33 36 l 1,75,-1
 30 36 l 1,76,-1
 30 33 l 1,77,-1
 30 30 l 1,78,-1
 30 27 l 1,79,-1
 30 24 l 1,68,-1
EndSplineSet
EndChar

StartChar: uni0421
Encoding: 1057 1057 28
Width: 42
GlyphClass: 1
Flags: W
LayerCount: 2
Fore
SplineSet
18 6 m 1,0,-1
 15 6 l 1,1,-1
 12 6 l 1,2,-1
 9 6 l 1,3,-1
 6 6 l 1,4,-1
 6 3 l 1,5,-1
 6 0 l 1,6,-1
 9 0 l 1,7,-1
 12 0 l 1,8,-1
 15 0 l 1,9,-1
 18 0 l 1,10,-1
 21 0 l 1,11,-1
 24 0 l 1,12,-1
 27 0 l 1,13,-1
 30 0 l 1,14,-1
 33 0 l 1,15,-1
 36 0 l 1,16,-1
 36 3 l 1,17,-1
 36 6 l 1,18,-1
 36 9 l 1,19,-1
 36 12 l 1,20,-1
 33 12 l 1,21,-1
 30 12 l 1,22,-1
 30 9 l 1,23,-1
 30 6 l 1,24,-1
 27 6 l 1,25,-1
 24 6 l 1,26,-1
 21 6 l 1,27,-1
 18 6 l 1,0,-1
3 6 m 1,28,-1
 6 6 l 1,29,-1
 6 9 l 1,30,-1
 6 12 l 1,31,-1
 6 15 l 1,32,-1
 6 18 l 1,33,-1
 6 21 l 1,34,-1
 6 24 l 1,35,-1
 6 27 l 1,36,-1
 6 30 l 1,37,-1
 6 33 l 1,38,-1
 6 36 l 1,39,-1
 3 36 l 1,40,-1
 0 36 l 1,41,-1
 0 33 l 1,42,-1
 0 30 l 1,43,-1
 0 27 l 1,44,-1
 0 24 l 1,45,-1
 0 21 l 1,46,-1
 0 18 l 1,47,-1
 0 15 l 1,48,-1
 0 12 l 1,49,-1
 0 9 l 1,50,-1
 0 6 l 1,51,-1
 3 6 l 1,28,-1
6 36 m 1,52,-1
 9 36 l 1,53,-1
 12 36 l 1,54,-1
 15 36 l 1,55,-1
 18 36 l 1,56,-1
 21 36 l 1,57,-1
 24 36 l 1,58,-1
 27 36 l 1,59,-1
 30 36 l 1,60,-1
 30 33 l 1,61,-1
 30 30 l 1,62,-1
 33 30 l 1,63,-1
 36 30 l 1,64,-1
 36 33 l 1,65,-1
 36 36 l 1,66,-1
 36 39 l 1,67,-1
 36 42 l 1,68,-1
 33 42 l 1,69,-1
 30 42 l 1,70,-1
 27 42 l 1,71,-1
 24 42 l 1,72,-1
 21 42 l 1,73,-1
 18 42 l 1,74,-1
 15 42 l 1,75,-1
 12 42 l 1,76,-1
 9 42 l 1,77,-1
 6 42 l 1,78,-1
 6 39 l 1,79,-1
 6 36 l 1,52,-1
EndSplineSet
EndChar

StartChar: uni0422
Encoding: 1058 1058 29
Width: 42
GlyphClass: 1
Flags: W
LayerCount: 2
Fore
SplineSet
30 36 m 1,0,-1
 30 33 l 1,1,-1
 30 30 l 1,2,-1
 33 30 l 1,3,-1
 36 30 l 1,4,-1
 36 33 l 1,5,-1
 36 36 l 1,6,-1
 36 39 l 1,7,-1
 36 42 l 1,8,-1
 33 42 l 1,9,-1
 30 42 l 1,10,-1
 27 42 l 1,11,-1
 24 42 l 1,12,-1
 21 42 l 1,13,-1
 18 42 l 1,14,-1
 15 42 l 1,15,-1
 12 42 l 1,16,-1
 9 42 l 1,17,-1
 6 42 l 1,18,-1
 3 42 l 1,19,-1
 0 42 l 1,20,-1
 0 39 l 1,21,-1
 0 36 l 1,22,-1
 0 33 l 1,23,-1
 0 30 l 1,24,-1
 3 30 l 1,25,-1
 6 30 l 1,26,-1
 6 33 l 1,27,-1
 6 36 l 1,28,-1
 9 36 l 1,29,-1
 12 36 l 1,30,-1
 15 36 l 1,31,-1
 15 33 l 1,32,-1
 15 30 l 1,33,-1
 15 27 l 1,34,-1
 15 24 l 1,35,-1
 15 21 l 1,36,-1
 15 18 l 1,37,-1
 15 15 l 1,38,-1
 15 12 l 1,39,-1
 15 9 l 1,40,-1
 15 6 l 1,41,-1
 12 6 l 1,42,-1
 9 6 l 1,43,-1
 9 3 l 1,44,-1
 9 0 l 1,45,-1
 12 0 l 1,46,-1
 15 0 l 1,47,-1
 18 0 l 1,48,-1
 21 0 l 1,49,-1
 24 0 l 1,50,-1
 27 0 l 1,51,-1
 27 3 l 1,52,-1
 27 6 l 1,53,-1
 24 6 l 1,54,-1
 21 6 l 1,55,-1
 21 9 l 1,56,-1
 21 12 l 1,57,-1
 21 15 l 1,58,-1
 21 18 l 1,59,-1
 21 21 l 1,60,-1
 21 24 l 1,61,-1
 21 27 l 1,62,-1
 21 30 l 1,63,-1
 21 33 l 1,64,-1
 21 36 l 1,65,-1
 24 36 l 1,66,-1
 27 36 l 1,67,-1
 30 36 l 1,0,-1
EndSplineSet
EndChar

StartChar: uni0423
Encoding: 1059 1059 30
Width: 42
GlyphClass: 1
Flags: W
LayerCount: 2
Fore
SplineSet
9 6 m 1,0,-1
 6 6 l 1,1,-1
 6 3 l 1,2,-1
 6 0 l 1,3,-1
 9 0 l 1,4,-1
 12 0 l 1,5,-1
 15 0 l 1,6,-1
 18 0 l 1,7,-1
 21 0 l 1,8,-1
 24 0 l 1,9,-1
 24 3 l 1,10,-1
 24 6 l 1,11,-1
 21 6 l 1,12,-1
 18 6 l 1,13,-1
 15 6 l 1,14,-1
 12 6 l 1,15,-1
 9 6 l 1,0,-1
24 6 m 1,16,-1
 27 6 l 1,17,-1
 30 6 l 1,18,-1
 30 9 l 1,19,-1
 30 12 l 1,20,-1
 30 15 l 1,21,-1
 30 18 l 1,22,-1
 27 18 l 1,23,-1
 24 18 l 1,24,-1
 21 18 l 1,25,-1
 18 18 l 1,26,-1
 15 18 l 1,27,-1
 12 18 l 1,28,-1
 12 15 l 1,29,-1
 12 12 l 1,30,-1
 15 12 l 1,31,-1
 18 12 l 1,32,-1
 21 12 l 1,33,-1
 24 12 l 1,34,-1
 24 9 l 1,35,-1
 24 6 l 1,16,-1
9 18 m 1,36,-1
 12 18 l 1,37,-1
 12 21 l 1,38,-1
 12 24 l 1,39,-1
 9 24 l 1,40,-1
 6 24 l 1,41,-1
 6 21 l 1,42,-1
 6 18 l 1,43,-1
 9 18 l 1,36,-1
3 24 m 1,44,-1
 6 24 l 1,45,-1
 6 27 l 1,46,-1
 6 30 l 1,47,-1
 6 33 l 1,48,-1
 6 36 l 1,49,-1
 6 39 l 1,50,-1
 6 42 l 1,51,-1
 3 42 l 1,52,-1
 0 42 l 1,53,-1
 0 39 l 1,54,-1
 0 36 l 1,55,-1
 0 33 l 1,56,-1
 0 30 l 1,57,-1
 0 27 l 1,58,-1
 0 24 l 1,59,-1
 3 24 l 1,44,-1
30 24 m 1,60,-1
 30 21 l 1,61,-1
 30 18 l 1,62,-1
 33 18 l 1,63,-1
 36 18 l 1,64,-1
 36 21 l 1,65,-1
 36 24 l 1,66,-1
 36 27 l 1,67,-1
 36 30 l 1,68,-1
 36 33 l 1,69,-1
 36 36 l 1,70,-1
 36 39 l 1,71,-1
 36 42 l 1,72,-1
 33 42 l 1,73,-1
 30 42 l 1,74,-1
 30 39 l 1,75,-1
 30 36 l 1,76,-1
 30 33 l 1,77,-1
 30 30 l 1,78,-1
 30 27 l 1,79,-1
 30 24 l 1,60,-1
EndSplineSet
EndChar

StartChar: uni0424
Encoding: 1060 1060 31
Width: 42
GlyphClass: 1
Flags: W
LayerCount: 2
Fore
SplineSet
36 36 m 1,0,-1
 36 39 l 1,1,-1
 33 39 l 1,2,-1
 30 39 l 1,3,-1
 27 39 l 1,4,-1
 24 39 l 1,5,-1
 21 39 l 1,6,-1
 21 42 l 1,7,-1
 21 45 l 1,8,-1
 18 45 l 1,9,-1
 15 45 l 1,10,-1
 15 42 l 1,11,-1
 15 39 l 1,12,-1
 12 39 l 1,13,-1
 9 39 l 1,14,-1
 6 39 l 1,15,-1
 3 39 l 1,16,-1
 0 39 l 1,17,-1
 0 36 l 1,18,-1
 0 33 l 1,19,-1
 0 30 l 1,20,-1
 0 27 l 1,21,-1
 0 24 l 1,22,-1
 0 21 l 1,23,-1
 0 18 l 1,24,-1
 3 18 l 1,25,-1
 6 18 l 1,26,-1
 9 18 l 1,27,-1
 12 18 l 1,28,-1
 15 18 l 1,29,-1
 15 15 l 1,30,-1
 15 12 l 1,31,-1
 15 9 l 1,32,-1
 15 6 l 1,33,-1
 12 6 l 1,34,-1
 9 6 l 1,35,-1
 9 3 l 1,36,-1
 9 0 l 1,37,-1
 12 0 l 1,38,-1
 15 0 l 1,39,-1
 18 0 l 1,40,-1
 21 0 l 1,41,-1
 24 0 l 1,42,-1
 27 0 l 1,43,-1
 27 3 l 1,44,-1
 27 6 l 1,45,-1
 24 6 l 1,46,-1
 21 6 l 1,47,-1
 21 9 l 1,48,-1
 21 12 l 1,49,-1
 21 15 l 1,50,-1
 21 18 l 1,51,-1
 24 18 l 1,52,-1
 27 18 l 1,53,-1
 30 18 l 1,54,-1
 33 18 l 1,55,-1
 36 18 l 1,56,-1
 36 21 l 1,57,-1
 36 24 l 1,58,-1
 36 27 l 1,59,-1
 36 30 l 1,60,-1
 36 33 l 1,61,-1
 36 36 l 1,0,-1
12 33 m 1,62,-1
 15 33 l 1,63,-1
 15 30 l 1,64,-1
 15 27 l 1,65,-1
 15 24 l 1,66,-1
 12 24 l 1,67,-1
 9 24 l 1,68,-1
 6 24 l 1,69,-1
 6 27 l 1,70,-1
 6 30 l 1,71,-1
 6 33 l 1,72,-1
 9 33 l 1,73,-1
 12 33 l 1,62,-1
24 33 m 1,74,-1
 27 33 l 1,75,-1
 30 33 l 1,76,-1
 30 30 l 1,77,-1
 30 27 l 1,78,-1
 30 24 l 1,79,-1
 27 24 l 1,80,-1
 24 24 l 1,81,-1
 21 24 l 1,82,-1
 21 27 l 1,83,-1
 21 30 l 1,84,-1
 21 33 l 1,85,-1
 24 33 l 1,74,-1
EndSplineSet
EndChar

StartChar: uni0425
Encoding: 1061 1061 32
Width: 42
GlyphClass: 1
Flags: W
LayerCount: 2
Fore
SplineSet
30 0 m 1,0,-1
 33 0 l 1,1,-1
 36 0 l 1,2,-1
 36 3 l 1,3,-1
 36 6 l 1,4,-1
 33 6 l 1,5,-1
 33 9 l 1,6,-1
 33 12 l 1,7,-1
 30 12 l 1,8,-1
 27 12 l 1,9,-1
 27 9 l 1,10,-1
 27 6 l 1,11,-1
 30 6 l 1,12,-1
 30 3 l 1,13,-1
 30 0 l 1,0,-1
0 0 m 1,14,-1
 3 0 l 1,15,-1
 6 0 l 1,16,-1
 6 3 l 1,17,-1
 6 6 l 1,18,-1
 9 6 l 1,19,-1
 9 9 l 1,20,-1
 9 12 l 1,21,-1
 6 12 l 1,22,-1
 3 12 l 1,23,-1
 3 9 l 1,24,-1
 3 6 l 1,25,-1
 0 6 l 1,26,-1
 0 3 l 1,27,-1
 0 0 l 1,14,-1
9 12 m 1,28,-1
 12 12 l 1,29,-1
 15 12 l 1,30,-1
 15 15 l 1,31,-1
 15 18 l 1,32,-1
 12 18 l 1,33,-1
 9 18 l 1,34,-1
 9 15 l 1,35,-1
 9 12 l 1,28,-1
15 18 m 1,36,-1
 18 18 l 1,37,-1
 21 18 l 1,38,-1
 21 21 l 1,39,-1
 21 24 l 1,40,-1
 18 24 l 1,41,-1
 15 24 l 1,42,-1
 15 21 l 1,43,-1
 15 18 l 1,36,-1
24 18 m 1,44,-1
 21 18 l 1,45,-1
 21 15 l 1,46,-1
 21 12 l 1,47,-1
 24 12 l 1,48,-1
 27 12 l 1,49,-1
 27 15 l 1,50,-1
 27 18 l 1,51,-1
 24 18 l 1,44,-1
30 39 m 1,52,-1
 30 36 l 1,53,-1
 27 36 l 1,54,-1
 27 33 l 1,55,-1
 27 30 l 1,56,-1
 30 30 l 1,57,-1
 33 30 l 1,58,-1
 33 33 l 1,59,-1
 33 36 l 1,60,-1
 36 36 l 1,61,-1
 36 39 l 1,62,-1
 36 42 l 1,63,-1
 33 42 l 1,64,-1
 30 42 l 1,65,-1
 30 39 l 1,52,-1
21 24 m 1,66,-1
 24 24 l 1,67,-1
 27 24 l 1,68,-1
 27 27 l 1,69,-1
 27 30 l 1,70,-1
 24 30 l 1,71,-1
 21 30 l 1,72,-1
 21 27 l 1,73,-1
 21 24 l 1,66,-1
6 36 m 1,74,-1
 6 39 l 1,75,-1
 6 42 l 1,76,-1
 3 42 l 1,77,-1
 0 42 l 1,78,-1
 0 39 l 1,79,-1
 0 36 l 1,80,-1
 3 36 l 1,81,-1
 3 33 l 1,82,-1
 3 30 l 1,83,-1
 6 30 l 1,84,-1
 9 30 l 1,85,-1
 9 33 l 1,86,-1
 9 36 l 1,87,-1
 6 36 l 1,74,-1
12 24 m 1,88,-1
 15 24 l 1,89,-1
 15 27 l 1,90,-1
 15 30 l 1,91,-1
 12 30 l 1,92,-1
 9 30 l 1,93,-1
 9 27 l 1,94,-1
 9 24 l 1,95,-1
 12 24 l 1,88,-1
EndSplineSet
EndChar

StartChar: uni0426
Encoding: 1062 1062 33
Width: 42
GlyphClass: 1
Flags: W
LayerCount: 2
Fore
SplineSet
33 42 m 1,0,-1
 30 42 l 1,1,-1
 27 42 l 1,2,-1
 24 42 l 1,3,-1
 21 42 l 1,4,-1
 21 39 l 1,5,-1
 21 36 l 1,6,-1
 24 36 l 1,7,-1
 24 33 l 1,8,-1
 24 30 l 1,9,-1
 24 27 l 1,10,-1
 24 24 l 1,11,-1
 24 21 l 1,12,-1
 24 18 l 1,13,-1
 24 15 l 1,14,-1
 24 12 l 1,15,-1
 24 9 l 1,16,-1
 24 6 l 1,17,-1
 21 6 l 1,18,-1
 18 6 l 1,19,-1
 15 6 l 1,20,-1
 12 6 l 1,21,-1
 12 9 l 1,22,-1
 12 12 l 1,23,-1
 12 15 l 1,24,-1
 12 18 l 1,25,-1
 12 21 l 1,26,-1
 12 24 l 1,27,-1
 12 27 l 1,28,-1
 12 30 l 1,29,-1
 12 33 l 1,30,-1
 12 36 l 1,31,-1
 15 36 l 1,32,-1
 15 39 l 1,33,-1
 15 42 l 1,34,-1
 12 42 l 1,35,-1
 9 42 l 1,36,-1
 6 42 l 1,37,-1
 3 42 l 1,38,-1
 0 42 l 1,39,-1
 0 39 l 1,40,-1
 0 36 l 1,41,-1
 3 36 l 1,42,-1
 6 36 l 1,43,-1
 6 33 l 1,44,-1
 6 30 l 1,45,-1
 6 27 l 1,46,-1
 6 24 l 1,47,-1
 6 21 l 1,48,-1
 6 18 l 1,49,-1
 6 15 l 1,50,-1
 6 12 l 1,51,-1
 6 9 l 1,52,-1
 6 6 l 1,53,-1
 6 3 l 1,54,-1
 6 0 l 1,55,-1
 9 0 l 1,56,-1
 12 0 l 1,57,-1
 15 0 l 1,58,-1
 18 0 l 1,59,-1
 21 0 l 1,60,-1
 24 0 l 1,61,-1
 27 0 l 1,62,-1
 30 0 l 1,63,-1
 30 -3 l 1,64,-1
 30 -6 l 1,65,-1
 33 -6 l 1,66,-1
 36 -6 l 1,67,-1
 36 -3 l 1,68,-1
 36 0 l 1,69,-1
 36 3 l 1,70,-1
 36 6 l 1,71,-1
 33 6 l 1,72,-1
 30 6 l 1,73,-1
 30 9 l 1,74,-1
 30 12 l 1,75,-1
 30 15 l 1,76,-1
 30 18 l 1,77,-1
 30 21 l 1,78,-1
 30 24 l 1,79,-1
 30 27 l 1,80,-1
 30 30 l 1,81,-1
 30 33 l 1,82,-1
 30 36 l 1,83,-1
 33 36 l 1,84,-1
 36 36 l 1,85,-1
 36 39 l 1,86,-1
 36 42 l 1,87,-1
 33 42 l 1,0,-1
EndSplineSet
EndChar

StartChar: uni0427
Encoding: 1063 1063 34
Width: 42
GlyphClass: 1
Flags: W
LayerCount: 2
Fore
SplineSet
30 42 m 1,0,-1
 27 42 l 1,1,-1
 24 42 l 1,2,-1
 21 42 l 1,3,-1
 21 39 l 1,4,-1
 21 36 l 1,5,-1
 24 36 l 1,6,-1
 24 33 l 1,7,-1
 24 30 l 1,8,-1
 24 27 l 1,9,-1
 24 24 l 1,10,-1
 21 24 l 1,11,-1
 18 24 l 1,12,-1
 15 24 l 1,13,-1
 12 24 l 1,14,-1
 12 27 l 1,15,-1
 12 30 l 1,16,-1
 12 33 l 1,17,-1
 12 36 l 1,18,-1
 15 36 l 1,19,-1
 15 39 l 1,20,-1
 15 42 l 1,21,-1
 12 42 l 1,22,-1
 9 42 l 1,23,-1
 6 42 l 1,24,-1
 3 42 l 1,25,-1
 0 42 l 1,26,-1
 0 39 l 1,27,-1
 0 36 l 1,28,-1
 3 36 l 1,29,-1
 6 36 l 1,30,-1
 6 33 l 1,31,-1
 6 30 l 1,32,-1
 6 27 l 1,33,-1
 6 24 l 1,34,-1
 6 21 l 1,35,-1
 6 18 l 1,36,-1
 9 18 l 1,37,-1
 12 18 l 1,38,-1
 15 18 l 1,39,-1
 18 18 l 1,40,-1
 21 18 l 1,41,-1
 24 18 l 1,42,-1
 24 15 l 1,43,-1
 24 12 l 1,44,-1
 24 9 l 1,45,-1
 24 6 l 1,46,-1
 21 6 l 1,47,-1
 18 6 l 1,48,-1
 18 3 l 1,49,-1
 18 0 l 1,50,-1
 21 0 l 1,51,-1
 24 0 l 1,52,-1
 27 0 l 1,53,-1
 30 0 l 1,54,-1
 33 0 l 1,55,-1
 36 0 l 1,56,-1
 36 3 l 1,57,-1
 36 6 l 1,58,-1
 33 6 l 1,59,-1
 30 6 l 1,60,-1
 30 9 l 1,61,-1
 30 12 l 1,62,-1
 30 15 l 1,63,-1
 30 18 l 1,64,-1
 30 21 l 1,65,-1
 30 24 l 1,66,-1
 30 27 l 1,67,-1
 30 30 l 1,68,-1
 30 33 l 1,69,-1
 30 36 l 1,70,-1
 33 36 l 1,71,-1
 36 36 l 1,72,-1
 36 39 l 1,73,-1
 36 42 l 1,74,-1
 33 42 l 1,75,-1
 30 42 l 1,0,-1
EndSplineSet
EndChar

StartChar: uni0428
Encoding: 1064 1064 35
Width: 42
GlyphClass: 1
Flags: W
LayerCount: 2
Fore
SplineSet
33 42 m 1,0,-1
 30 42 l 1,1,-1
 27 42 l 1,2,-1
 27 39 l 1,3,-1
 27 36 l 1,4,-1
 27 33 l 1,5,-1
 27 30 l 1,6,-1
 27 27 l 1,7,-1
 27 24 l 1,8,-1
 27 21 l 1,9,-1
 27 18 l 1,10,-1
 27 15 l 1,11,-1
 27 12 l 1,12,-1
 27 9 l 1,13,-1
 27 6 l 1,14,-1
 24 6 l 1,15,-1
 21 6 l 1,16,-1
 21 9 l 1,17,-1
 21 12 l 1,18,-1
 21 15 l 1,19,-1
 21 18 l 1,20,-1
 21 21 l 1,21,-1
 21 24 l 1,22,-1
 21 27 l 1,23,-1
 21 30 l 1,24,-1
 21 33 l 1,25,-1
 21 36 l 1,26,-1
 24 36 l 1,27,-1
 24 39 l 1,28,-1
 24 42 l 1,29,-1
 21 42 l 1,30,-1
 18 42 l 1,31,-1
 15 42 l 1,32,-1
 12 42 l 1,33,-1
 12 39 l 1,34,-1
 12 36 l 1,35,-1
 15 36 l 1,36,-1
 15 33 l 1,37,-1
 15 30 l 1,38,-1
 15 27 l 1,39,-1
 15 24 l 1,40,-1
 15 21 l 1,41,-1
 15 18 l 1,42,-1
 15 15 l 1,43,-1
 15 12 l 1,44,-1
 15 9 l 1,45,-1
 15 6 l 1,46,-1
 12 6 l 1,47,-1
 9 6 l 1,48,-1
 9 9 l 1,49,-1
 9 12 l 1,50,-1
 9 15 l 1,51,-1
 9 18 l 1,52,-1
 9 21 l 1,53,-1
 9 24 l 1,54,-1
 9 27 l 1,55,-1
 9 30 l 1,56,-1
 9 33 l 1,57,-1
 9 36 l 1,58,-1
 9 39 l 1,59,-1
 9 42 l 1,60,-1
 6 42 l 1,61,-1
 3 42 l 1,62,-1
 0 42 l 1,63,-1
 0 39 l 1,64,-1
 0 36 l 1,65,-1
 3 36 l 1,66,-1
 3 33 l 1,67,-1
 3 30 l 1,68,-1
 3 27 l 1,69,-1
 3 24 l 1,70,-1
 3 21 l 1,71,-1
 3 18 l 1,72,-1
 3 15 l 1,73,-1
 3 12 l 1,74,-1
 3 9 l 1,75,-1
 3 6 l 1,76,-1
 3 3 l 1,77,-1
 3 0 l 1,78,-1
 6 0 l 1,79,-1
 9 0 l 1,80,-1
 12 0 l 1,81,-1
 15 0 l 1,82,-1
 18 0 l 1,83,-1
 21 0 l 1,84,-1
 24 0 l 1,85,-1
 27 0 l 1,86,-1
 30 0 l 1,87,-1
 33 0 l 1,88,-1
 33 3 l 1,89,-1
 33 6 l 1,90,-1
 33 9 l 1,91,-1
 33 12 l 1,92,-1
 33 15 l 1,93,-1
 33 18 l 1,94,-1
 33 21 l 1,95,-1
 33 24 l 1,96,-1
 33 27 l 1,97,-1
 33 30 l 1,98,-1
 33 33 l 1,99,-1
 33 36 l 1,100,-1
 36 36 l 1,101,-1
 36 39 l 1,102,-1
 36 42 l 1,103,-1
 33 42 l 1,0,-1
EndSplineSet
EndChar

StartChar: uni0429
Encoding: 1065 1065 36
Width: 42
GlyphClass: 1
Flags: W
LayerCount: 2
Fore
SplineSet
33 -6 m 1,0,-1
 36 -6 l 1,1,-1
 36 -3 l 1,2,-1
 36 0 l 1,3,-1
 36 3 l 1,4,-1
 36 6 l 1,5,-1
 33 6 l 1,6,-1
 33 9 l 1,7,-1
 33 12 l 1,8,-1
 33 15 l 1,9,-1
 33 18 l 1,10,-1
 33 21 l 1,11,-1
 33 24 l 1,12,-1
 33 27 l 1,13,-1
 33 30 l 1,14,-1
 33 33 l 1,15,-1
 33 36 l 1,16,-1
 36 36 l 1,17,-1
 36 39 l 1,18,-1
 36 42 l 1,19,-1
 33 42 l 1,20,-1
 30 42 l 1,21,-1
 27 42 l 1,22,-1
 27 39 l 1,23,-1
 27 36 l 1,24,-1
 27 33 l 1,25,-1
 27 30 l 1,26,-1
 27 27 l 1,27,-1
 27 24 l 1,28,-1
 27 21 l 1,29,-1
 27 18 l 1,30,-1
 27 15 l 1,31,-1
 27 12 l 1,32,-1
 27 9 l 1,33,-1
 27 6 l 1,34,-1
 24 6 l 1,35,-1
 21 6 l 1,36,-1
 21 9 l 1,37,-1
 21 12 l 1,38,-1
 21 15 l 1,39,-1
 21 18 l 1,40,-1
 21 21 l 1,41,-1
 21 24 l 1,42,-1
 21 27 l 1,43,-1
 21 30 l 1,44,-1
 21 33 l 1,45,-1
 21 36 l 1,46,-1
 24 36 l 1,47,-1
 24 39 l 1,48,-1
 24 42 l 1,49,-1
 21 42 l 1,50,-1
 18 42 l 1,51,-1
 15 42 l 1,52,-1
 12 42 l 1,53,-1
 12 39 l 1,54,-1
 12 36 l 1,55,-1
 15 36 l 1,56,-1
 15 33 l 1,57,-1
 15 30 l 1,58,-1
 15 27 l 1,59,-1
 15 24 l 1,60,-1
 15 21 l 1,61,-1
 15 18 l 1,62,-1
 15 15 l 1,63,-1
 15 12 l 1,64,-1
 15 9 l 1,65,-1
 15 6 l 1,66,-1
 12 6 l 1,67,-1
 9 6 l 1,68,-1
 9 9 l 1,69,-1
 9 12 l 1,70,-1
 9 15 l 1,71,-1
 9 18 l 1,72,-1
 9 21 l 1,73,-1
 9 24 l 1,74,-1
 9 27 l 1,75,-1
 9 30 l 1,76,-1
 9 33 l 1,77,-1
 9 36 l 1,78,-1
 9 39 l 1,79,-1
 9 42 l 1,80,-1
 6 42 l 1,81,-1
 3 42 l 1,82,-1
 0 42 l 1,83,-1
 0 39 l 1,84,-1
 0 36 l 1,85,-1
 3 36 l 1,86,-1
 3 33 l 1,87,-1
 3 30 l 1,88,-1
 3 27 l 1,89,-1
 3 24 l 1,90,-1
 3 21 l 1,91,-1
 3 18 l 1,92,-1
 3 15 l 1,93,-1
 3 12 l 1,94,-1
 3 9 l 1,95,-1
 3 6 l 1,96,-1
 3 3 l 1,97,-1
 3 0 l 1,98,-1
 6 0 l 1,99,-1
 9 0 l 1,100,-1
 12 0 l 1,101,-1
 15 0 l 1,102,-1
 18 0 l 1,103,-1
 21 0 l 1,104,-1
 24 0 l 1,105,-1
 27 0 l 1,106,-1
 30 0 l 1,107,-1
 30 -3 l 1,108,-1
 30 -6 l 1,109,-1
 33 -6 l 1,0,-1
EndSplineSet
EndChar

StartChar: uni042A
Encoding: 1066 1066 37
Width: 42
GlyphClass: 1
Flags: W
LayerCount: 2
Fore
SplineSet
12 6 m 1,0,-1
 12 3 l 1,1,-1
 12 0 l 1,2,-1
 15 0 l 1,3,-1
 18 0 l 1,4,-1
 21 0 l 1,5,-1
 24 0 l 1,6,-1
 27 0 l 1,7,-1
 30 0 l 1,8,-1
 30 3 l 1,9,-1
 30 6 l 1,10,-1
 27 6 l 1,11,-1
 24 6 l 1,12,-1
 21 6 l 1,13,-1
 18 6 l 1,14,-1
 18 9 l 1,15,-1
 18 12 l 1,16,-1
 18 15 l 1,17,-1
 18 18 l 1,18,-1
 21 18 l 1,19,-1
 24 18 l 1,20,-1
 27 18 l 1,21,-1
 30 18 l 1,22,-1
 30 21 l 1,23,-1
 30 24 l 1,24,-1
 27 24 l 1,25,-1
 24 24 l 1,26,-1
 21 24 l 1,27,-1
 18 24 l 1,28,-1
 18 27 l 1,29,-1
 18 30 l 1,30,-1
 18 33 l 1,31,-1
 18 36 l 1,32,-1
 18 39 l 1,33,-1
 18 42 l 1,34,-1
 15 42 l 1,35,-1
 12 42 l 1,36,-1
 9 42 l 1,37,-1
 6 42 l 1,38,-1
 3 42 l 1,39,-1
 0 42 l 1,40,-1
 0 39 l 1,41,-1
 0 36 l 1,42,-1
 0 33 l 1,43,-1
 0 30 l 1,44,-1
 3 30 l 1,45,-1
 6 30 l 1,46,-1
 6 33 l 1,47,-1
 6 36 l 1,48,-1
 9 36 l 1,49,-1
 12 36 l 1,50,-1
 12 33 l 1,51,-1
 12 30 l 1,52,-1
 12 27 l 1,53,-1
 12 24 l 1,54,-1
 12 21 l 1,55,-1
 12 18 l 1,56,-1
 12 15 l 1,57,-1
 12 12 l 1,58,-1
 12 9 l 1,59,-1
 12 6 l 1,0,-1
30 6 m 1,60,-1
 33 6 l 1,61,-1
 36 6 l 1,62,-1
 36 9 l 1,63,-1
 36 12 l 1,64,-1
 36 15 l 1,65,-1
 36 18 l 1,66,-1
 33 18 l 1,67,-1
 30 18 l 1,68,-1
 30 15 l 1,69,-1
 30 12 l 1,70,-1
 30 9 l 1,71,-1
 30 6 l 1,60,-1
EndSplineSet
EndChar

StartChar: uni042B
Encoding: 1067 1067 38
Width: 42
GlyphClass: 1
Flags: W
LayerCount: 2
Fore
SplineSet
27 33 m 1,0,-1
 27 30 l 1,1,-1
 27 27 l 1,2,-1
 27 24 l 1,3,-1
 27 21 l 1,4,-1
 27 18 l 1,5,-1
 27 15 l 1,6,-1
 27 12 l 1,7,-1
 27 9 l 1,8,-1
 27 6 l 1,9,-1
 24 6 l 1,10,-1
 24 3 l 1,11,-1
 24 0 l 1,12,-1
 27 0 l 1,13,-1
 30 0 l 1,14,-1
 33 0 l 1,15,-1
 36 0 l 1,16,-1
 36 3 l 1,17,-1
 36 6 l 1,18,-1
 33 6 l 1,19,-1
 33 9 l 1,20,-1
 33 12 l 1,21,-1
 33 15 l 1,22,-1
 33 18 l 1,23,-1
 33 21 l 1,24,-1
 33 24 l 1,25,-1
 33 27 l 1,26,-1
 33 30 l 1,27,-1
 33 33 l 1,28,-1
 33 36 l 1,29,-1
 36 36 l 1,30,-1
 36 39 l 1,31,-1
 36 42 l 1,32,-1
 33 42 l 1,33,-1
 30 42 l 1,34,-1
 27 42 l 1,35,-1
 24 42 l 1,36,-1
 24 39 l 1,37,-1
 24 36 l 1,38,-1
 27 36 l 1,39,-1
 27 33 l 1,0,-1
6 36 m 1,40,-1
 6 39 l 1,41,-1
 6 42 l 1,42,-1
 3 42 l 1,43,-1
 0 42 l 1,44,-1
 0 39 l 1,45,-1
 0 36 l 1,46,-1
 0 33 l 1,47,-1
 0 30 l 1,48,-1
 0 27 l 1,49,-1
 0 24 l 1,50,-1
 0 21 l 1,51,-1
 0 18 l 1,52,-1
 0 15 l 1,53,-1
 0 12 l 1,54,-1
 0 9 l 1,55,-1
 0 6 l 1,56,-1
 0 3 l 1,57,-1
 0 0 l 1,58,-1
 3 0 l 1,59,-1
 6 0 l 1,60,-1
 9 0 l 1,61,-1
 12 0 l 1,62,-1
 15 0 l 1,63,-1
 18 0 l 1,64,-1
 18 3 l 1,65,-1
 18 6 l 1,66,-1
 15 6 l 1,67,-1
 12 6 l 1,68,-1
 9 6 l 1,69,-1
 6 6 l 1,70,-1
 6 9 l 1,71,-1
 6 12 l 1,72,-1
 6 15 l 1,73,-1
 6 18 l 1,74,-1
 9 18 l 1,75,-1
 12 18 l 1,76,-1
 15 18 l 1,77,-1
 18 18 l 1,78,-1
 18 21 l 1,79,-1
 18 24 l 1,80,-1
 15 24 l 1,81,-1
 12 24 l 1,82,-1
 9 24 l 1,83,-1
 6 24 l 1,84,-1
 6 27 l 1,85,-1
 6 30 l 1,86,-1
 6 33 l 1,87,-1
 6 36 l 1,40,-1
24 12 m 1,88,-1
 24 15 l 1,89,-1
 24 18 l 1,90,-1
 21 18 l 1,91,-1
 18 18 l 1,92,-1
 18 15 l 1,93,-1
 18 12 l 1,94,-1
 18 9 l 1,95,-1
 18 6 l 1,96,-1
 21 6 l 1,97,-1
 24 6 l 1,98,-1
 24 9 l 1,99,-1
 24 12 l 1,88,-1
EndSplineSet
EndChar

StartChar: uni042C
Encoding: 1068 1068 39
Width: 30
GlyphClass: 1
Flags: W
LayerCount: 2
Fore
SplineSet
3 42 m 1,0,-1
 0 42 l 1,1,-1
 0 39 l 1,2,-1
 0 36 l 1,3,-1
 0 33 l 1,4,-1
 0 30 l 1,5,-1
 0 27 l 1,6,-1
 0 24 l 1,7,-1
 0 21 l 1,8,-1
 0 18 l 1,9,-1
 0 15 l 1,10,-1
 0 12 l 1,11,-1
 0 9 l 1,12,-1
 0 6 l 1,13,-1
 0 3 l 1,14,-1
 0 0 l 1,15,-1
 3 0 l 1,16,-1
 6 0 l 1,17,-1
 9 0 l 1,18,-1
 12 0 l 1,19,-1
 15 0 l 1,20,-1
 18 0 l 1,21,-1
 18 3 l 1,22,-1
 18 6 l 1,23,-1
 15 6 l 1,24,-1
 12 6 l 1,25,-1
 9 6 l 1,26,-1
 6 6 l 1,27,-1
 6 9 l 1,28,-1
 6 12 l 1,29,-1
 6 15 l 1,30,-1
 6 18 l 1,31,-1
 9 18 l 1,32,-1
 12 18 l 1,33,-1
 15 18 l 1,34,-1
 18 18 l 1,35,-1
 18 21 l 1,36,-1
 18 24 l 1,37,-1
 15 24 l 1,38,-1
 12 24 l 1,39,-1
 9 24 l 1,40,-1
 6 24 l 1,41,-1
 6 27 l 1,42,-1
 6 30 l 1,43,-1
 6 33 l 1,44,-1
 6 36 l 1,45,-1
 6 39 l 1,46,-1
 6 42 l 1,47,-1
 3 42 l 1,0,-1
18 6 m 1,48,-1
 21 6 l 1,49,-1
 24 6 l 1,50,-1
 24 9 l 1,51,-1
 24 12 l 1,52,-1
 24 15 l 1,53,-1
 24 18 l 1,54,-1
 21 18 l 1,55,-1
 18 18 l 1,56,-1
 18 15 l 1,57,-1
 18 12 l 1,58,-1
 18 9 l 1,59,-1
 18 6 l 1,48,-1
EndSplineSet
EndChar

StartChar: uni042D
Encoding: 1069 1069 40
Width: 42
GlyphClass: 1
Flags: W
LayerCount: 2
Fore
SplineSet
21 36 m 1,0,-1
 24 36 l 1,1,-1
 27 36 l 1,2,-1
 30 36 l 1,3,-1
 30 39 l 1,4,-1
 30 42 l 1,5,-1
 27 42 l 1,6,-1
 24 42 l 1,7,-1
 21 42 l 1,8,-1
 18 42 l 1,9,-1
 15 42 l 1,10,-1
 12 42 l 1,11,-1
 9 42 l 1,12,-1
 6 42 l 1,13,-1
 6 39 l 1,14,-1
 6 36 l 1,15,-1
 9 36 l 1,16,-1
 12 36 l 1,17,-1
 15 36 l 1,18,-1
 18 36 l 1,19,-1
 21 36 l 1,0,-1
6 24 m 1,20,-1
 3 24 l 1,21,-1
 0 24 l 1,22,-1
 0 21 l 1,23,-1
 0 18 l 1,24,-1
 3 18 l 1,25,-1
 6 18 l 1,26,-1
 9 18 l 1,27,-1
 12 18 l 1,28,-1
 15 18 l 1,29,-1
 18 18 l 1,30,-1
 21 18 l 1,31,-1
 24 18 l 1,32,-1
 27 18 l 1,33,-1
 30 18 l 1,34,-1
 30 15 l 1,35,-1
 30 12 l 1,36,-1
 30 9 l 1,37,-1
 30 6 l 1,38,-1
 33 6 l 1,39,-1
 36 6 l 1,40,-1
 36 9 l 1,41,-1
 36 12 l 1,42,-1
 36 15 l 1,43,-1
 36 18 l 1,44,-1
 36 21 l 1,45,-1
 36 24 l 1,46,-1
 36 27 l 1,47,-1
 36 30 l 1,48,-1
 36 33 l 1,49,-1
 36 36 l 1,50,-1
 33 36 l 1,51,-1
 30 36 l 1,52,-1
 30 33 l 1,53,-1
 30 30 l 1,54,-1
 30 27 l 1,55,-1
 30 24 l 1,56,-1
 27 24 l 1,57,-1
 24 24 l 1,58,-1
 21 24 l 1,59,-1
 18 24 l 1,60,-1
 15 24 l 1,61,-1
 12 24 l 1,62,-1
 9 24 l 1,63,-1
 6 24 l 1,20,-1
6 33 m 1,64,-1
 6 36 l 1,65,-1
 3 36 l 1,66,-1
 0 36 l 1,67,-1
 0 33 l 1,68,-1
 0 30 l 1,69,-1
 3 30 l 1,70,-1
 6 30 l 1,71,-1
 6 33 l 1,64,-1
30 3 m 1,72,-1
 30 6 l 1,73,-1
 27 6 l 1,74,-1
 24 6 l 1,75,-1
 21 6 l 1,76,-1
 18 6 l 1,77,-1
 15 6 l 1,78,-1
 12 6 l 1,79,-1
 9 6 l 1,80,-1
 6 6 l 1,81,-1
 6 3 l 1,82,-1
 6 0 l 1,83,-1
 9 0 l 1,84,-1
 12 0 l 1,85,-1
 15 0 l 1,86,-1
 18 0 l 1,87,-1
 21 0 l 1,88,-1
 24 0 l 1,89,-1
 27 0 l 1,90,-1
 30 0 l 1,91,-1
 30 3 l 1,72,-1
3 6 m 1,92,-1
 6 6 l 1,93,-1
 6 9 l 1,94,-1
 6 12 l 1,95,-1
 3 12 l 1,96,-1
 0 12 l 1,97,-1
 0 9 l 1,98,-1
 0 6 l 1,99,-1
 3 6 l 1,92,-1
EndSplineSet
EndChar

StartChar: uni042E
Encoding: 1070 1070 41
Width: 42
GlyphClass: 1
Flags: W
LayerCount: 2
Fore
SplineSet
21 6 m 1,0,-1
 18 6 l 1,1,-1
 18 3 l 1,2,-1
 18 0 l 1,3,-1
 21 0 l 1,4,-1
 24 0 l 1,5,-1
 27 0 l 1,6,-1
 30 0 l 1,7,-1
 30 3 l 1,8,-1
 30 6 l 1,9,-1
 27 6 l 1,10,-1
 24 6 l 1,11,-1
 21 6 l 1,0,-1
36 21 m 1,12,-1
 36 24 l 1,13,-1
 36 27 l 1,14,-1
 36 30 l 1,15,-1
 36 33 l 1,16,-1
 36 36 l 1,17,-1
 33 36 l 1,18,-1
 30 36 l 1,19,-1
 30 33 l 1,20,-1
 30 30 l 1,21,-1
 30 27 l 1,22,-1
 30 24 l 1,23,-1
 30 21 l 1,24,-1
 30 18 l 1,25,-1
 30 15 l 1,26,-1
 30 12 l 1,27,-1
 30 9 l 1,28,-1
 30 6 l 1,29,-1
 33 6 l 1,30,-1
 36 6 l 1,31,-1
 36 9 l 1,32,-1
 36 12 l 1,33,-1
 36 15 l 1,34,-1
 36 18 l 1,35,-1
 36 21 l 1,12,-1
27 36 m 1,36,-1
 30 36 l 1,37,-1
 30 39 l 1,38,-1
 30 42 l 1,39,-1
 27 42 l 1,40,-1
 24 42 l 1,41,-1
 21 42 l 1,42,-1
 18 42 l 1,43,-1
 18 39 l 1,44,-1
 18 36 l 1,45,-1
 21 36 l 1,46,-1
 24 36 l 1,47,-1
 27 36 l 1,36,-1
18 30 m 1,48,-1
 18 33 l 1,49,-1
 18 36 l 1,50,-1
 15 36 l 1,51,-1
 12 36 l 1,52,-1
 12 33 l 1,53,-1
 12 30 l 1,54,-1
 12 27 l 1,55,-1
 12 24 l 1,56,-1
 15 24 l 1,57,-1
 18 24 l 1,58,-1
 18 27 l 1,59,-1
 18 30 l 1,48,-1
18 9 m 1,60,-1
 18 12 l 1,61,-1
 18 15 l 1,62,-1
 18 18 l 1,63,-1
 15 18 l 1,64,-1
 12 18 l 1,65,-1
 12 15 l 1,66,-1
 12 12 l 1,67,-1
 12 9 l 1,68,-1
 12 6 l 1,69,-1
 15 6 l 1,70,-1
 18 6 l 1,71,-1
 18 9 l 1,60,-1
6 39 m 1,72,-1
 6 42 l 1,73,-1
 3 42 l 1,74,-1
 0 42 l 1,75,-1
 0 39 l 1,76,-1
 0 36 l 1,77,-1
 0 33 l 1,78,-1
 0 30 l 1,79,-1
 0 27 l 1,80,-1
 0 24 l 1,81,-1
 0 21 l 1,82,-1
 0 18 l 1,83,-1
 0 15 l 1,84,-1
 0 12 l 1,85,-1
 0 9 l 1,86,-1
 0 6 l 1,87,-1
 0 3 l 1,88,-1
 0 0 l 1,89,-1
 3 0 l 1,90,-1
 6 0 l 1,91,-1
 6 3 l 1,92,-1
 6 6 l 1,93,-1
 6 9 l 1,94,-1
 6 12 l 1,95,-1
 6 15 l 1,96,-1
 6 18 l 1,97,-1
 9 18 l 1,98,-1
 12 18 l 1,99,-1
 12 21 l 1,100,-1
 12 24 l 1,101,-1
 9 24 l 1,102,-1
 6 24 l 1,103,-1
 6 27 l 1,104,-1
 6 30 l 1,105,-1
 6 33 l 1,106,-1
 6 36 l 1,107,-1
 6 39 l 1,72,-1
EndSplineSet
EndChar

StartChar: uni042F
Encoding: 1071 1071 42
Width: 42
GlyphClass: 1
Flags: W
LayerCount: 2
Fore
SplineSet
9 24 m 1,0,-1
 12 24 l 1,1,-1
 12 27 l 1,2,-1
 12 30 l 1,3,-1
 12 33 l 1,4,-1
 12 36 l 1,5,-1
 9 36 l 1,6,-1
 6 36 l 1,7,-1
 6 33 l 1,8,-1
 6 30 l 1,9,-1
 6 27 l 1,10,-1
 6 24 l 1,11,-1
 9 24 l 1,0,-1
15 42 m 1,12,-1
 12 42 l 1,13,-1
 12 39 l 1,14,-1
 12 36 l 1,15,-1
 15 36 l 1,16,-1
 18 36 l 1,17,-1
 21 36 l 1,18,-1
 24 36 l 1,19,-1
 27 36 l 1,20,-1
 30 36 l 1,21,-1
 30 33 l 1,22,-1
 30 30 l 1,23,-1
 30 27 l 1,24,-1
 30 24 l 1,25,-1
 27 24 l 1,26,-1
 24 24 l 1,27,-1
 21 24 l 1,28,-1
 18 24 l 1,29,-1
 15 24 l 1,30,-1
 12 24 l 1,31,-1
 12 21 l 1,32,-1
 12 18 l 1,33,-1
 15 18 l 1,34,-1
 18 18 l 1,35,-1
 21 18 l 1,36,-1
 24 18 l 1,37,-1
 27 18 l 1,38,-1
 30 18 l 1,39,-1
 30 15 l 1,40,-1
 30 12 l 1,41,-1
 30 9 l 1,42,-1
 30 6 l 1,43,-1
 30 3 l 1,44,-1
 30 0 l 1,45,-1
 33 0 l 1,46,-1
 36 0 l 1,47,-1
 36 3 l 1,48,-1
 36 6 l 1,49,-1
 36 9 l 1,50,-1
 36 12 l 1,51,-1
 36 15 l 1,52,-1
 36 18 l 1,53,-1
 36 21 l 1,54,-1
 36 24 l 1,55,-1
 36 27 l 1,56,-1
 36 30 l 1,57,-1
 36 33 l 1,58,-1
 36 36 l 1,59,-1
 36 39 l 1,60,-1
 36 42 l 1,61,-1
 33 42 l 1,62,-1
 30 42 l 1,63,-1
 27 42 l 1,64,-1
 24 42 l 1,65,-1
 21 42 l 1,66,-1
 18 42 l 1,67,-1
 15 42 l 1,12,-1
9 12 m 1,68,-1
 12 12 l 1,69,-1
 12 15 l 1,70,-1
 12 18 l 1,71,-1
 9 18 l 1,72,-1
 6 18 l 1,73,-1
 6 15 l 1,74,-1
 6 12 l 1,75,-1
 9 12 l 1,68,-1
6 6 m 1,76,-1
 6 9 l 1,77,-1
 6 12 l 1,78,-1
 3 12 l 1,79,-1
 0 12 l 1,80,-1
 0 9 l 1,81,-1
 0 6 l 1,82,-1
 0 3 l 1,83,-1
 0 0 l 1,84,-1
 3 0 l 1,85,-1
 6 0 l 1,86,-1
 6 3 l 1,87,-1
 6 6 l 1,76,-1
EndSplineSet
EndChar

StartChar: uni0430
Encoding: 1072 1072 43
Width: 42
GlyphClass: 1
Flags: W
LayerCount: 2
Fore
SplineSet
0 12 m 1,0,-1
 0 9 l 1,1,-1
 0 6 l 1,2,-1
 3 6 l 1,3,-1
 6 6 l 1,4,-1
 6 9 l 1,5,-1
 6 12 l 1,6,-1
 6 15 l 1,7,-1
 6 18 l 1,8,-1
 3 18 l 1,9,-1
 0 18 l 1,10,-1
 0 15 l 1,11,-1
 0 12 l 1,0,-1
24 9 m 1,12,-1
 24 12 l 1,13,-1
 24 15 l 1,14,-1
 24 18 l 1,15,-1
 24 21 l 1,16,-1
 24 24 l 1,17,-1
 24 27 l 1,18,-1
 24 30 l 1,19,-1
 24 33 l 1,20,-1
 24 36 l 1,21,-1
 21 36 l 1,22,-1
 18 36 l 1,23,-1
 18 33 l 1,24,-1
 18 30 l 1,25,-1
 15 30 l 1,26,-1
 12 30 l 1,27,-1
 12 27 l 1,28,-1
 12 24 l 1,29,-1
 15 24 l 1,30,-1
 18 24 l 1,31,-1
 18 21 l 1,32,-1
 18 18 l 1,33,-1
 18 15 l 1,34,-1
 18 12 l 1,35,-1
 18 9 l 1,36,-1
 18 6 l 1,37,-1
 21 6 l 1,38,-1
 24 6 l 1,39,-1
 24 9 l 1,12,-1
12 6 m 1,40,-1
 9 6 l 1,41,-1
 6 6 l 1,42,-1
 6 3 l 1,43,-1
 6 0 l 1,44,-1
 9 0 l 1,45,-1
 12 0 l 1,46,-1
 15 0 l 1,47,-1
 18 0 l 1,48,-1
 18 3 l 1,49,-1
 18 6 l 1,50,-1
 15 6 l 1,51,-1
 12 6 l 1,40,-1
24 0 m 1,52,-1
 27 0 l 1,53,-1
 30 0 l 1,54,-1
 30 3 l 1,55,-1
 30 6 l 1,56,-1
 27 6 l 1,57,-1
 24 6 l 1,58,-1
 24 3 l 1,59,-1
 24 0 l 1,52,-1
6 18 m 1,60,-1
 9 18 l 1,61,-1
 12 18 l 1,62,-1
 12 21 l 1,63,-1
 12 24 l 1,64,-1
 9 24 l 1,65,-1
 6 24 l 1,66,-1
 6 21 l 1,67,-1
 6 18 l 1,60,-1
30 15 m 1,68,-1
 30 12 l 1,69,-1
 30 9 l 1,70,-1
 30 6 l 1,71,-1
 33 6 l 1,72,-1
 36 6 l 1,73,-1
 36 9 l 1,74,-1
 36 12 l 1,75,-1
 36 15 l 1,76,-1
 36 18 l 1,77,-1
 33 18 l 1,78,-1
 30 18 l 1,79,-1
 30 15 l 1,68,-1
EndSplineSet
EndChar

StartChar: uni0431
Encoding: 1073 1073 44
Width: 30
GlyphClass: 1
Flags: W
LayerCount: 2
Fore
SplineSet
18 42 m 1,0,-1
 15 42 l 1,1,-1
 12 42 l 1,2,-1
 12 39 l 1,3,-1
 12 36 l 1,4,-1
 15 36 l 1,5,-1
 18 36 l 1,6,-1
 21 36 l 1,7,-1
 24 36 l 1,8,-1
 24 39 l 1,9,-1
 24 42 l 1,10,-1
 21 42 l 1,11,-1
 18 42 l 1,0,-1
12 6 m 1,12,-1
 9 6 l 1,13,-1
 6 6 l 1,14,-1
 6 3 l 1,15,-1
 6 0 l 1,16,-1
 9 0 l 1,17,-1
 12 0 l 1,18,-1
 15 0 l 1,19,-1
 18 0 l 1,20,-1
 18 3 l 1,21,-1
 18 6 l 1,22,-1
 15 6 l 1,23,-1
 12 6 l 1,12,-1
12 24 m 1,24,-1
 9 24 l 1,25,-1
 6 24 l 1,26,-1
 6 21 l 1,27,-1
 6 18 l 1,28,-1
 9 18 l 1,29,-1
 12 18 l 1,30,-1
 15 18 l 1,31,-1
 18 18 l 1,32,-1
 18 21 l 1,33,-1
 18 24 l 1,34,-1
 18 27 l 1,35,-1
 18 30 l 1,36,-1
 15 30 l 1,37,-1
 12 30 l 1,38,-1
 12 27 l 1,39,-1
 12 24 l 1,24,-1
0 6 m 1,40,-1
 3 6 l 1,41,-1
 6 6 l 1,42,-1
 6 9 l 1,43,-1
 6 12 l 1,44,-1
 6 15 l 1,45,-1
 6 18 l 1,46,-1
 3 18 l 1,47,-1
 0 18 l 1,48,-1
 0 15 l 1,49,-1
 0 12 l 1,50,-1
 0 9 l 1,51,-1
 0 6 l 1,40,-1
18 15 m 1,52,-1
 18 12 l 1,53,-1
 18 9 l 1,54,-1
 18 6 l 1,55,-1
 21 6 l 1,56,-1
 24 6 l 1,57,-1
 24 9 l 1,58,-1
 24 12 l 1,59,-1
 24 15 l 1,60,-1
 24 18 l 1,61,-1
 21 18 l 1,62,-1
 18 18 l 1,63,-1
 18 15 l 1,52,-1
6 30 m 1,64,-1
 9 30 l 1,65,-1
 12 30 l 1,66,-1
 12 33 l 1,67,-1
 12 36 l 1,68,-1
 9 36 l 1,69,-1
 6 36 l 1,70,-1
 6 33 l 1,71,-1
 6 30 l 1,64,-1
EndSplineSet
EndChar

StartChar: uni0432
Encoding: 1074 1074 45
Width: 30
GlyphClass: 1
Flags: W
LayerCount: 2
Fore
SplineSet
9 18 m 1,0,-1
 12 18 l 1,1,-1
 12 21 l 1,2,-1
 12 24 l 1,3,-1
 9 24 l 1,4,-1
 6 24 l 1,5,-1
 6 27 l 1,6,-1
 6 30 l 1,7,-1
 6 33 l 1,8,-1
 6 36 l 1,9,-1
 6 39 l 1,10,-1
 6 42 l 1,11,-1
 3 42 l 1,12,-1
 0 42 l 1,13,-1
 0 39 l 1,14,-1
 0 36 l 1,15,-1
 0 33 l 1,16,-1
 0 30 l 1,17,-1
 0 27 l 1,18,-1
 0 24 l 1,19,-1
 0 21 l 1,20,-1
 0 18 l 1,21,-1
 0 15 l 1,22,-1
 0 12 l 1,23,-1
 0 9 l 1,24,-1
 0 6 l 1,25,-1
 3 6 l 1,26,-1
 6 6 l 1,27,-1
 6 9 l 1,28,-1
 6 12 l 1,29,-1
 6 15 l 1,30,-1
 6 18 l 1,31,-1
 9 18 l 1,0,-1
18 3 m 1,32,-1
 18 6 l 1,33,-1
 15 6 l 1,34,-1
 12 6 l 1,35,-1
 9 6 l 1,36,-1
 6 6 l 1,37,-1
 6 3 l 1,38,-1
 6 0 l 1,39,-1
 9 0 l 1,40,-1
 12 0 l 1,41,-1
 15 0 l 1,42,-1
 18 0 l 1,43,-1
 18 3 l 1,32,-1
18 33 m 1,44,-1
 18 36 l 1,45,-1
 18 39 l 1,46,-1
 18 42 l 1,47,-1
 15 42 l 1,48,-1
 12 42 l 1,49,-1
 12 39 l 1,50,-1
 12 36 l 1,51,-1
 12 33 l 1,52,-1
 12 30 l 1,53,-1
 12 27 l 1,54,-1
 12 24 l 1,55,-1
 15 24 l 1,56,-1
 18 24 l 1,57,-1
 18 27 l 1,58,-1
 18 30 l 1,59,-1
 18 33 l 1,44,-1
18 6 m 1,60,-1
 21 6 l 1,61,-1
 24 6 l 1,62,-1
 24 9 l 1,63,-1
 24 12 l 1,64,-1
 21 12 l 1,65,-1
 18 12 l 1,66,-1
 18 9 l 1,67,-1
 18 6 l 1,60,-1
12 12 m 1,68,-1
 15 12 l 1,69,-1
 18 12 l 1,70,-1
 18 15 l 1,71,-1
 18 18 l 1,72,-1
 15 18 l 1,73,-1
 12 18 l 1,74,-1
 12 15 l 1,75,-1
 12 12 l 1,68,-1
6 42 m 1,76,-1
 9 42 l 1,77,-1
 12 42 l 1,78,-1
 12 45 l 1,79,-1
 12 48 l 1,80,-1
 9 48 l 1,81,-1
 6 48 l 1,82,-1
 6 45 l 1,83,-1
 6 42 l 1,76,-1
EndSplineSet
EndChar

StartChar: uni0433
Encoding: 1075 1075 46
Width: 42
GlyphClass: 1
Flags: W
LayerCount: 2
Fore
SplineSet
12 36 m 1,0,-1
 9 36 l 1,1,-1
 6 36 l 1,2,-1
 6 33 l 1,3,-1
 6 30 l 1,4,-1
 9 30 l 1,5,-1
 12 30 l 1,6,-1
 12 27 l 1,7,-1
 12 24 l 1,8,-1
 12 21 l 1,9,-1
 12 18 l 1,10,-1
 12 15 l 1,11,-1
 12 12 l 1,12,-1
 12 9 l 1,13,-1
 12 6 l 1,14,-1
 15 6 l 1,15,-1
 18 6 l 1,16,-1
 18 9 l 1,17,-1
 18 12 l 1,18,-1
 18 15 l 1,19,-1
 18 18 l 1,20,-1
 18 21 l 1,21,-1
 18 24 l 1,22,-1
 18 27 l 1,23,-1
 18 30 l 1,24,-1
 18 33 l 1,25,-1
 18 36 l 1,26,-1
 15 36 l 1,27,-1
 12 36 l 1,0,-1
6 27 m 1,28,-1
 6 30 l 1,29,-1
 3 30 l 1,30,-1
 0 30 l 1,31,-1
 0 27 l 1,32,-1
 0 24 l 1,33,-1
 0 21 l 1,34,-1
 0 18 l 1,35,-1
 3 18 l 1,36,-1
 6 18 l 1,37,-1
 6 21 l 1,38,-1
 6 24 l 1,39,-1
 6 27 l 1,28,-1
24 6 m 1,40,-1
 27 6 l 1,41,-1
 30 6 l 1,42,-1
 30 9 l 1,43,-1
 30 12 l 1,44,-1
 27 12 l 1,45,-1
 24 12 l 1,46,-1
 24 9 l 1,47,-1
 24 6 l 1,40,-1
18 0 m 1,48,-1
 21 0 l 1,49,-1
 24 0 l 1,50,-1
 24 3 l 1,51,-1
 24 6 l 1,52,-1
 21 6 l 1,53,-1
 18 6 l 1,54,-1
 18 3 l 1,55,-1
 18 0 l 1,48,-1
30 12 m 1,56,-1
 33 12 l 1,57,-1
 36 12 l 1,58,-1
 36 15 l 1,59,-1
 36 18 l 1,60,-1
 36 21 l 1,61,-1
 36 24 l 1,62,-1
 33 24 l 1,63,-1
 30 24 l 1,64,-1
 30 21 l 1,65,-1
 30 18 l 1,66,-1
 30 15 l 1,67,-1
 30 12 l 1,56,-1
EndSplineSet
EndChar

StartChar: uni0434
Encoding: 1076 1076 47
Width: 48
GlyphClass: 1
Flags: W
LayerCount: 2
Fore
SplineSet
24 24 m 1,0,-1
 24 27 l 1,1,-1
 24 30 l 1,2,-1
 24 33 l 1,3,-1
 24 36 l 1,4,-1
 21 36 l 1,5,-1
 18 36 l 1,6,-1
 18 33 l 1,7,-1
 18 30 l 1,8,-1
 15 30 l 1,9,-1
 12 30 l 1,10,-1
 9 30 l 1,11,-1
 6 30 l 1,12,-1
 6 27 l 1,13,-1
 6 24 l 1,14,-1
 9 24 l 1,15,-1
 12 24 l 1,16,-1
 15 24 l 1,17,-1
 18 24 l 1,18,-1
 18 21 l 1,19,-1
 18 18 l 1,20,-1
 18 15 l 1,21,-1
 18 12 l 1,22,-1
 15 12 l 1,23,-1
 12 12 l 1,24,-1
 9 12 l 1,25,-1
 6 12 l 1,26,-1
 6 9 l 1,27,-1
 6 6 l 1,28,-1
 9 6 l 1,29,-1
 12 6 l 1,30,-1
 15 6 l 1,31,-1
 18 6 l 1,32,-1
 18 3 l 1,33,-1
 18 0 l 1,34,-1
 15 0 l 1,35,-1
 12 0 l 1,36,-1
 12 -3 l 1,37,-1
 12 -6 l 1,38,-1
 15 -6 l 1,39,-1
 18 -6 l 1,40,-1
 18 -9 l 1,41,-1
 18 -12 l 1,42,-1
 18 -15 l 1,43,-1
 18 -18 l 1,44,-1
 21 -18 l 1,45,-1
 24 -18 l 1,46,-1
 24 -15 l 1,47,-1
 24 -12 l 1,48,-1
 24 -9 l 1,49,-1
 24 -6 l 1,50,-1
 24 -3 l 1,51,-1
 24 0 l 1,52,-1
 24 3 l 1,53,-1
 24 6 l 1,54,-1
 27 6 l 1,55,-1
 30 6 l 1,56,-1
 30 9 l 1,57,-1
 30 12 l 1,58,-1
 27 12 l 1,59,-1
 24 12 l 1,60,-1
 24 15 l 1,61,-1
 24 18 l 1,62,-1
 24 21 l 1,63,-1
 24 24 l 1,0,-1
12 -9 m 1,64,-1
 12 -6 l 1,65,-1
 9 -6 l 1,66,-1
 6 -6 l 1,67,-1
 6 -9 l 1,68,-1
 6 -12 l 1,69,-1
 9 -12 l 1,70,-1
 12 -12 l 1,71,-1
 12 -9 l 1,64,-1
6 21 m 1,72,-1
 6 24 l 1,73,-1
 3 24 l 1,74,-1
 0 24 l 1,75,-1
 0 21 l 1,76,-1
 0 18 l 1,77,-1
 0 15 l 1,78,-1
 0 12 l 1,79,-1
 3 12 l 1,80,-1
 6 12 l 1,81,-1
 6 15 l 1,82,-1
 6 18 l 1,83,-1
 6 21 l 1,72,-1
18 -21 m 1,84,-1
 18 -18 l 1,85,-1
 15 -18 l 1,86,-1
 12 -18 l 1,87,-1
 9 -18 l 1,88,-1
 6 -18 l 1,89,-1
 6 -21 l 1,90,-1
 6 -24 l 1,91,-1
 9 -24 l 1,92,-1
 12 -24 l 1,93,-1
 15 -24 l 1,94,-1
 18 -24 l 1,95,-1
 18 -21 l 1,84,-1
0 -18 m 1,96,-1
 3 -18 l 1,97,-1
 6 -18 l 1,98,-1
 6 -15 l 1,99,-1
 6 -12 l 1,100,-1
 3 -12 l 1,101,-1
 0 -12 l 1,102,-1
 0 -15 l 1,103,-1
 0 -18 l 1,96,-1
36 18 m 1,104,-1
 39 18 l 1,105,-1
 42 18 l 1,106,-1
 42 21 l 1,107,-1
 42 24 l 1,108,-1
 39 24 l 1,109,-1
 36 24 l 1,110,-1
 36 21 l 1,111,-1
 36 18 l 1,104,-1
30 12 m 1,112,-1
 33 12 l 1,113,-1
 36 12 l 1,114,-1
 36 15 l 1,115,-1
 36 18 l 1,116,-1
 33 18 l 1,117,-1
 30 18 l 1,118,-1
 30 15 l 1,119,-1
 30 12 l 1,112,-1
EndSplineSet
EndChar

StartChar: uni0435
Encoding: 1077 1077 48
Width: 30
GlyphClass: 1
Flags: W
LayerCount: 2
Fore
SplineSet
6 9 m 1,0,-1
 6 12 l 1,1,-1
 9 12 l 1,2,-1
 12 12 l 1,3,-1
 12 15 l 1,4,-1
 12 18 l 1,5,-1
 9 18 l 1,6,-1
 6 18 l 1,7,-1
 6 21 l 1,8,-1
 6 24 l 1,9,-1
 6 27 l 1,10,-1
 6 30 l 1,11,-1
 3 30 l 1,12,-1
 0 30 l 1,13,-1
 0 27 l 1,14,-1
 0 24 l 1,15,-1
 0 21 l 1,16,-1
 0 18 l 1,17,-1
 0 15 l 1,18,-1
 0 12 l 1,19,-1
 0 9 l 1,20,-1
 0 6 l 1,21,-1
 3 6 l 1,22,-1
 6 6 l 1,23,-1
 6 9 l 1,0,-1
12 6 m 1,24,-1
 9 6 l 1,25,-1
 6 6 l 1,26,-1
 6 3 l 1,27,-1
 6 0 l 1,28,-1
 9 0 l 1,29,-1
 12 0 l 1,30,-1
 15 0 l 1,31,-1
 18 0 l 1,32,-1
 18 3 l 1,33,-1
 18 6 l 1,34,-1
 15 6 l 1,35,-1
 12 6 l 1,24,-1
24 9 m 1,36,-1
 24 12 l 1,37,-1
 21 12 l 1,38,-1
 18 12 l 1,39,-1
 18 9 l 1,40,-1
 18 6 l 1,41,-1
 21 6 l 1,42,-1
 24 6 l 1,43,-1
 24 9 l 1,36,-1
6 30 m 1,44,-1
 9 30 l 1,45,-1
 12 30 l 1,46,-1
 15 30 l 1,47,-1
 18 30 l 1,48,-1
 18 33 l 1,49,-1
 18 36 l 1,50,-1
 15 36 l 1,51,-1
 12 36 l 1,52,-1
 9 36 l 1,53,-1
 6 36 l 1,54,-1
 6 33 l 1,55,-1
 6 30 l 1,44,-1
12 18 m 1,56,-1
 15 18 l 1,57,-1
 18 18 l 1,58,-1
 18 21 l 1,59,-1
 18 24 l 1,60,-1
 15 24 l 1,61,-1
 12 24 l 1,62,-1
 12 21 l 1,63,-1
 12 18 l 1,56,-1
18 24 m 1,64,-1
 21 24 l 1,65,-1
 24 24 l 1,66,-1
 24 27 l 1,67,-1
 24 30 l 1,68,-1
 21 30 l 1,69,-1
 18 30 l 1,70,-1
 18 27 l 1,71,-1
 18 24 l 1,64,-1
EndSplineSet
EndChar

StartChar: uni0436
Encoding: 1078 1078 49
Width: 60
GlyphClass: 1
Flags: W
LayerCount: 2
Fore
SplineSet
21 24 m 1,0,-1
 18 24 l 1,1,-1
 18 21 l 1,2,-1
 18 18 l 1,3,-1
 18 15 l 1,4,-1
 18 12 l 1,5,-1
 21 12 l 1,6,-1
 24 12 l 1,7,-1
 24 9 l 1,8,-1
 24 6 l 1,9,-1
 24 3 l 1,10,-1
 24 0 l 1,11,-1
 27 0 l 1,12,-1
 30 0 l 1,13,-1
 30 3 l 1,14,-1
 30 6 l 1,15,-1
 30 9 l 1,16,-1
 30 12 l 1,17,-1
 33 12 l 1,18,-1
 36 12 l 1,19,-1
 36 15 l 1,20,-1
 36 18 l 1,21,-1
 36 21 l 1,22,-1
 36 24 l 1,23,-1
 33 24 l 1,24,-1
 30 24 l 1,25,-1
 30 27 l 1,26,-1
 30 30 l 1,27,-1
 30 33 l 1,28,-1
 30 36 l 1,29,-1
 27 36 l 1,30,-1
 24 36 l 1,31,-1
 24 33 l 1,32,-1
 24 30 l 1,33,-1
 24 27 l 1,34,-1
 24 24 l 1,35,-1
 21 24 l 1,0,-1
6 27 m 1,36,-1
 6 30 l 1,37,-1
 3 30 l 1,38,-1
 0 30 l 1,39,-1
 0 27 l 1,40,-1
 0 24 l 1,41,-1
 3 24 l 1,42,-1
 6 24 l 1,43,-1
 6 27 l 1,36,-1
6 9 m 1,44,-1
 6 12 l 1,45,-1
 3 12 l 1,46,-1
 0 12 l 1,47,-1
 0 9 l 1,48,-1
 0 6 l 1,49,-1
 3 6 l 1,50,-1
 6 6 l 1,51,-1
 6 9 l 1,44,-1
12 6 m 1,52,-1
 15 6 l 1,53,-1
 18 6 l 1,54,-1
 18 9 l 1,55,-1
 18 12 l 1,56,-1
 15 12 l 1,57,-1
 12 12 l 1,58,-1
 12 9 l 1,59,-1
 12 6 l 1,52,-1
12 24 m 1,60,-1
 15 24 l 1,61,-1
 18 24 l 1,62,-1
 18 27 l 1,63,-1
 18 30 l 1,64,-1
 15 30 l 1,65,-1
 12 30 l 1,66,-1
 12 27 l 1,67,-1
 12 24 l 1,60,-1
36 24 m 1,68,-1
 39 24 l 1,69,-1
 42 24 l 1,70,-1
 42 27 l 1,71,-1
 42 30 l 1,72,-1
 39 30 l 1,73,-1
 36 30 l 1,74,-1
 36 27 l 1,75,-1
 36 24 l 1,68,-1
6 30 m 1,76,-1
 9 30 l 1,77,-1
 12 30 l 1,78,-1
 12 33 l 1,79,-1
 12 36 l 1,80,-1
 9 36 l 1,81,-1
 6 36 l 1,82,-1
 6 33 l 1,83,-1
 6 30 l 1,76,-1
6 0 m 1,84,-1
 9 0 l 1,85,-1
 12 0 l 1,86,-1
 12 3 l 1,87,-1
 12 6 l 1,88,-1
 9 6 l 1,89,-1
 6 6 l 1,90,-1
 6 3 l 1,91,-1
 6 0 l 1,84,-1
42 30 m 1,92,-1
 45 30 l 1,93,-1
 48 30 l 1,94,-1
 48 33 l 1,95,-1
 48 36 l 1,96,-1
 45 36 l 1,97,-1
 42 36 l 1,98,-1
 42 33 l 1,99,-1
 42 30 l 1,92,-1
36 6 m 1,100,-1
 39 6 l 1,101,-1
 42 6 l 1,102,-1
 42 9 l 1,103,-1
 42 12 l 1,104,-1
 39 12 l 1,105,-1
 36 12 l 1,106,-1
 36 9 l 1,107,-1
 36 6 l 1,100,-1
42 0 m 1,108,-1
 45 0 l 1,109,-1
 48 0 l 1,110,-1
 48 3 l 1,111,-1
 48 6 l 1,112,-1
 45 6 l 1,113,-1
 42 6 l 1,114,-1
 42 3 l 1,115,-1
 42 0 l 1,108,-1
48 24 m 1,116,-1
 51 24 l 1,117,-1
 54 24 l 1,118,-1
 54 27 l 1,119,-1
 54 30 l 1,120,-1
 51 30 l 1,121,-1
 48 30 l 1,122,-1
 48 27 l 1,123,-1
 48 24 l 1,116,-1
48 6 m 1,124,-1
 51 6 l 1,125,-1
 54 6 l 1,126,-1
 54 9 l 1,127,-1
 54 12 l 1,128,-1
 51 12 l 1,129,-1
 48 12 l 1,130,-1
 48 9 l 1,131,-1
 48 6 l 1,124,-1
EndSplineSet
EndChar

StartChar: uni0437
Encoding: 1079 1079 50
Width: 30
GlyphClass: 1
Flags: W
LayerCount: 2
Fore
SplineSet
3 0 m 1,0,-1
 6 0 l 1,1,-1
 9 0 l 1,2,-1
 12 0 l 1,3,-1
 15 0 l 1,4,-1
 18 0 l 1,5,-1
 18 3 l 1,6,-1
 18 6 l 1,7,-1
 15 6 l 1,8,-1
 12 6 l 1,9,-1
 9 6 l 1,10,-1
 6 6 l 1,11,-1
 3 6 l 1,12,-1
 0 6 l 1,13,-1
 0 3 l 1,14,-1
 0 0 l 1,15,-1
 3 0 l 1,0,-1
12 36 m 1,16,-1
 9 36 l 1,17,-1
 6 36 l 1,18,-1
 6 33 l 1,19,-1
 6 30 l 1,20,-1
 9 30 l 1,21,-1
 12 30 l 1,22,-1
 15 30 l 1,23,-1
 18 30 l 1,24,-1
 18 33 l 1,25,-1
 18 36 l 1,26,-1
 15 36 l 1,27,-1
 12 36 l 1,16,-1
18 18 m 1,28,-1
 21 18 l 1,29,-1
 24 18 l 1,30,-1
 24 21 l 1,31,-1
 24 24 l 1,32,-1
 24 27 l 1,33,-1
 24 30 l 1,34,-1
 21 30 l 1,35,-1
 18 30 l 1,36,-1
 18 27 l 1,37,-1
 18 24 l 1,38,-1
 18 21 l 1,39,-1
 18 18 l 1,28,-1
12 12 m 1,40,-1
 15 12 l 1,41,-1
 18 12 l 1,42,-1
 18 15 l 1,43,-1
 18 18 l 1,44,-1
 15 18 l 1,45,-1
 12 18 l 1,46,-1
 9 18 l 1,47,-1
 6 18 l 1,48,-1
 6 15 l 1,49,-1
 6 12 l 1,50,-1
 9 12 l 1,51,-1
 12 12 l 1,40,-1
0 24 m 1,52,-1
 3 24 l 1,53,-1
 6 24 l 1,54,-1
 6 27 l 1,55,-1
 6 30 l 1,56,-1
 3 30 l 1,57,-1
 0 30 l 1,58,-1
 0 27 l 1,59,-1
 0 24 l 1,52,-1
18 6 m 1,60,-1
 21 6 l 1,61,-1
 24 6 l 1,62,-1
 24 9 l 1,63,-1
 24 12 l 1,64,-1
 21 12 l 1,65,-1
 18 12 l 1,66,-1
 18 9 l 1,67,-1
 18 6 l 1,60,-1
EndSplineSet
EndChar

StartChar: uni0438
Encoding: 1080 1080 51
Width: 42
GlyphClass: 1
Flags: W
LayerCount: 2
Fore
SplineSet
6 18 m 1,0,-1
 6 21 l 1,1,-1
 6 24 l 1,2,-1
 6 27 l 1,3,-1
 6 30 l 1,4,-1
 6 33 l 1,5,-1
 6 36 l 1,6,-1
 3 36 l 1,7,-1
 0 36 l 1,8,-1
 0 33 l 1,9,-1
 0 30 l 1,10,-1
 0 27 l 1,11,-1
 0 24 l 1,12,-1
 0 21 l 1,13,-1
 0 18 l 1,14,-1
 0 15 l 1,15,-1
 0 12 l 1,16,-1
 0 9 l 1,17,-1
 0 6 l 1,18,-1
 3 6 l 1,19,-1
 6 6 l 1,20,-1
 6 9 l 1,21,-1
 6 12 l 1,22,-1
 6 15 l 1,23,-1
 6 18 l 1,0,-1
36 9 m 1,24,-1
 36 12 l 1,25,-1
 36 15 l 1,26,-1
 36 18 l 1,27,-1
 33 18 l 1,28,-1
 30 18 l 1,29,-1
 30 15 l 1,30,-1
 30 12 l 1,31,-1
 30 9 l 1,32,-1
 30 6 l 1,33,-1
 33 6 l 1,34,-1
 36 6 l 1,35,-1
 36 9 l 1,24,-1
6 0 m 1,36,-1
 9 0 l 1,37,-1
 12 0 l 1,38,-1
 15 0 l 1,39,-1
 18 0 l 1,40,-1
 18 3 l 1,41,-1
 18 6 l 1,42,-1
 15 6 l 1,43,-1
 12 6 l 1,44,-1
 9 6 l 1,45,-1
 6 6 l 1,46,-1
 6 3 l 1,47,-1
 6 0 l 1,36,-1
24 0 m 1,48,-1
 27 0 l 1,49,-1
 30 0 l 1,50,-1
 30 3 l 1,51,-1
 30 6 l 1,52,-1
 27 6 l 1,53,-1
 24 6 l 1,54,-1
 24 3 l 1,55,-1
 24 0 l 1,48,-1
18 27 m 1,56,-1
 18 24 l 1,57,-1
 18 21 l 1,58,-1
 18 18 l 1,59,-1
 18 15 l 1,60,-1
 18 12 l 1,61,-1
 18 9 l 1,62,-1
 18 6 l 1,63,-1
 21 6 l 1,64,-1
 24 6 l 1,65,-1
 24 9 l 1,66,-1
 24 12 l 1,67,-1
 24 15 l 1,68,-1
 24 18 l 1,69,-1
 24 21 l 1,70,-1
 24 24 l 1,71,-1
 24 27 l 1,72,-1
 24 30 l 1,73,-1
 24 33 l 1,74,-1
 24 36 l 1,75,-1
 21 36 l 1,76,-1
 18 36 l 1,77,-1
 18 33 l 1,78,-1
 18 30 l 1,79,-1
 18 27 l 1,56,-1
EndSplineSet
EndChar

StartChar: uni0439
Encoding: 1081 1081 52
Width: 42
GlyphClass: 1
Flags: W
LayerCount: 2
Fore
SplineSet
0 15 m 1,0,-1
 0 12 l 1,1,-1
 0 9 l 1,2,-1
 0 6 l 1,3,-1
 3 6 l 1,4,-1
 6 6 l 1,5,-1
 6 9 l 1,6,-1
 6 12 l 1,7,-1
 6 15 l 1,8,-1
 6 18 l 1,9,-1
 6 21 l 1,10,-1
 6 24 l 1,11,-1
 6 27 l 1,12,-1
 6 30 l 1,13,-1
 6 33 l 1,14,-1
 6 36 l 1,15,-1
 3 36 l 1,16,-1
 0 36 l 1,17,-1
 0 33 l 1,18,-1
 0 30 l 1,19,-1
 0 27 l 1,20,-1
 0 24 l 1,21,-1
 0 21 l 1,22,-1
 0 18 l 1,23,-1
 0 15 l 1,0,-1
18 45 m 1,24,-1
 18 48 l 1,25,-1
 15 48 l 1,26,-1
 12 48 l 1,27,-1
 9 48 l 1,28,-1
 6 48 l 1,29,-1
 6 45 l 1,30,-1
 6 42 l 1,31,-1
 9 42 l 1,32,-1
 12 42 l 1,33,-1
 15 42 l 1,34,-1
 18 42 l 1,35,-1
 18 45 l 1,24,-1
6 0 m 1,36,-1
 9 0 l 1,37,-1
 12 0 l 1,38,-1
 15 0 l 1,39,-1
 18 0 l 1,40,-1
 18 3 l 1,41,-1
 18 6 l 1,42,-1
 15 6 l 1,43,-1
 12 6 l 1,44,-1
 9 6 l 1,45,-1
 6 6 l 1,46,-1
 6 3 l 1,47,-1
 6 0 l 1,36,-1
30 15 m 1,48,-1
 30 12 l 1,49,-1
 30 9 l 1,50,-1
 30 6 l 1,51,-1
 33 6 l 1,52,-1
 36 6 l 1,53,-1
 36 9 l 1,54,-1
 36 12 l 1,55,-1
 36 15 l 1,56,-1
 36 18 l 1,57,-1
 33 18 l 1,58,-1
 30 18 l 1,59,-1
 30 15 l 1,48,-1
24 0 m 1,60,-1
 27 0 l 1,61,-1
 30 0 l 1,62,-1
 30 3 l 1,63,-1
 30 6 l 1,64,-1
 27 6 l 1,65,-1
 24 6 l 1,66,-1
 24 3 l 1,67,-1
 24 0 l 1,60,-1
18 33 m 1,68,-1
 18 30 l 1,69,-1
 18 27 l 1,70,-1
 18 24 l 1,71,-1
 18 21 l 1,72,-1
 18 18 l 1,73,-1
 18 15 l 1,74,-1
 18 12 l 1,75,-1
 18 9 l 1,76,-1
 18 6 l 1,77,-1
 21 6 l 1,78,-1
 24 6 l 1,79,-1
 24 9 l 1,80,-1
 24 12 l 1,81,-1
 24 15 l 1,82,-1
 24 18 l 1,83,-1
 24 21 l 1,84,-1
 24 24 l 1,85,-1
 24 27 l 1,86,-1
 24 30 l 1,87,-1
 24 33 l 1,88,-1
 24 36 l 1,89,-1
 21 36 l 1,90,-1
 18 36 l 1,91,-1
 18 33 l 1,68,-1
EndSplineSet
EndChar

StartChar: uni043A
Encoding: 1082 1082 53
Width: 42
GlyphClass: 1
Flags: W
LayerCount: 2
Fore
SplineSet
12 24 m 1,0,-1
 15 24 l 1,1,-1
 18 24 l 1,2,-1
 18 27 l 1,3,-1
 18 30 l 1,4,-1
 15 30 l 1,5,-1
 12 30 l 1,6,-1
 12 27 l 1,7,-1
 12 24 l 1,0,-1
18 15 m 1,8,-1
 18 18 l 1,9,-1
 15 18 l 1,10,-1
 12 18 l 1,11,-1
 12 21 l 1,12,-1
 12 24 l 1,13,-1
 9 24 l 1,14,-1
 6 24 l 1,15,-1
 6 27 l 1,16,-1
 6 30 l 1,17,-1
 6 33 l 1,18,-1
 6 36 l 1,19,-1
 3 36 l 1,20,-1
 0 36 l 1,21,-1
 0 33 l 1,22,-1
 0 30 l 1,23,-1
 0 27 l 1,24,-1
 0 24 l 1,25,-1
 0 21 l 1,26,-1
 0 18 l 1,27,-1
 0 15 l 1,28,-1
 0 12 l 1,29,-1
 0 9 l 1,30,-1
 0 6 l 1,31,-1
 0 3 l 1,32,-1
 0 0 l 1,33,-1
 3 0 l 1,34,-1
 6 0 l 1,35,-1
 6 3 l 1,36,-1
 6 6 l 1,37,-1
 6 9 l 1,38,-1
 6 12 l 1,39,-1
 9 12 l 1,40,-1
 12 12 l 1,41,-1
 12 9 l 1,42,-1
 12 6 l 1,43,-1
 15 6 l 1,44,-1
 18 6 l 1,45,-1
 18 9 l 1,46,-1
 18 12 l 1,47,-1
 18 15 l 1,8,-1
36 9 m 1,48,-1
 36 12 l 1,49,-1
 36 15 l 1,50,-1
 36 18 l 1,51,-1
 33 18 l 1,52,-1
 30 18 l 1,53,-1
 30 15 l 1,54,-1
 30 12 l 1,55,-1
 30 9 l 1,56,-1
 30 6 l 1,57,-1
 33 6 l 1,58,-1
 36 6 l 1,59,-1
 36 9 l 1,48,-1
18 30 m 1,60,-1
 21 30 l 1,61,-1
 24 30 l 1,62,-1
 24 33 l 1,63,-1
 24 36 l 1,64,-1
 21 36 l 1,65,-1
 18 36 l 1,66,-1
 18 33 l 1,67,-1
 18 30 l 1,60,-1
18 0 m 1,68,-1
 21 0 l 1,69,-1
 24 0 l 1,70,-1
 27 0 l 1,71,-1
 30 0 l 1,72,-1
 30 3 l 1,73,-1
 30 6 l 1,74,-1
 27 6 l 1,75,-1
 24 6 l 1,76,-1
 21 6 l 1,77,-1
 18 6 l 1,78,-1
 18 3 l 1,79,-1
 18 0 l 1,68,-1
24 24 m 1,80,-1
 27 24 l 1,81,-1
 30 24 l 1,82,-1
 30 27 l 1,83,-1
 30 30 l 1,84,-1
 27 30 l 1,85,-1
 24 30 l 1,86,-1
 24 27 l 1,87,-1
 24 24 l 1,80,-1
EndSplineSet
EndChar

StartChar: uni043B
Encoding: 1083 1083 54
Width: 48
GlyphClass: 1
Flags: W
LayerCount: 2
Fore
SplineSet
12 3 m 1,0,-1
 12 6 l 1,1,-1
 9 6 l 1,2,-1
 6 6 l 1,3,-1
 6 3 l 1,4,-1
 6 0 l 1,5,-1
 9 0 l 1,6,-1
 12 0 l 1,7,-1
 12 3 l 1,0,-1
42 9 m 1,8,-1
 42 12 l 1,9,-1
 42 15 l 1,10,-1
 42 18 l 1,11,-1
 39 18 l 1,12,-1
 36 18 l 1,13,-1
 36 15 l 1,14,-1
 36 12 l 1,15,-1
 36 9 l 1,16,-1
 36 6 l 1,17,-1
 39 6 l 1,18,-1
 42 6 l 1,19,-1
 42 9 l 1,8,-1
24 6 m 1,20,-1
 27 6 l 1,21,-1
 30 6 l 1,22,-1
 30 9 l 1,23,-1
 30 12 l 1,24,-1
 27 12 l 1,25,-1
 24 12 l 1,26,-1
 24 9 l 1,27,-1
 24 6 l 1,20,-1
18 21 m 1,28,-1
 18 18 l 1,29,-1
 18 15 l 1,30,-1
 18 12 l 1,31,-1
 21 12 l 1,32,-1
 24 12 l 1,33,-1
 24 15 l 1,34,-1
 24 18 l 1,35,-1
 24 21 l 1,36,-1
 24 24 l 1,37,-1
 24 27 l 1,38,-1
 24 30 l 1,39,-1
 24 33 l 1,40,-1
 24 36 l 1,41,-1
 21 36 l 1,42,-1
 18 36 l 1,43,-1
 18 33 l 1,44,-1
 18 30 l 1,45,-1
 18 27 l 1,46,-1
 18 24 l 1,47,-1
 18 21 l 1,28,-1
12 6 m 1,48,-1
 15 6 l 1,49,-1
 18 6 l 1,50,-1
 18 9 l 1,51,-1
 18 12 l 1,52,-1
 15 12 l 1,53,-1
 12 12 l 1,54,-1
 12 9 l 1,55,-1
 12 6 l 1,48,-1
30 0 m 1,56,-1
 33 0 l 1,57,-1
 36 0 l 1,58,-1
 36 3 l 1,59,-1
 36 6 l 1,60,-1
 33 6 l 1,61,-1
 30 6 l 1,62,-1
 30 3 l 1,63,-1
 30 0 l 1,56,-1
0 15 m 1,64,-1
 0 12 l 1,65,-1
 0 9 l 1,66,-1
 0 6 l 1,67,-1
 3 6 l 1,68,-1
 6 6 l 1,69,-1
 6 9 l 1,70,-1
 6 12 l 1,71,-1
 6 15 l 1,72,-1
 6 18 l 1,73,-1
 3 18 l 1,74,-1
 0 18 l 1,75,-1
 0 15 l 1,64,-1
EndSplineSet
EndChar

StartChar: uni043C
Encoding: 1084 1084 55
Width: 54
GlyphClass: 1
Flags: W
LayerCount: 2
Fore
SplineSet
12 18 m 1,0,-1
 12 15 l 1,1,-1
 12 12 l 1,2,-1
 12 9 l 1,3,-1
 12 6 l 1,4,-1
 15 6 l 1,5,-1
 18 6 l 1,6,-1
 18 9 l 1,7,-1
 18 12 l 1,8,-1
 18 15 l 1,9,-1
 18 18 l 1,10,-1
 18 21 l 1,11,-1
 18 24 l 1,12,-1
 18 27 l 1,13,-1
 18 30 l 1,14,-1
 18 33 l 1,15,-1
 18 36 l 1,16,-1
 15 36 l 1,17,-1
 12 36 l 1,18,-1
 12 33 l 1,19,-1
 12 30 l 1,20,-1
 12 27 l 1,21,-1
 12 24 l 1,22,-1
 12 21 l 1,23,-1
 12 18 l 1,0,-1
36 33 m 1,24,-1
 36 36 l 1,25,-1
 33 36 l 1,26,-1
 30 36 l 1,27,-1
 30 33 l 1,28,-1
 30 30 l 1,29,-1
 30 27 l 1,30,-1
 30 24 l 1,31,-1
 30 21 l 1,32,-1
 30 18 l 1,33,-1
 30 15 l 1,34,-1
 30 12 l 1,35,-1
 30 9 l 1,36,-1
 30 6 l 1,37,-1
 33 6 l 1,38,-1
 36 6 l 1,39,-1
 36 9 l 1,40,-1
 36 12 l 1,41,-1
 36 15 l 1,42,-1
 36 18 l 1,43,-1
 36 21 l 1,44,-1
 36 24 l 1,45,-1
 36 27 l 1,46,-1
 36 30 l 1,47,-1
 36 33 l 1,24,-1
24 6 m 1,48,-1
 21 6 l 1,49,-1
 18 6 l 1,50,-1
 18 3 l 1,51,-1
 18 0 l 1,52,-1
 21 0 l 1,53,-1
 24 0 l 1,54,-1
 27 0 l 1,55,-1
 30 0 l 1,56,-1
 30 3 l 1,57,-1
 30 6 l 1,58,-1
 27 6 l 1,59,-1
 24 6 l 1,48,-1
6 9 m 1,60,-1
 6 12 l 1,61,-1
 6 15 l 1,62,-1
 6 18 l 1,63,-1
 3 18 l 1,64,-1
 0 18 l 1,65,-1
 0 15 l 1,66,-1
 0 12 l 1,67,-1
 0 9 l 1,68,-1
 0 6 l 1,69,-1
 3 6 l 1,70,-1
 6 6 l 1,71,-1
 6 9 l 1,60,-1
36 0 m 1,72,-1
 39 0 l 1,73,-1
 42 0 l 1,74,-1
 42 3 l 1,75,-1
 42 6 l 1,76,-1
 39 6 l 1,77,-1
 36 6 l 1,78,-1
 36 3 l 1,79,-1
 36 0 l 1,72,-1
6 0 m 1,80,-1
 9 0 l 1,81,-1
 12 0 l 1,82,-1
 12 3 l 1,83,-1
 12 6 l 1,84,-1
 9 6 l 1,85,-1
 6 6 l 1,86,-1
 6 3 l 1,87,-1
 6 0 l 1,80,-1
42 6 m 1,88,-1
 45 6 l 1,89,-1
 48 6 l 1,90,-1
 48 9 l 1,91,-1
 48 12 l 1,92,-1
 48 15 l 1,93,-1
 48 18 l 1,94,-1
 45 18 l 1,95,-1
 42 18 l 1,96,-1
 42 15 l 1,97,-1
 42 12 l 1,98,-1
 42 9 l 1,99,-1
 42 6 l 1,88,-1
EndSplineSet
EndChar

StartChar: uni043D
Encoding: 1085 1085 56
Width: 48
GlyphClass: 1
Flags: W
LayerCount: 2
Fore
SplineSet
0 6 m 1,0,-1
 0 3 l 1,1,-1
 0 0 l 1,2,-1
 3 0 l 1,3,-1
 6 0 l 1,4,-1
 6 3 l 1,5,-1
 6 6 l 1,6,-1
 6 9 l 1,7,-1
 6 12 l 1,8,-1
 6 15 l 1,9,-1
 6 18 l 1,10,-1
 9 18 l 1,11,-1
 12 18 l 1,12,-1
 15 18 l 1,13,-1
 18 18 l 1,14,-1
 18 15 l 1,15,-1
 18 12 l 1,16,-1
 18 9 l 1,17,-1
 18 6 l 1,18,-1
 18 3 l 1,19,-1
 18 0 l 1,20,-1
 21 0 l 1,21,-1
 24 0 l 1,22,-1
 27 0 l 1,23,-1
 30 0 l 1,24,-1
 30 3 l 1,25,-1
 30 6 l 1,26,-1
 27 6 l 1,27,-1
 24 6 l 1,28,-1
 24 9 l 1,29,-1
 24 12 l 1,30,-1
 24 15 l 1,31,-1
 24 18 l 1,32,-1
 24 21 l 1,33,-1
 24 24 l 1,34,-1
 24 27 l 1,35,-1
 24 30 l 1,36,-1
 24 33 l 1,37,-1
 24 36 l 1,38,-1
 21 36 l 1,39,-1
 18 36 l 1,40,-1
 18 33 l 1,41,-1
 18 30 l 1,42,-1
 18 27 l 1,43,-1
 18 24 l 1,44,-1
 15 24 l 1,45,-1
 12 24 l 1,46,-1
 9 24 l 1,47,-1
 6 24 l 1,48,-1
 6 27 l 1,49,-1
 6 30 l 1,50,-1
 6 33 l 1,51,-1
 6 36 l 1,52,-1
 3 36 l 1,53,-1
 0 36 l 1,54,-1
 0 33 l 1,55,-1
 0 30 l 1,56,-1
 0 27 l 1,57,-1
 0 24 l 1,58,-1
 0 21 l 1,59,-1
 0 18 l 1,60,-1
 0 15 l 1,61,-1
 0 12 l 1,62,-1
 0 9 l 1,63,-1
 0 6 l 1,0,-1
36 12 m 1,64,-1
 39 12 l 1,65,-1
 42 12 l 1,66,-1
 42 15 l 1,67,-1
 42 18 l 1,68,-1
 42 21 l 1,69,-1
 42 24 l 1,70,-1
 39 24 l 1,71,-1
 36 24 l 1,72,-1
 36 21 l 1,73,-1
 36 18 l 1,74,-1
 36 15 l 1,75,-1
 36 12 l 1,64,-1
30 6 m 1,76,-1
 33 6 l 1,77,-1
 36 6 l 1,78,-1
 36 9 l 1,79,-1
 36 12 l 1,80,-1
 33 12 l 1,81,-1
 30 12 l 1,82,-1
 30 9 l 1,83,-1
 30 6 l 1,76,-1
EndSplineSet
EndChar

StartChar: uni043E
Encoding: 1086 1086 57
Width: 30
GlyphClass: 1
Flags: W
LayerCount: 2
Fore
SplineSet
24 24 m 1,0,-1
 24 27 l 1,1,-1
 24 30 l 1,2,-1
 21 30 l 1,3,-1
 18 30 l 1,4,-1
 18 27 l 1,5,-1
 18 24 l 1,6,-1
 18 21 l 1,7,-1
 18 18 l 1,8,-1
 18 15 l 1,9,-1
 18 12 l 1,10,-1
 18 9 l 1,11,-1
 18 6 l 1,12,-1
 21 6 l 1,13,-1
 24 6 l 1,14,-1
 24 9 l 1,15,-1
 24 12 l 1,16,-1
 24 15 l 1,17,-1
 24 18 l 1,18,-1
 24 21 l 1,19,-1
 24 24 l 1,0,-1
18 3 m 1,20,-1
 18 6 l 1,21,-1
 15 6 l 1,22,-1
 12 6 l 1,23,-1
 9 6 l 1,24,-1
 6 6 l 1,25,-1
 6 3 l 1,26,-1
 6 0 l 1,27,-1
 9 0 l 1,28,-1
 12 0 l 1,29,-1
 15 0 l 1,30,-1
 18 0 l 1,31,-1
 18 3 l 1,20,-1
6 9 m 1,32,-1
 6 12 l 1,33,-1
 6 15 l 1,34,-1
 6 18 l 1,35,-1
 6 21 l 1,36,-1
 6 24 l 1,37,-1
 3 24 l 1,38,-1
 0 24 l 1,39,-1
 0 21 l 1,40,-1
 0 18 l 1,41,-1
 0 15 l 1,42,-1
 0 12 l 1,43,-1
 0 9 l 1,44,-1
 0 6 l 1,45,-1
 3 6 l 1,46,-1
 6 6 l 1,47,-1
 6 9 l 1,32,-1
6 24 m 1,48,-1
 9 24 l 1,49,-1
 12 24 l 1,50,-1
 12 27 l 1,51,-1
 12 30 l 1,52,-1
 9 30 l 1,53,-1
 6 30 l 1,54,-1
 6 27 l 1,55,-1
 6 24 l 1,48,-1
12 30 m 1,56,-1
 15 30 l 1,57,-1
 18 30 l 1,58,-1
 18 33 l 1,59,-1
 18 36 l 1,60,-1
 15 36 l 1,61,-1
 12 36 l 1,62,-1
 12 33 l 1,63,-1
 12 30 l 1,56,-1
EndSplineSet
EndChar

StartChar: uni043F
Encoding: 1087 1087 58
Width: 36
GlyphClass: 1
Flags: W
LayerCount: 2
Fore
SplineSet
6 12 m 1,0,-1
 6 15 l 1,1,-1
 6 18 l 1,2,-1
 6 21 l 1,3,-1
 6 24 l 1,4,-1
 3 24 l 1,5,-1
 0 24 l 1,6,-1
 0 21 l 1,7,-1
 0 18 l 1,8,-1
 0 15 l 1,9,-1
 0 12 l 1,10,-1
 0 9 l 1,11,-1
 0 6 l 1,12,-1
 0 3 l 1,13,-1
 0 0 l 1,14,-1
 3 0 l 1,15,-1
 6 0 l 1,16,-1
 6 3 l 1,17,-1
 6 6 l 1,18,-1
 6 9 l 1,19,-1
 6 12 l 1,0,-1
30 3 m 1,20,-1
 30 6 l 1,21,-1
 30 9 l 1,22,-1
 30 12 l 1,23,-1
 30 15 l 1,24,-1
 30 18 l 1,25,-1
 30 21 l 1,26,-1
 30 24 l 1,27,-1
 30 27 l 1,28,-1
 30 30 l 1,29,-1
 30 33 l 1,30,-1
 30 36 l 1,31,-1
 27 36 l 1,32,-1
 24 36 l 1,33,-1
 21 36 l 1,34,-1
 18 36 l 1,35,-1
 15 36 l 1,36,-1
 12 36 l 1,37,-1
 12 33 l 1,38,-1
 12 30 l 1,39,-1
 15 30 l 1,40,-1
 18 30 l 1,41,-1
 21 30 l 1,42,-1
 24 30 l 1,43,-1
 24 27 l 1,44,-1
 24 24 l 1,45,-1
 24 21 l 1,46,-1
 24 18 l 1,47,-1
 24 15 l 1,48,-1
 24 12 l 1,49,-1
 24 9 l 1,50,-1
 24 6 l 1,51,-1
 24 3 l 1,52,-1
 24 0 l 1,53,-1
 27 0 l 1,54,-1
 30 0 l 1,55,-1
 30 3 l 1,20,-1
12 27 m 1,56,-1
 12 30 l 1,57,-1
 9 30 l 1,58,-1
 6 30 l 1,59,-1
 6 27 l 1,60,-1
 6 24 l 1,61,-1
 9 24 l 1,62,-1
 12 24 l 1,63,-1
 12 27 l 1,56,-1
EndSplineSet
EndChar

StartChar: uni0440
Encoding: 1088 1088 59
Width: 30
GlyphClass: 1
Flags: W
LayerCount: 2
Fore
SplineSet
15 18 m 1,0,-1
 12 18 l 1,1,-1
 9 18 l 1,2,-1
 6 18 l 1,3,-1
 6 21 l 1,4,-1
 6 24 l 1,5,-1
 6 27 l 1,6,-1
 6 30 l 1,7,-1
 3 30 l 1,8,-1
 0 30 l 1,9,-1
 0 27 l 1,10,-1
 0 24 l 1,11,-1
 0 21 l 1,12,-1
 0 18 l 1,13,-1
 0 15 l 1,14,-1
 0 12 l 1,15,-1
 0 9 l 1,16,-1
 0 6 l 1,17,-1
 0 3 l 1,18,-1
 0 0 l 1,19,-1
 0 -3 l 1,20,-1
 0 -6 l 1,21,-1
 0 -9 l 1,22,-1
 0 -12 l 1,23,-1
 0 -15 l 1,24,-1
 0 -18 l 1,25,-1
 3 -18 l 1,26,-1
 6 -18 l 1,27,-1
 6 -15 l 1,28,-1
 6 -12 l 1,29,-1
 6 -9 l 1,30,-1
 6 -6 l 1,31,-1
 6 -3 l 1,32,-1
 6 0 l 1,33,-1
 6 3 l 1,34,-1
 6 6 l 1,35,-1
 6 9 l 1,36,-1
 6 12 l 1,37,-1
 9 12 l 1,38,-1
 12 12 l 1,39,-1
 15 12 l 1,40,-1
 18 12 l 1,41,-1
 18 15 l 1,42,-1
 18 18 l 1,43,-1
 15 18 l 1,0,-1
12 30 m 1,44,-1
 15 30 l 1,45,-1
 18 30 l 1,46,-1
 18 33 l 1,47,-1
 18 36 l 1,48,-1
 15 36 l 1,49,-1
 12 36 l 1,50,-1
 9 36 l 1,51,-1
 6 36 l 1,52,-1
 6 33 l 1,53,-1
 6 30 l 1,54,-1
 9 30 l 1,55,-1
 12 30 l 1,44,-1
18 18 m 1,56,-1
 21 18 l 1,57,-1
 24 18 l 1,58,-1
 24 21 l 1,59,-1
 24 24 l 1,60,-1
 24 27 l 1,61,-1
 24 30 l 1,62,-1
 21 30 l 1,63,-1
 18 30 l 1,64,-1
 18 27 l 1,65,-1
 18 24 l 1,66,-1
 18 21 l 1,67,-1
 18 18 l 1,56,-1
EndSplineSet
EndChar

StartChar: uni0441
Encoding: 1089 1089 60
Width: 36
GlyphClass: 1
Flags: W
LayerCount: 2
Fore
SplineSet
12 6 m 1,0,-1
 9 6 l 1,1,-1
 6 6 l 1,2,-1
 6 3 l 1,3,-1
 6 0 l 1,4,-1
 9 0 l 1,5,-1
 12 0 l 1,6,-1
 15 0 l 1,7,-1
 18 0 l 1,8,-1
 21 0 l 1,9,-1
 24 0 l 1,10,-1
 24 3 l 1,11,-1
 24 6 l 1,12,-1
 21 6 l 1,13,-1
 18 6 l 1,14,-1
 15 6 l 1,15,-1
 12 6 l 1,0,-1
18 36 m 1,16,-1
 15 36 l 1,17,-1
 12 36 l 1,18,-1
 9 36 l 1,19,-1
 6 36 l 1,20,-1
 6 33 l 1,21,-1
 6 30 l 1,22,-1
 9 30 l 1,23,-1
 12 30 l 1,24,-1
 15 30 l 1,25,-1
 18 30 l 1,26,-1
 21 30 l 1,27,-1
 24 30 l 1,28,-1
 24 33 l 1,29,-1
 24 36 l 1,30,-1
 21 36 l 1,31,-1
 18 36 l 1,16,-1
0 6 m 1,32,-1
 3 6 l 1,33,-1
 6 6 l 1,34,-1
 6 9 l 1,35,-1
 6 12 l 1,36,-1
 6 15 l 1,37,-1
 6 18 l 1,38,-1
 6 21 l 1,39,-1
 6 24 l 1,40,-1
 6 27 l 1,41,-1
 6 30 l 1,42,-1
 3 30 l 1,43,-1
 0 30 l 1,44,-1
 0 27 l 1,45,-1
 0 24 l 1,46,-1
 0 21 l 1,47,-1
 0 18 l 1,48,-1
 0 15 l 1,49,-1
 0 12 l 1,50,-1
 0 9 l 1,51,-1
 0 6 l 1,32,-1
24 24 m 1,52,-1
 27 24 l 1,53,-1
 30 24 l 1,54,-1
 30 27 l 1,55,-1
 30 30 l 1,56,-1
 27 30 l 1,57,-1
 24 30 l 1,58,-1
 24 27 l 1,59,-1
 24 24 l 1,52,-1
24 6 m 1,60,-1
 27 6 l 1,61,-1
 30 6 l 1,62,-1
 30 9 l 1,63,-1
 30 12 l 1,64,-1
 27 12 l 1,65,-1
 24 12 l 1,66,-1
 24 9 l 1,67,-1
 24 6 l 1,60,-1
EndSplineSet
EndChar

StartChar: uni0442
Encoding: 1090 1090 61
Width: 36
GlyphClass: 1
Flags: W
LayerCount: 2
Fore
SplineSet
0 6 m 1,0,-1
 0 3 l 1,1,-1
 0 0 l 1,2,-1
 3 0 l 1,3,-1
 6 0 l 1,4,-1
 6 3 l 1,5,-1
 6 6 l 1,6,-1
 6 9 l 1,7,-1
 6 12 l 1,8,-1
 6 15 l 1,9,-1
 6 18 l 1,10,-1
 6 21 l 1,11,-1
 6 24 l 1,12,-1
 6 27 l 1,13,-1
 6 30 l 1,14,-1
 3 30 l 1,15,-1
 0 30 l 1,16,-1
 0 27 l 1,17,-1
 0 24 l 1,18,-1
 0 21 l 1,19,-1
 0 18 l 1,20,-1
 0 15 l 1,21,-1
 0 12 l 1,22,-1
 0 9 l 1,23,-1
 0 6 l 1,0,-1
6 30 m 1,24,-1
 9 30 l 1,25,-1
 12 30 l 1,26,-1
 12 27 l 1,27,-1
 12 24 l 1,28,-1
 12 21 l 1,29,-1
 12 18 l 1,30,-1
 12 15 l 1,31,-1
 12 12 l 1,32,-1
 12 9 l 1,33,-1
 12 6 l 1,34,-1
 12 3 l 1,35,-1
 12 0 l 1,36,-1
 15 0 l 1,37,-1
 18 0 l 1,38,-1
 18 3 l 1,39,-1
 18 6 l 1,40,-1
 18 9 l 1,41,-1
 18 12 l 1,42,-1
 18 15 l 1,43,-1
 18 18 l 1,44,-1
 18 21 l 1,45,-1
 18 24 l 1,46,-1
 18 27 l 1,47,-1
 18 30 l 1,48,-1
 21 30 l 1,49,-1
 24 30 l 1,50,-1
 24 33 l 1,51,-1
 24 36 l 1,52,-1
 21 36 l 1,53,-1
 18 36 l 1,54,-1
 15 36 l 1,55,-1
 12 36 l 1,56,-1
 9 36 l 1,57,-1
 6 36 l 1,58,-1
 6 33 l 1,59,-1
 6 30 l 1,24,-1
24 0 m 1,60,-1
 27 0 l 1,61,-1
 30 0 l 1,62,-1
 30 3 l 1,63,-1
 30 6 l 1,64,-1
 30 9 l 1,65,-1
 30 12 l 1,66,-1
 30 15 l 1,67,-1
 30 18 l 1,68,-1
 30 21 l 1,69,-1
 30 24 l 1,70,-1
 30 27 l 1,71,-1
 30 30 l 1,72,-1
 27 30 l 1,73,-1
 24 30 l 1,74,-1
 24 27 l 1,75,-1
 24 24 l 1,76,-1
 24 21 l 1,77,-1
 24 18 l 1,78,-1
 24 15 l 1,79,-1
 24 12 l 1,80,-1
 24 9 l 1,81,-1
 24 6 l 1,82,-1
 24 3 l 1,83,-1
 24 0 l 1,60,-1
EndSplineSet
EndChar

StartChar: uni0443
Encoding: 1091 1091 62
Width: 30
GlyphClass: 1
Flags: W
LayerCount: 2
Fore
SplineSet
0 27 m 1,0,-1
 0 24 l 1,1,-1
 0 21 l 1,2,-1
 0 18 l 1,3,-1
 0 15 l 1,4,-1
 0 12 l 1,5,-1
 0 9 l 1,6,-1
 0 6 l 1,7,-1
 3 6 l 1,8,-1
 6 6 l 1,9,-1
 6 9 l 1,10,-1
 6 12 l 1,11,-1
 6 15 l 1,12,-1
 6 18 l 1,13,-1
 6 21 l 1,14,-1
 6 24 l 1,15,-1
 6 27 l 1,16,-1
 6 30 l 1,17,-1
 6 33 l 1,18,-1
 6 36 l 1,19,-1
 3 36 l 1,20,-1
 0 36 l 1,21,-1
 0 33 l 1,22,-1
 0 30 l 1,23,-1
 0 27 l 1,0,-1
24 -3 m 1,24,-1
 24 0 l 1,25,-1
 24 3 l 1,26,-1
 24 6 l 1,27,-1
 24 9 l 1,28,-1
 24 12 l 1,29,-1
 24 15 l 1,30,-1
 24 18 l 1,31,-1
 24 21 l 1,32,-1
 24 24 l 1,33,-1
 24 27 l 1,34,-1
 24 30 l 1,35,-1
 24 33 l 1,36,-1
 24 36 l 1,37,-1
 21 36 l 1,38,-1
 18 36 l 1,39,-1
 18 33 l 1,40,-1
 18 30 l 1,41,-1
 18 27 l 1,42,-1
 18 24 l 1,43,-1
 18 21 l 1,44,-1
 18 18 l 1,45,-1
 18 15 l 1,46,-1
 18 12 l 1,47,-1
 18 9 l 1,48,-1
 18 6 l 1,49,-1
 15 6 l 1,50,-1
 12 6 l 1,51,-1
 9 6 l 1,52,-1
 6 6 l 1,53,-1
 6 3 l 1,54,-1
 6 0 l 1,55,-1
 9 0 l 1,56,-1
 12 0 l 1,57,-1
 15 0 l 1,58,-1
 18 0 l 1,59,-1
 18 -3 l 1,60,-1
 18 -6 l 1,61,-1
 21 -6 l 1,62,-1
 24 -6 l 1,63,-1
 24 -3 l 1,24,-1
18 -9 m 1,64,-1
 18 -6 l 1,65,-1
 15 -6 l 1,66,-1
 12 -6 l 1,67,-1
 12 -9 l 1,68,-1
 12 -12 l 1,69,-1
 15 -12 l 1,70,-1
 18 -12 l 1,71,-1
 18 -9 l 1,64,-1
12 -15 m 1,72,-1
 12 -12 l 1,73,-1
 9 -12 l 1,74,-1
 6 -12 l 1,75,-1
 3 -12 l 1,76,-1
 0 -12 l 1,77,-1
 0 -15 l 1,78,-1
 0 -18 l 1,79,-1
 3 -18 l 1,80,-1
 6 -18 l 1,81,-1
 9 -18 l 1,82,-1
 12 -18 l 1,83,-1
 12 -15 l 1,72,-1
EndSplineSet
EndChar

StartChar: uni0444
Encoding: 1092 1092 63
Width: 36
GlyphClass: 1
Flags: W
LayerCount: 2
Fore
SplineSet
18 12 m 1,0,-1
 18 15 l 1,1,-1
 18 18 l 1,2,-1
 18 21 l 1,3,-1
 18 24 l 1,4,-1
 21 24 l 1,5,-1
 24 24 l 1,6,-1
 24 27 l 1,7,-1
 24 30 l 1,8,-1
 21 30 l 1,9,-1
 18 30 l 1,10,-1
 18 33 l 1,11,-1
 18 36 l 1,12,-1
 15 36 l 1,13,-1
 12 36 l 1,14,-1
 12 33 l 1,15,-1
 12 30 l 1,16,-1
 9 30 l 1,17,-1
 6 30 l 1,18,-1
 6 27 l 1,19,-1
 6 24 l 1,20,-1
 9 24 l 1,21,-1
 12 24 l 1,22,-1
 12 21 l 1,23,-1
 12 18 l 1,24,-1
 12 15 l 1,25,-1
 12 12 l 1,26,-1
 9 12 l 1,27,-1
 6 12 l 1,28,-1
 6 9 l 1,29,-1
 6 6 l 1,30,-1
 9 6 l 1,31,-1
 12 6 l 1,32,-1
 12 3 l 1,33,-1
 12 0 l 1,34,-1
 12 -3 l 1,35,-1
 12 -6 l 1,36,-1
 15 -6 l 1,37,-1
 18 -6 l 1,38,-1
 18 -3 l 1,39,-1
 18 0 l 1,40,-1
 18 3 l 1,41,-1
 18 6 l 1,42,-1
 21 6 l 1,43,-1
 24 6 l 1,44,-1
 24 9 l 1,45,-1
 24 12 l 1,46,-1
 21 12 l 1,47,-1
 18 12 l 1,0,-1
24 21 m 1,48,-1
 24 18 l 1,49,-1
 24 15 l 1,50,-1
 24 12 l 1,51,-1
 27 12 l 1,52,-1
 30 12 l 1,53,-1
 30 15 l 1,54,-1
 30 18 l 1,55,-1
 30 21 l 1,56,-1
 30 24 l 1,57,-1
 27 24 l 1,58,-1
 24 24 l 1,59,-1
 24 21 l 1,48,-1
0 21 m 1,60,-1
 0 18 l 1,61,-1
 0 15 l 1,62,-1
 0 12 l 1,63,-1
 3 12 l 1,64,-1
 6 12 l 1,65,-1
 6 15 l 1,66,-1
 6 18 l 1,67,-1
 6 21 l 1,68,-1
 6 24 l 1,69,-1
 3 24 l 1,70,-1
 0 24 l 1,71,-1
 0 21 l 1,60,-1
EndSplineSet
EndChar

StartChar: uni0445
Encoding: 1093 1093 64
Width: 48
GlyphClass: 1
Flags: W
LayerCount: 2
Fore
SplineSet
9 6 m 1,0,-1
 6 6 l 1,1,-1
 6 3 l 1,2,-1
 6 0 l 1,3,-1
 9 0 l 1,4,-1
 12 0 l 1,5,-1
 12 3 l 1,6,-1
 12 6 l 1,7,-1
 9 6 l 1,0,-1
6 27 m 1,8,-1
 6 30 l 1,9,-1
 3 30 l 1,10,-1
 0 30 l 1,11,-1
 0 27 l 1,12,-1
 0 24 l 1,13,-1
 3 24 l 1,14,-1
 6 24 l 1,15,-1
 6 27 l 1,8,-1
36 33 m 1,16,-1
 36 36 l 1,17,-1
 33 36 l 1,18,-1
 30 36 l 1,19,-1
 30 33 l 1,20,-1
 30 30 l 1,21,-1
 33 30 l 1,22,-1
 36 30 l 1,23,-1
 36 33 l 1,16,-1
24 15 m 1,24,-1
 24 18 l 1,25,-1
 24 21 l 1,26,-1
 24 24 l 1,27,-1
 21 24 l 1,28,-1
 18 24 l 1,29,-1
 18 21 l 1,30,-1
 18 18 l 1,31,-1
 18 15 l 1,32,-1
 18 12 l 1,33,-1
 21 12 l 1,34,-1
 24 12 l 1,35,-1
 24 15 l 1,24,-1
36 24 m 1,36,-1
 39 24 l 1,37,-1
 42 24 l 1,38,-1
 42 27 l 1,39,-1
 42 30 l 1,40,-1
 39 30 l 1,41,-1
 36 30 l 1,42,-1
 36 27 l 1,43,-1
 36 24 l 1,36,-1
24 6 m 1,44,-1
 27 6 l 1,45,-1
 30 6 l 1,46,-1
 30 9 l 1,47,-1
 30 12 l 1,48,-1
 27 12 l 1,49,-1
 24 12 l 1,50,-1
 24 9 l 1,51,-1
 24 6 l 1,44,-1
24 24 m 1,52,-1
 27 24 l 1,53,-1
 30 24 l 1,54,-1
 30 27 l 1,55,-1
 30 30 l 1,56,-1
 27 30 l 1,57,-1
 24 30 l 1,58,-1
 24 27 l 1,59,-1
 24 24 l 1,52,-1
30 0 m 1,60,-1
 33 0 l 1,61,-1
 36 0 l 1,62,-1
 36 3 l 1,63,-1
 36 6 l 1,64,-1
 33 6 l 1,65,-1
 30 6 l 1,66,-1
 30 3 l 1,67,-1
 30 0 l 1,60,-1
12 24 m 1,68,-1
 15 24 l 1,69,-1
 18 24 l 1,70,-1
 18 27 l 1,71,-1
 18 30 l 1,72,-1
 15 30 l 1,73,-1
 12 30 l 1,74,-1
 12 27 l 1,75,-1
 12 24 l 1,68,-1
12 6 m 1,76,-1
 15 6 l 1,77,-1
 18 6 l 1,78,-1
 18 9 l 1,79,-1
 18 12 l 1,80,-1
 15 12 l 1,81,-1
 12 12 l 1,82,-1
 12 9 l 1,83,-1
 12 6 l 1,76,-1
6 30 m 1,84,-1
 9 30 l 1,85,-1
 12 30 l 1,86,-1
 12 33 l 1,87,-1
 12 36 l 1,88,-1
 9 36 l 1,89,-1
 6 36 l 1,90,-1
 6 33 l 1,91,-1
 6 30 l 1,84,-1
0 6 m 1,92,-1
 3 6 l 1,93,-1
 6 6 l 1,94,-1
 6 9 l 1,95,-1
 6 12 l 1,96,-1
 3 12 l 1,97,-1
 0 12 l 1,98,-1
 0 9 l 1,99,-1
 0 6 l 1,92,-1
36 6 m 1,100,-1
 39 6 l 1,101,-1
 42 6 l 1,102,-1
 42 9 l 1,103,-1
 42 12 l 1,104,-1
 39 12 l 1,105,-1
 36 12 l 1,106,-1
 36 9 l 1,107,-1
 36 6 l 1,100,-1
EndSplineSet
EndChar

StartChar: uni0446
Encoding: 1094 1094 65
Width: 42
GlyphClass: 1
Flags: W
LayerCount: 2
Fore
SplineSet
24 6 m 1,0,-1
 24 9 l 1,1,-1
 24 12 l 1,2,-1
 24 15 l 1,3,-1
 24 18 l 1,4,-1
 24 21 l 1,5,-1
 24 24 l 1,6,-1
 24 27 l 1,7,-1
 24 30 l 1,8,-1
 24 33 l 1,9,-1
 24 36 l 1,10,-1
 21 36 l 1,11,-1
 18 36 l 1,12,-1
 18 33 l 1,13,-1
 18 30 l 1,14,-1
 18 27 l 1,15,-1
 18 24 l 1,16,-1
 18 21 l 1,17,-1
 18 18 l 1,18,-1
 18 15 l 1,19,-1
 18 12 l 1,20,-1
 18 9 l 1,21,-1
 18 6 l 1,22,-1
 15 6 l 1,23,-1
 12 6 l 1,24,-1
 9 6 l 1,25,-1
 6 6 l 1,26,-1
 6 3 l 1,27,-1
 6 0 l 1,28,-1
 9 0 l 1,29,-1
 12 0 l 1,30,-1
 15 0 l 1,31,-1
 18 0 l 1,32,-1
 21 0 l 1,33,-1
 24 0 l 1,34,-1
 24 -3 l 1,35,-1
 24 -6 l 1,36,-1
 21 -6 l 1,37,-1
 18 -6 l 1,38,-1
 18 -9 l 1,39,-1
 18 -12 l 1,40,-1
 21 -12 l 1,41,-1
 24 -12 l 1,42,-1
 24 -15 l 1,43,-1
 24 -18 l 1,44,-1
 27 -18 l 1,45,-1
 30 -18 l 1,46,-1
 30 -15 l 1,47,-1
 30 -12 l 1,48,-1
 30 -9 l 1,49,-1
 30 -6 l 1,50,-1
 30 -3 l 1,51,-1
 30 0 l 1,52,-1
 30 3 l 1,53,-1
 30 6 l 1,54,-1
 27 6 l 1,55,-1
 24 6 l 1,0,-1
6 9 m 1,56,-1
 6 12 l 1,57,-1
 6 15 l 1,58,-1
 6 18 l 1,59,-1
 6 21 l 1,60,-1
 6 24 l 1,61,-1
 6 27 l 1,62,-1
 6 30 l 1,63,-1
 6 33 l 1,64,-1
 6 36 l 1,65,-1
 3 36 l 1,66,-1
 0 36 l 1,67,-1
 0 33 l 1,68,-1
 0 30 l 1,69,-1
 0 27 l 1,70,-1
 0 24 l 1,71,-1
 0 21 l 1,72,-1
 0 18 l 1,73,-1
 0 15 l 1,74,-1
 0 12 l 1,75,-1
 0 9 l 1,76,-1
 0 6 l 1,77,-1
 3 6 l 1,78,-1
 6 6 l 1,79,-1
 6 9 l 1,56,-1
12 -24 m 1,80,-1
 15 -24 l 1,81,-1
 18 -24 l 1,82,-1
 21 -24 l 1,83,-1
 24 -24 l 1,84,-1
 24 -21 l 1,85,-1
 24 -18 l 1,86,-1
 21 -18 l 1,87,-1
 18 -18 l 1,88,-1
 18 -15 l 1,89,-1
 18 -12 l 1,90,-1
 15 -12 l 1,91,-1
 12 -12 l 1,92,-1
 12 -15 l 1,93,-1
 12 -18 l 1,94,-1
 12 -21 l 1,95,-1
 12 -24 l 1,80,-1
30 15 m 1,96,-1
 30 12 l 1,97,-1
 30 9 l 1,98,-1
 30 6 l 1,99,-1
 33 6 l 1,100,-1
 36 6 l 1,101,-1
 36 9 l 1,102,-1
 36 12 l 1,103,-1
 36 15 l 1,104,-1
 36 18 l 1,105,-1
 33 18 l 1,106,-1
 30 18 l 1,107,-1
 30 15 l 1,96,-1
EndSplineSet
EndChar

StartChar: uni0447
Encoding: 1095 1095 66
Width: 42
GlyphClass: 1
Flags: W
LayerCount: 2
Fore
SplineSet
30 3 m 1,0,-1
 30 6 l 1,1,-1
 27 6 l 1,2,-1
 24 6 l 1,3,-1
 24 3 l 1,4,-1
 24 0 l 1,5,-1
 27 0 l 1,6,-1
 30 0 l 1,7,-1
 30 3 l 1,0,-1
36 15 m 1,8,-1
 36 18 l 1,9,-1
 33 18 l 1,10,-1
 30 18 l 1,11,-1
 30 15 l 1,12,-1
 30 12 l 1,13,-1
 30 9 l 1,14,-1
 30 6 l 1,15,-1
 33 6 l 1,16,-1
 36 6 l 1,17,-1
 36 9 l 1,18,-1
 36 12 l 1,19,-1
 36 15 l 1,8,-1
24 21 m 1,20,-1
 24 24 l 1,21,-1
 24 27 l 1,22,-1
 24 30 l 1,23,-1
 24 33 l 1,24,-1
 24 36 l 1,25,-1
 21 36 l 1,26,-1
 18 36 l 1,27,-1
 18 33 l 1,28,-1
 18 30 l 1,29,-1
 18 27 l 1,30,-1
 18 24 l 1,31,-1
 15 24 l 1,32,-1
 12 24 l 1,33,-1
 9 24 l 1,34,-1
 6 24 l 1,35,-1
 6 21 l 1,36,-1
 6 18 l 1,37,-1
 9 18 l 1,38,-1
 12 18 l 1,39,-1
 15 18 l 1,40,-1
 18 18 l 1,41,-1
 18 15 l 1,42,-1
 18 12 l 1,43,-1
 18 9 l 1,44,-1
 18 6 l 1,45,-1
 21 6 l 1,46,-1
 24 6 l 1,47,-1
 24 9 l 1,48,-1
 24 12 l 1,49,-1
 24 15 l 1,50,-1
 24 18 l 1,51,-1
 24 21 l 1,20,-1
0 33 m 1,52,-1
 0 30 l 1,53,-1
 0 27 l 1,54,-1
 0 24 l 1,55,-1
 3 24 l 1,56,-1
 6 24 l 1,57,-1
 6 27 l 1,58,-1
 6 30 l 1,59,-1
 6 33 l 1,60,-1
 6 36 l 1,61,-1
 3 36 l 1,62,-1
 0 36 l 1,63,-1
 0 33 l 1,52,-1
EndSplineSet
EndChar

StartChar: uni0448
Encoding: 1096 1096 67
Width: 60
GlyphClass: 1
Flags: W
LayerCount: 2
Fore
SplineSet
42 27 m 1,0,-1
 42 30 l 1,1,-1
 42 33 l 1,2,-1
 42 36 l 1,3,-1
 39 36 l 1,4,-1
 36 36 l 1,5,-1
 36 33 l 1,6,-1
 36 30 l 1,7,-1
 36 27 l 1,8,-1
 36 24 l 1,9,-1
 36 21 l 1,10,-1
 36 18 l 1,11,-1
 36 15 l 1,12,-1
 36 12 l 1,13,-1
 36 9 l 1,14,-1
 36 6 l 1,15,-1
 39 6 l 1,16,-1
 42 6 l 1,17,-1
 42 9 l 1,18,-1
 42 12 l 1,19,-1
 42 15 l 1,20,-1
 42 18 l 1,21,-1
 42 21 l 1,22,-1
 42 24 l 1,23,-1
 42 27 l 1,0,-1
54 9 m 1,24,-1
 54 12 l 1,25,-1
 54 15 l 1,26,-1
 54 18 l 1,27,-1
 51 18 l 1,28,-1
 48 18 l 1,29,-1
 48 15 l 1,30,-1
 48 12 l 1,31,-1
 48 9 l 1,32,-1
 48 6 l 1,33,-1
 51 6 l 1,34,-1
 54 6 l 1,35,-1
 54 9 l 1,24,-1
12 6 m 1,36,-1
 9 6 l 1,37,-1
 6 6 l 1,38,-1
 6 3 l 1,39,-1
 6 0 l 1,40,-1
 9 0 l 1,41,-1
 12 0 l 1,42,-1
 15 0 l 1,43,-1
 18 0 l 1,44,-1
 18 3 l 1,45,-1
 18 6 l 1,46,-1
 15 6 l 1,47,-1
 12 6 l 1,36,-1
42 0 m 1,48,-1
 45 0 l 1,49,-1
 48 0 l 1,50,-1
 48 3 l 1,51,-1
 48 6 l 1,52,-1
 45 6 l 1,53,-1
 42 6 l 1,54,-1
 42 3 l 1,55,-1
 42 0 l 1,48,-1
30 0 m 1,56,-1
 33 0 l 1,57,-1
 36 0 l 1,58,-1
 36 3 l 1,59,-1
 36 6 l 1,60,-1
 33 6 l 1,61,-1
 30 6 l 1,62,-1
 27 6 l 1,63,-1
 24 6 l 1,64,-1
 24 3 l 1,65,-1
 24 0 l 1,66,-1
 27 0 l 1,67,-1
 30 0 l 1,56,-1
18 21 m 1,68,-1
 18 18 l 1,69,-1
 18 15 l 1,70,-1
 18 12 l 1,71,-1
 18 9 l 1,72,-1
 18 6 l 1,73,-1
 21 6 l 1,74,-1
 24 6 l 1,75,-1
 24 9 l 1,76,-1
 24 12 l 1,77,-1
 24 15 l 1,78,-1
 24 18 l 1,79,-1
 24 21 l 1,80,-1
 24 24 l 1,81,-1
 21 24 l 1,82,-1
 18 24 l 1,83,-1
 18 21 l 1,68,-1
0 6 m 1,84,-1
 3 6 l 1,85,-1
 6 6 l 1,86,-1
 6 9 l 1,87,-1
 6 12 l 1,88,-1
 6 15 l 1,89,-1
 6 18 l 1,90,-1
 6 21 l 1,91,-1
 6 24 l 1,92,-1
 6 27 l 1,93,-1
 6 30 l 1,94,-1
 6 33 l 1,95,-1
 6 36 l 1,96,-1
 3 36 l 1,97,-1
 0 36 l 1,98,-1
 0 33 l 1,99,-1
 0 30 l 1,100,-1
 0 27 l 1,101,-1
 0 24 l 1,102,-1
 0 21 l 1,103,-1
 0 18 l 1,104,-1
 0 15 l 1,105,-1
 0 12 l 1,106,-1
 0 9 l 1,107,-1
 0 6 l 1,84,-1
EndSplineSet
EndChar

StartChar: uni0449
Encoding: 1097 1097 68
Width: 66
GlyphClass: 1
Flags: W
LayerCount: 2
Fore
SplineSet
54 -9 m 1,0,-1
 54 -6 l 1,1,-1
 54 -3 l 1,2,-1
 54 0 l 1,3,-1
 57 0 l 1,4,-1
 60 0 l 1,5,-1
 60 3 l 1,6,-1
 60 6 l 1,7,-1
 57 6 l 1,8,-1
 54 6 l 1,9,-1
 54 9 l 1,10,-1
 54 12 l 1,11,-1
 54 15 l 1,12,-1
 54 18 l 1,13,-1
 51 18 l 1,14,-1
 48 18 l 1,15,-1
 48 15 l 1,16,-1
 48 12 l 1,17,-1
 48 9 l 1,18,-1
 48 6 l 1,19,-1
 45 6 l 1,20,-1
 42 6 l 1,21,-1
 42 3 l 1,22,-1
 42 0 l 1,23,-1
 42 -3 l 1,24,-1
 42 -6 l 1,25,-1
 45 -6 l 1,26,-1
 48 -6 l 1,27,-1
 48 -9 l 1,28,-1
 48 -12 l 1,29,-1
 51 -12 l 1,30,-1
 54 -12 l 1,31,-1
 54 -9 l 1,0,-1
48 -15 m 1,32,-1
 48 -12 l 1,33,-1
 45 -12 l 1,34,-1
 42 -12 l 1,35,-1
 42 -9 l 1,36,-1
 42 -6 l 1,37,-1
 39 -6 l 1,38,-1
 36 -6 l 1,39,-1
 36 -9 l 1,40,-1
 36 -12 l 1,41,-1
 36 -15 l 1,42,-1
 36 -18 l 1,43,-1
 39 -18 l 1,44,-1
 42 -18 l 1,45,-1
 45 -18 l 1,46,-1
 48 -18 l 1,47,-1
 48 -15 l 1,32,-1
12 6 m 1,48,-1
 9 6 l 1,49,-1
 6 6 l 1,50,-1
 6 3 l 1,51,-1
 6 0 l 1,52,-1
 9 0 l 1,53,-1
 12 0 l 1,54,-1
 15 0 l 1,55,-1
 18 0 l 1,56,-1
 18 3 l 1,57,-1
 18 6 l 1,58,-1
 15 6 l 1,59,-1
 12 6 l 1,48,-1
36 33 m 1,60,-1
 36 30 l 1,61,-1
 36 27 l 1,62,-1
 36 24 l 1,63,-1
 36 21 l 1,64,-1
 36 18 l 1,65,-1
 36 15 l 1,66,-1
 36 12 l 1,67,-1
 36 9 l 1,68,-1
 36 6 l 1,69,-1
 39 6 l 1,70,-1
 42 6 l 1,71,-1
 42 9 l 1,72,-1
 42 12 l 1,73,-1
 42 15 l 1,74,-1
 42 18 l 1,75,-1
 42 21 l 1,76,-1
 42 24 l 1,77,-1
 42 27 l 1,78,-1
 42 30 l 1,79,-1
 42 33 l 1,80,-1
 42 36 l 1,81,-1
 39 36 l 1,82,-1
 36 36 l 1,83,-1
 36 33 l 1,60,-1
0 6 m 1,84,-1
 3 6 l 1,85,-1
 6 6 l 1,86,-1
 6 9 l 1,87,-1
 6 12 l 1,88,-1
 6 15 l 1,89,-1
 6 18 l 1,90,-1
 6 21 l 1,91,-1
 6 24 l 1,92,-1
 6 27 l 1,93,-1
 6 30 l 1,94,-1
 6 33 l 1,95,-1
 6 36 l 1,96,-1
 3 36 l 1,97,-1
 0 36 l 1,98,-1
 0 33 l 1,99,-1
 0 30 l 1,100,-1
 0 27 l 1,101,-1
 0 24 l 1,102,-1
 0 21 l 1,103,-1
 0 18 l 1,104,-1
 0 15 l 1,105,-1
 0 12 l 1,106,-1
 0 9 l 1,107,-1
 0 6 l 1,84,-1
30 0 m 1,108,-1
 33 0 l 1,109,-1
 36 0 l 1,110,-1
 36 3 l 1,111,-1
 36 6 l 1,112,-1
 33 6 l 1,113,-1
 30 6 l 1,114,-1
 27 6 l 1,115,-1
 24 6 l 1,116,-1
 24 3 l 1,117,-1
 24 0 l 1,118,-1
 27 0 l 1,119,-1
 30 0 l 1,108,-1
18 21 m 1,120,-1
 18 18 l 1,121,-1
 18 15 l 1,122,-1
 18 12 l 1,123,-1
 18 9 l 1,124,-1
 18 6 l 1,125,-1
 21 6 l 1,126,-1
 24 6 l 1,127,-1
 24 9 l 1,128,-1
 24 12 l 1,129,-1
 24 15 l 1,130,-1
 24 18 l 1,131,-1
 24 21 l 1,132,-1
 24 24 l 1,133,-1
 21 24 l 1,134,-1
 18 24 l 1,135,-1
 18 21 l 1,120,-1
EndSplineSet
EndChar

StartChar: uni044A
Encoding: 1098 1098 69
Width: 42
GlyphClass: 1
Flags: W
LayerCount: 2
Fore
SplineSet
18 21 m 1,0,-1
 18 24 l 1,1,-1
 18 27 l 1,2,-1
 18 30 l 1,3,-1
 18 33 l 1,4,-1
 18 36 l 1,5,-1
 15 36 l 1,6,-1
 12 36 l 1,7,-1
 9 36 l 1,8,-1
 6 36 l 1,9,-1
 6 33 l 1,10,-1
 6 30 l 1,11,-1
 9 30 l 1,12,-1
 12 30 l 1,13,-1
 12 27 l 1,14,-1
 12 24 l 1,15,-1
 12 21 l 1,16,-1
 12 18 l 1,17,-1
 12 15 l 1,18,-1
 12 12 l 1,19,-1
 12 9 l 1,20,-1
 12 6 l 1,21,-1
 15 6 l 1,22,-1
 18 6 l 1,23,-1
 18 9 l 1,24,-1
 18 12 l 1,25,-1
 21 12 l 1,26,-1
 24 12 l 1,27,-1
 27 12 l 1,28,-1
 30 12 l 1,29,-1
 30 15 l 1,30,-1
 30 18 l 1,31,-1
 27 18 l 1,32,-1
 24 18 l 1,33,-1
 21 18 l 1,34,-1
 18 18 l 1,35,-1
 18 21 l 1,0,-1
18 0 m 1,36,-1
 21 0 l 1,37,-1
 24 0 l 1,38,-1
 27 0 l 1,39,-1
 30 0 l 1,40,-1
 30 3 l 1,41,-1
 30 6 l 1,42,-1
 27 6 l 1,43,-1
 24 6 l 1,44,-1
 21 6 l 1,45,-1
 18 6 l 1,46,-1
 18 3 l 1,47,-1
 18 0 l 1,36,-1
30 6 m 1,48,-1
 33 6 l 1,49,-1
 36 6 l 1,50,-1
 36 9 l 1,51,-1
 36 12 l 1,52,-1
 33 12 l 1,53,-1
 30 12 l 1,54,-1
 30 9 l 1,55,-1
 30 6 l 1,48,-1
3 30 m 1,56,-1
 0 30 l 1,57,-1
 0 27 l 1,58,-1
 0 24 l 1,59,-1
 3 24 l 1,60,-1
 6 24 l 1,61,-1
 6 27 l 1,62,-1
 6 30 l 1,63,-1
 3 30 l 1,56,-1
EndSplineSet
EndChar

StartChar: uni044B
Encoding: 1099 1099 70
Width: 48
GlyphClass: 1
Flags: W
LayerCount: 2
Fore
SplineSet
24 30 m 1,0,-1
 21 30 l 1,1,-1
 18 30 l 1,2,-1
 18 27 l 1,3,-1
 18 24 l 1,4,-1
 21 24 l 1,5,-1
 24 24 l 1,6,-1
 24 21 l 1,7,-1
 24 18 l 1,8,-1
 24 15 l 1,9,-1
 24 12 l 1,10,-1
 24 9 l 1,11,-1
 24 6 l 1,12,-1
 27 6 l 1,13,-1
 30 6 l 1,14,-1
 30 9 l 1,15,-1
 30 12 l 1,16,-1
 30 15 l 1,17,-1
 30 18 l 1,18,-1
 30 21 l 1,19,-1
 30 24 l 1,20,-1
 30 27 l 1,21,-1
 30 30 l 1,22,-1
 30 33 l 1,23,-1
 30 36 l 1,24,-1
 27 36 l 1,25,-1
 24 36 l 1,26,-1
 24 33 l 1,27,-1
 24 30 l 1,0,-1
18 9 m 1,28,-1
 18 12 l 1,29,-1
 18 15 l 1,30,-1
 18 18 l 1,31,-1
 18 21 l 1,32,-1
 18 24 l 1,33,-1
 15 24 l 1,34,-1
 12 24 l 1,35,-1
 9 24 l 1,36,-1
 6 24 l 1,37,-1
 6 27 l 1,38,-1
 6 30 l 1,39,-1
 6 33 l 1,40,-1
 6 36 l 1,41,-1
 3 36 l 1,42,-1
 0 36 l 1,43,-1
 0 33 l 1,44,-1
 0 30 l 1,45,-1
 0 27 l 1,46,-1
 0 24 l 1,47,-1
 0 21 l 1,48,-1
 0 18 l 1,49,-1
 0 15 l 1,50,-1
 0 12 l 1,51,-1
 0 9 l 1,52,-1
 0 6 l 1,53,-1
 0 3 l 1,54,-1
 0 0 l 1,55,-1
 3 0 l 1,56,-1
 6 0 l 1,57,-1
 9 0 l 1,58,-1
 12 0 l 1,59,-1
 12 3 l 1,60,-1
 12 6 l 1,61,-1
 9 6 l 1,62,-1
 6 6 l 1,63,-1
 6 9 l 1,64,-1
 6 12 l 1,65,-1
 6 15 l 1,66,-1
 6 18 l 1,67,-1
 9 18 l 1,68,-1
 12 18 l 1,69,-1
 12 15 l 1,70,-1
 12 12 l 1,71,-1
 12 9 l 1,72,-1
 12 6 l 1,73,-1
 15 6 l 1,74,-1
 18 6 l 1,75,-1
 18 9 l 1,28,-1
30 0 m 1,76,-1
 33 0 l 1,77,-1
 36 0 l 1,78,-1
 36 3 l 1,79,-1
 36 6 l 1,80,-1
 33 6 l 1,81,-1
 30 6 l 1,82,-1
 30 3 l 1,83,-1
 30 0 l 1,76,-1
36 6 m 1,84,-1
 39 6 l 1,85,-1
 42 6 l 1,86,-1
 42 9 l 1,87,-1
 42 12 l 1,88,-1
 42 15 l 1,89,-1
 42 18 l 1,90,-1
 39 18 l 1,91,-1
 36 18 l 1,92,-1
 36 15 l 1,93,-1
 36 12 l 1,94,-1
 36 9 l 1,95,-1
 36 6 l 1,84,-1
EndSplineSet
EndChar

StartChar: uni044C
Encoding: 1100 1100 71
Width: 30
GlyphClass: 1
Flags: W
LayerCount: 2
Fore
SplineSet
0 24 m 1,0,-1
 0 21 l 1,1,-1
 0 18 l 1,2,-1
 0 15 l 1,3,-1
 0 12 l 1,4,-1
 0 9 l 1,5,-1
 0 6 l 1,6,-1
 3 6 l 1,7,-1
 6 6 l 1,8,-1
 6 9 l 1,9,-1
 6 12 l 1,10,-1
 9 12 l 1,11,-1
 12 12 l 1,12,-1
 15 12 l 1,13,-1
 18 12 l 1,14,-1
 18 15 l 1,15,-1
 18 18 l 1,16,-1
 15 18 l 1,17,-1
 12 18 l 1,18,-1
 9 18 l 1,19,-1
 6 18 l 1,20,-1
 6 21 l 1,21,-1
 6 24 l 1,22,-1
 6 27 l 1,23,-1
 6 30 l 1,24,-1
 6 33 l 1,25,-1
 6 36 l 1,26,-1
 3 36 l 1,27,-1
 0 36 l 1,28,-1
 0 33 l 1,29,-1
 0 30 l 1,30,-1
 0 27 l 1,31,-1
 0 24 l 1,0,-1
6 0 m 1,32,-1
 9 0 l 1,33,-1
 12 0 l 1,34,-1
 15 0 l 1,35,-1
 18 0 l 1,36,-1
 18 3 l 1,37,-1
 18 6 l 1,38,-1
 15 6 l 1,39,-1
 12 6 l 1,40,-1
 9 6 l 1,41,-1
 6 6 l 1,42,-1
 6 3 l 1,43,-1
 6 0 l 1,32,-1
18 6 m 1,44,-1
 21 6 l 1,45,-1
 24 6 l 1,46,-1
 24 9 l 1,47,-1
 24 12 l 1,48,-1
 21 12 l 1,49,-1
 18 12 l 1,50,-1
 18 9 l 1,51,-1
 18 6 l 1,44,-1
EndSplineSet
EndChar

StartChar: uni044D
Encoding: 1101 1101 72
Width: 30
GlyphClass: 1
Flags: W
LayerCount: 2
Fore
SplineSet
18 6 m 1,0,-1
 21 6 l 1,1,-1
 24 6 l 1,2,-1
 24 9 l 1,3,-1
 24 12 l 1,4,-1
 24 15 l 1,5,-1
 24 18 l 1,6,-1
 24 21 l 1,7,-1
 24 24 l 1,8,-1
 24 27 l 1,9,-1
 24 30 l 1,10,-1
 21 30 l 1,11,-1
 18 30 l 1,12,-1
 18 27 l 1,13,-1
 18 24 l 1,14,-1
 18 21 l 1,15,-1
 18 18 l 1,16,-1
 15 18 l 1,17,-1
 12 18 l 1,18,-1
 12 15 l 1,19,-1
 12 12 l 1,20,-1
 15 12 l 1,21,-1
 18 12 l 1,22,-1
 18 9 l 1,23,-1
 18 6 l 1,0,-1
18 3 m 1,24,-1
 18 6 l 1,25,-1
 15 6 l 1,26,-1
 12 6 l 1,27,-1
 9 6 l 1,28,-1
 6 6 l 1,29,-1
 6 3 l 1,30,-1
 6 0 l 1,31,-1
 9 0 l 1,32,-1
 12 0 l 1,33,-1
 15 0 l 1,34,-1
 18 0 l 1,35,-1
 18 3 l 1,24,-1
6 9 m 1,36,-1
 6 12 l 1,37,-1
 3 12 l 1,38,-1
 0 12 l 1,39,-1
 0 9 l 1,40,-1
 0 6 l 1,41,-1
 3 6 l 1,42,-1
 6 6 l 1,43,-1
 6 9 l 1,36,-1
6 18 m 1,44,-1
 9 18 l 1,45,-1
 12 18 l 1,46,-1
 12 21 l 1,47,-1
 12 24 l 1,48,-1
 9 24 l 1,49,-1
 6 24 l 1,50,-1
 3 24 l 1,51,-1
 0 24 l 1,52,-1
 0 21 l 1,53,-1
 0 18 l 1,54,-1
 3 18 l 1,55,-1
 6 18 l 1,44,-1
12 30 m 1,56,-1
 15 30 l 1,57,-1
 18 30 l 1,58,-1
 18 33 l 1,59,-1
 18 36 l 1,60,-1
 15 36 l 1,61,-1
 12 36 l 1,62,-1
 12 33 l 1,63,-1
 12 30 l 1,56,-1
6 36 m 1,64,-1
 9 36 l 1,65,-1
 12 36 l 1,66,-1
 12 39 l 1,67,-1
 12 42 l 1,68,-1
 9 42 l 1,69,-1
 6 42 l 1,70,-1
 6 39 l 1,71,-1
 6 36 l 1,64,-1
0 30 m 1,72,-1
 3 30 l 1,73,-1
 6 30 l 1,74,-1
 6 33 l 1,75,-1
 6 36 l 1,76,-1
 3 36 l 1,77,-1
 0 36 l 1,78,-1
 0 33 l 1,79,-1
 0 30 l 1,72,-1
EndSplineSet
EndChar

StartChar: uni044E
Encoding: 1102 1102 73
Width: 54
GlyphClass: 1
Flags: W
LayerCount: 2
Fore
SplineSet
18 21 m 1,0,-1
 18 18 l 1,1,-1
 15 18 l 1,2,-1
 12 18 l 1,3,-1
 9 18 l 1,4,-1
 6 18 l 1,5,-1
 6 21 l 1,6,-1
 6 24 l 1,7,-1
 6 27 l 1,8,-1
 6 30 l 1,9,-1
 6 33 l 1,10,-1
 6 36 l 1,11,-1
 3 36 l 1,12,-1
 0 36 l 1,13,-1
 0 33 l 1,14,-1
 0 30 l 1,15,-1
 0 27 l 1,16,-1
 0 24 l 1,17,-1
 0 21 l 1,18,-1
 0 18 l 1,19,-1
 0 15 l 1,20,-1
 0 12 l 1,21,-1
 0 9 l 1,22,-1
 0 6 l 1,23,-1
 0 3 l 1,24,-1
 0 0 l 1,25,-1
 3 0 l 1,26,-1
 6 0 l 1,27,-1
 6 3 l 1,28,-1
 6 6 l 1,29,-1
 6 9 l 1,30,-1
 6 12 l 1,31,-1
 9 12 l 1,32,-1
 12 12 l 1,33,-1
 15 12 l 1,34,-1
 18 12 l 1,35,-1
 18 9 l 1,36,-1
 18 6 l 1,37,-1
 21 6 l 1,38,-1
 24 6 l 1,39,-1
 24 9 l 1,40,-1
 24 12 l 1,41,-1
 24 15 l 1,42,-1
 24 18 l 1,43,-1
 24 21 l 1,44,-1
 24 24 l 1,45,-1
 21 24 l 1,46,-1
 18 24 l 1,47,-1
 18 21 l 1,0,-1
24 0 m 1,48,-1
 27 0 l 1,49,-1
 30 0 l 1,50,-1
 33 0 l 1,51,-1
 36 0 l 1,52,-1
 39 0 l 1,53,-1
 42 0 l 1,54,-1
 42 3 l 1,55,-1
 42 6 l 1,56,-1
 39 6 l 1,57,-1
 36 6 l 1,58,-1
 33 6 l 1,59,-1
 30 6 l 1,60,-1
 27 6 l 1,61,-1
 24 6 l 1,62,-1
 24 3 l 1,63,-1
 24 0 l 1,48,-1
42 6 m 1,64,-1
 45 6 l 1,65,-1
 48 6 l 1,66,-1
 48 9 l 1,67,-1
 48 12 l 1,68,-1
 48 15 l 1,69,-1
 48 18 l 1,70,-1
 48 21 l 1,71,-1
 48 24 l 1,72,-1
 48 27 l 1,73,-1
 48 30 l 1,74,-1
 45 30 l 1,75,-1
 42 30 l 1,76,-1
 42 27 l 1,77,-1
 42 24 l 1,78,-1
 42 21 l 1,79,-1
 42 18 l 1,80,-1
 42 15 l 1,81,-1
 42 12 l 1,82,-1
 42 9 l 1,83,-1
 42 6 l 1,64,-1
24 24 m 1,84,-1
 27 24 l 1,85,-1
 30 24 l 1,86,-1
 30 27 l 1,87,-1
 30 30 l 1,88,-1
 27 30 l 1,89,-1
 24 30 l 1,90,-1
 24 27 l 1,91,-1
 24 24 l 1,84,-1
30 30 m 1,92,-1
 33 30 l 1,93,-1
 36 30 l 1,94,-1
 39 30 l 1,95,-1
 42 30 l 1,96,-1
 42 33 l 1,97,-1
 42 36 l 1,98,-1
 39 36 l 1,99,-1
 36 36 l 1,100,-1
 33 36 l 1,101,-1
 30 36 l 1,102,-1
 30 33 l 1,103,-1
 30 30 l 1,92,-1
EndSplineSet
EndChar

StartChar: uni044F
Encoding: 1103 1103 74
Width: 60
GlyphClass: 1
Flags: W
LayerCount: 2
Fore
SplineSet
33 0 m 1,0,-1
 36 0 l 1,1,-1
 39 0 l 1,2,-1
 42 0 l 1,3,-1
 42 3 l 1,4,-1
 42 6 l 1,5,-1
 39 6 l 1,6,-1
 36 6 l 1,7,-1
 36 9 l 1,8,-1
 36 12 l 1,9,-1
 36 15 l 1,10,-1
 36 18 l 1,11,-1
 36 21 l 1,12,-1
 36 24 l 1,13,-1
 36 27 l 1,14,-1
 36 30 l 1,15,-1
 36 33 l 1,16,-1
 36 36 l 1,17,-1
 33 36 l 1,18,-1
 30 36 l 1,19,-1
 27 36 l 1,20,-1
 24 36 l 1,21,-1
 21 36 l 1,22,-1
 18 36 l 1,23,-1
 18 33 l 1,24,-1
 18 30 l 1,25,-1
 21 30 l 1,26,-1
 24 30 l 1,27,-1
 27 30 l 1,28,-1
 30 30 l 1,29,-1
 30 27 l 1,30,-1
 30 24 l 1,31,-1
 27 24 l 1,32,-1
 24 24 l 1,33,-1
 21 24 l 1,34,-1
 18 24 l 1,35,-1
 18 21 l 1,36,-1
 18 18 l 1,37,-1
 18 15 l 1,38,-1
 18 12 l 1,39,-1
 18 9 l 1,40,-1
 18 6 l 1,41,-1
 21 6 l 1,42,-1
 24 6 l 1,43,-1
 24 9 l 1,44,-1
 24 12 l 1,45,-1
 24 15 l 1,46,-1
 24 18 l 1,47,-1
 27 18 l 1,48,-1
 30 18 l 1,49,-1
 30 15 l 1,50,-1
 30 12 l 1,51,-1
 30 9 l 1,52,-1
 30 6 l 1,53,-1
 30 3 l 1,54,-1
 30 0 l 1,55,-1
 33 0 l 1,0,-1
42 6 m 1,56,-1
 45 6 l 1,57,-1
 48 6 l 1,58,-1
 48 9 l 1,59,-1
 48 12 l 1,60,-1
 45 12 l 1,61,-1
 42 12 l 1,62,-1
 42 9 l 1,63,-1
 42 6 l 1,56,-1
48 12 m 1,64,-1
 51 12 l 1,65,-1
 54 12 l 1,66,-1
 54 15 l 1,67,-1
 54 18 l 1,68,-1
 54 21 l 1,69,-1
 54 24 l 1,70,-1
 51 24 l 1,71,-1
 48 24 l 1,72,-1
 48 21 l 1,73,-1
 48 18 l 1,74,-1
 48 15 l 1,75,-1
 48 12 l 1,64,-1
12 24 m 1,76,-1
 15 24 l 1,77,-1
 18 24 l 1,78,-1
 18 27 l 1,79,-1
 18 30 l 1,80,-1
 15 30 l 1,81,-1
 12 30 l 1,82,-1
 12 27 l 1,83,-1
 12 24 l 1,76,-1
12 0 m 1,84,-1
 15 0 l 1,85,-1
 18 0 l 1,86,-1
 18 3 l 1,87,-1
 18 6 l 1,88,-1
 15 6 l 1,89,-1
 12 6 l 1,90,-1
 9 6 l 1,91,-1
 6 6 l 1,92,-1
 6 3 l 1,93,-1
 6 0 l 1,94,-1
 9 0 l 1,95,-1
 12 0 l 1,84,-1
0 6 m 1,96,-1
 3 6 l 1,97,-1
 6 6 l 1,98,-1
 6 9 l 1,99,-1
 6 12 l 1,100,-1
 3 12 l 1,101,-1
 0 12 l 1,102,-1
 0 9 l 1,103,-1
 0 6 l 1,96,-1
EndSplineSet
EndChar

StartChar: uni0451
Encoding: 1105 1105 75
Width: 30
GlyphClass: 1
Flags: W
LayerCount: 2
Fore
SplineSet
0 12 m 1,0,-1
 0 9 l 1,1,-1
 0 6 l 1,2,-1
 3 6 l 1,3,-1
 6 6 l 1,4,-1
 6 9 l 1,5,-1
 6 12 l 1,6,-1
 9 12 l 1,7,-1
 12 12 l 1,8,-1
 12 15 l 1,9,-1
 12 18 l 1,10,-1
 9 18 l 1,11,-1
 6 18 l 1,12,-1
 6 21 l 1,13,-1
 6 24 l 1,14,-1
 6 27 l 1,15,-1
 6 30 l 1,16,-1
 3 30 l 1,17,-1
 0 30 l 1,18,-1
 0 27 l 1,19,-1
 0 24 l 1,20,-1
 0 21 l 1,21,-1
 0 18 l 1,22,-1
 0 15 l 1,23,-1
 0 12 l 1,0,-1
12 6 m 1,24,-1
 9 6 l 1,25,-1
 6 6 l 1,26,-1
 6 3 l 1,27,-1
 6 0 l 1,28,-1
 9 0 l 1,29,-1
 12 0 l 1,30,-1
 15 0 l 1,31,-1
 18 0 l 1,32,-1
 18 3 l 1,33,-1
 18 6 l 1,34,-1
 15 6 l 1,35,-1
 12 6 l 1,24,-1
18 21 m 1,36,-1
 18 24 l 1,37,-1
 15 24 l 1,38,-1
 12 24 l 1,39,-1
 12 21 l 1,40,-1
 12 18 l 1,41,-1
 15 18 l 1,42,-1
 18 18 l 1,43,-1
 18 21 l 1,36,-1
24 9 m 1,44,-1
 24 12 l 1,45,-1
 21 12 l 1,46,-1
 18 12 l 1,47,-1
 18 9 l 1,48,-1
 18 6 l 1,49,-1
 21 6 l 1,50,-1
 24 6 l 1,51,-1
 24 9 l 1,44,-1
6 30 m 1,52,-1
 9 30 l 1,53,-1
 12 30 l 1,54,-1
 15 30 l 1,55,-1
 18 30 l 1,56,-1
 18 33 l 1,57,-1
 18 36 l 1,58,-1
 15 36 l 1,59,-1
 12 36 l 1,60,-1
 9 36 l 1,61,-1
 6 36 l 1,62,-1
 6 33 l 1,63,-1
 6 30 l 1,52,-1
18 24 m 1,64,-1
 21 24 l 1,65,-1
 24 24 l 1,66,-1
 24 27 l 1,67,-1
 24 30 l 1,68,-1
 21 30 l 1,69,-1
 18 30 l 1,70,-1
 18 27 l 1,71,-1
 18 24 l 1,64,-1
0 42 m 1,72,-1
 3 42 l 1,73,-1
 6 42 l 1,74,-1
 6 45 l 1,75,-1
 6 48 l 1,76,-1
 3 48 l 1,77,-1
 0 48 l 1,78,-1
 0 45 l 1,79,-1
 0 42 l 1,72,-1
18 42 m 1,80,-1
 21 42 l 1,81,-1
 24 42 l 1,82,-1
 24 45 l 1,83,-1
 24 48 l 1,84,-1
 21 48 l 1,85,-1
 18 48 l 1,86,-1
 18 45 l 1,87,-1
 18 42 l 1,80,-1
EndSplineSet
EndChar

StartChar: exclam
Encoding: 33 33 77
Width: 12
GlyphClass: 1
Flags: W
LayerCount: 2
Fore
SplineSet
3 6 m 1,0,-1
 0 6 l 1,1,-1
 0 3 l 1,2,-1
 0 0 l 1,3,-1
 3 0 l 1,4,-1
 6 0 l 1,5,-1
 6 3 l 1,6,-1
 6 6 l 1,7,-1
 3 6 l 1,0,-1
0 39 m 1,8,-1
 0 36 l 1,9,-1
 0 33 l 1,10,-1
 0 30 l 1,11,-1
 0 27 l 1,12,-1
 0 24 l 1,13,-1
 0 21 l 1,14,-1
 0 18 l 1,15,-1
 0 15 l 1,16,-1
 0 12 l 1,17,-1
 3 12 l 1,18,-1
 6 12 l 1,19,-1
 6 15 l 1,20,-1
 6 18 l 1,21,-1
 6 21 l 1,22,-1
 6 24 l 1,23,-1
 6 27 l 1,24,-1
 6 30 l 1,25,-1
 6 33 l 1,26,-1
 6 36 l 1,27,-1
 6 39 l 1,28,-1
 6 42 l 1,29,-1
 6 45 l 1,30,-1
 6 48 l 1,31,-1
 3 48 l 1,32,-1
 0 48 l 1,33,-1
 0 45 l 1,34,-1
 0 42 l 1,35,-1
 0 39 l 1,8,-1
EndSplineSet
EndChar

StartChar: quotedbl
Encoding: 34 34 78
Width: 24
GlyphClass: 1
Flags: W
LayerCount: 2
Fore
SplineSet
15 48 m 1,0,-1
 12 48 l 1,1,-1
 12 45 l 1,2,-1
 12 42 l 1,3,-1
 12 39 l 1,4,-1
 12 36 l 1,5,-1
 15 36 l 1,6,-1
 18 36 l 1,7,-1
 18 39 l 1,8,-1
 18 42 l 1,9,-1
 18 45 l 1,10,-1
 18 48 l 1,11,-1
 15 48 l 1,0,-1
6 42 m 1,12,-1
 6 45 l 1,13,-1
 6 48 l 1,14,-1
 3 48 l 1,15,-1
 0 48 l 1,16,-1
 0 45 l 1,17,-1
 0 42 l 1,18,-1
 0 39 l 1,19,-1
 0 36 l 1,20,-1
 3 36 l 1,21,-1
 6 36 l 1,22,-1
 6 39 l 1,23,-1
 6 42 l 1,12,-1
EndSplineSet
EndChar

StartChar: numbersign
Encoding: 35 35 79
Width: 48
GlyphClass: 1
Flags: W
LayerCount: 2
Fore
SplineSet
27 45 m 1,0,-1
 27 42 l 1,1,-1
 27 39 l 1,2,-1
 27 36 l 1,3,-1
 24 36 l 1,4,-1
 21 36 l 1,5,-1
 18 36 l 1,6,-1
 15 36 l 1,7,-1
 15 39 l 1,8,-1
 15 42 l 1,9,-1
 15 45 l 1,10,-1
 15 48 l 1,11,-1
 12 48 l 1,12,-1
 9 48 l 1,13,-1
 9 45 l 1,14,-1
 9 42 l 1,15,-1
 9 39 l 1,16,-1
 9 36 l 1,17,-1
 6 36 l 1,18,-1
 3 36 l 1,19,-1
 0 36 l 1,20,-1
 0 33 l 1,21,-1
 0 30 l 1,22,-1
 3 30 l 1,23,-1
 6 30 l 1,24,-1
 9 30 l 1,25,-1
 9 27 l 1,26,-1
 9 24 l 1,27,-1
 9 21 l 1,28,-1
 9 18 l 1,29,-1
 6 18 l 1,30,-1
 3 18 l 1,31,-1
 0 18 l 1,32,-1
 0 15 l 1,33,-1
 0 12 l 1,34,-1
 3 12 l 1,35,-1
 6 12 l 1,36,-1
 9 12 l 1,37,-1
 9 9 l 1,38,-1
 9 6 l 1,39,-1
 9 3 l 1,40,-1
 9 0 l 1,41,-1
 12 0 l 1,42,-1
 15 0 l 1,43,-1
 15 3 l 1,44,-1
 15 6 l 1,45,-1
 15 9 l 1,46,-1
 15 12 l 1,47,-1
 18 12 l 1,48,-1
 21 12 l 1,49,-1
 24 12 l 1,50,-1
 27 12 l 1,51,-1
 27 9 l 1,52,-1
 27 6 l 1,53,-1
 27 3 l 1,54,-1
 27 0 l 1,55,-1
 30 0 l 1,56,-1
 33 0 l 1,57,-1
 33 3 l 1,58,-1
 33 6 l 1,59,-1
 33 9 l 1,60,-1
 33 12 l 1,61,-1
 36 12 l 1,62,-1
 39 12 l 1,63,-1
 42 12 l 1,64,-1
 42 15 l 1,65,-1
 42 18 l 1,66,-1
 39 18 l 1,67,-1
 36 18 l 1,68,-1
 33 18 l 1,69,-1
 33 21 l 1,70,-1
 33 24 l 1,71,-1
 33 27 l 1,72,-1
 33 30 l 1,73,-1
 36 30 l 1,74,-1
 39 30 l 1,75,-1
 42 30 l 1,76,-1
 42 33 l 1,77,-1
 42 36 l 1,78,-1
 39 36 l 1,79,-1
 36 36 l 1,80,-1
 33 36 l 1,81,-1
 33 39 l 1,82,-1
 33 42 l 1,83,-1
 33 45 l 1,84,-1
 33 48 l 1,85,-1
 30 48 l 1,86,-1
 27 48 l 1,87,-1
 27 45 l 1,0,-1
27 18 m 1,88,-1
 24 18 l 1,89,-1
 21 18 l 1,90,-1
 18 18 l 1,91,-1
 15 18 l 1,92,-1
 15 21 l 1,93,-1
 15 24 l 1,94,-1
 15 27 l 1,95,-1
 15 30 l 1,96,-1
 18 30 l 1,97,-1
 21 30 l 1,98,-1
 24 30 l 1,99,-1
 27 30 l 1,100,-1
 27 27 l 1,101,-1
 27 24 l 1,102,-1
 27 21 l 1,103,-1
 27 18 l 1,88,-1
EndSplineSet
EndChar

StartChar: comma
Encoding: 44 44 80
Width: 12
GlyphClass: 1
Flags: W
LayerCount: 2
Fore
SplineSet
-3 -6 m 1,0,-1
 -6 -6 l 1,1,-1
 -6 -9 l 1,2,-1
 -6 -12 l 1,3,-1
 -3 -12 l 1,4,-1
 0 -12 l 1,5,-1
 0 -9 l 1,6,-1
 0 -6 l 1,7,-1
 -3 -6 l 1,0,-1
0 -6 m 1,8,-1
 3 -6 l 1,9,-1
 6 -6 l 1,10,-1
 6 -3 l 1,11,-1
 6 0 l 1,12,-1
 6 3 l 1,13,-1
 6 6 l 1,14,-1
 3 6 l 1,15,-1
 0 6 l 1,16,-1
 0 3 l 1,17,-1
 0 0 l 1,18,-1
 0 -3 l 1,19,-1
 0 -6 l 1,8,-1
EndSplineSet
EndChar

StartChar: hyphen
Encoding: 45 45 81
Width: 24
GlyphClass: 1
Flags: W
LayerCount: 2
Fore
SplineSet
3 15 m 1,0,-1
 0 15 l 1,1,-1
 0 12 l 1,2,-1
 0 9 l 1,3,-1
 3 9 l 1,4,-1
 6 9 l 1,5,-1
 9 9 l 1,6,-1
 12 9 l 1,7,-1
 15 9 l 1,8,-1
 18 9 l 1,9,-1
 18 12 l 1,10,-1
 18 15 l 1,11,-1
 15 15 l 1,12,-1
 12 15 l 1,13,-1
 9 15 l 1,14,-1
 6 15 l 1,15,-1
 3 15 l 1,0,-1
EndSplineSet
EndChar

StartChar: period
Encoding: 46 46 82
Width: 12
GlyphClass: 1
Flags: W
LayerCount: 2
Fore
SplineSet
3 6 m 1,0,-1
 0 6 l 1,1,-1
 0 3 l 1,2,-1
 0 0 l 1,3,-1
 3 0 l 1,4,-1
 6 0 l 1,5,-1
 6 3 l 1,6,-1
 6 6 l 1,7,-1
 3 6 l 1,0,-1
EndSplineSet
EndChar

StartChar: slash
Encoding: 47 47 83
Width: 30
GlyphClass: 1
Flags: W
LayerCount: 2
Fore
SplineSet
3 12 m 1,0,-1
 0 12 l 1,1,-1
 0 9 l 1,2,-1
 0 6 l 1,3,-1
 0 3 l 1,4,-1
 0 0 l 1,5,-1
 3 0 l 1,6,-1
 6 0 l 1,7,-1
 6 3 l 1,8,-1
 6 6 l 1,9,-1
 6 9 l 1,10,-1
 6 12 l 1,11,-1
 3 12 l 1,0,-1
6 12 m 1,12,-1
 9 12 l 1,13,-1
 12 12 l 1,14,-1
 12 15 l 1,15,-1
 12 18 l 1,16,-1
 12 21 l 1,17,-1
 12 24 l 1,18,-1
 9 24 l 1,19,-1
 6 24 l 1,20,-1
 6 21 l 1,21,-1
 6 18 l 1,22,-1
 6 15 l 1,23,-1
 6 12 l 1,12,-1
12 30 m 1,24,-1
 12 27 l 1,25,-1
 12 24 l 1,26,-1
 15 24 l 1,27,-1
 18 24 l 1,28,-1
 18 27 l 1,29,-1
 18 30 l 1,30,-1
 18 33 l 1,31,-1
 18 36 l 1,32,-1
 15 36 l 1,33,-1
 12 36 l 1,34,-1
 12 33 l 1,35,-1
 12 30 l 1,24,-1
24 45 m 1,36,-1
 24 48 l 1,37,-1
 21 48 l 1,38,-1
 18 48 l 1,39,-1
 18 45 l 1,40,-1
 18 42 l 1,41,-1
 18 39 l 1,42,-1
 18 36 l 1,43,-1
 21 36 l 1,44,-1
 24 36 l 1,45,-1
 24 39 l 1,46,-1
 24 42 l 1,47,-1
 24 45 l 1,36,-1
EndSplineSet
EndChar

StartChar: zero
Encoding: 48 48 84
Width: 30
GlyphClass: 1
Flags: W
LayerCount: 2
Fore
SplineSet
0 6 m 1,0,-1
 3 6 l 1,1,-1
 6 6 l 1,2,-1
 6 9 l 1,3,-1
 6 12 l 1,4,-1
 6 15 l 1,5,-1
 6 18 l 1,6,-1
 6 21 l 1,7,-1
 6 24 l 1,8,-1
 6 27 l 1,9,-1
 6 30 l 1,10,-1
 6 33 l 1,11,-1
 6 36 l 1,12,-1
 3 36 l 1,13,-1
 0 36 l 1,14,-1
 0 33 l 1,15,-1
 0 30 l 1,16,-1
 0 27 l 1,17,-1
 0 24 l 1,18,-1
 0 21 l 1,19,-1
 0 18 l 1,20,-1
 0 15 l 1,21,-1
 0 12 l 1,22,-1
 0 9 l 1,23,-1
 0 6 l 1,0,-1
9 6 m 1,24,-1
 6 6 l 1,25,-1
 6 3 l 1,26,-1
 6 0 l 1,27,-1
 9 0 l 1,28,-1
 12 0 l 1,29,-1
 15 0 l 1,30,-1
 18 0 l 1,31,-1
 18 3 l 1,32,-1
 18 6 l 1,33,-1
 15 6 l 1,34,-1
 12 6 l 1,35,-1
 9 6 l 1,24,-1
18 12 m 1,36,-1
 18 9 l 1,37,-1
 18 6 l 1,38,-1
 21 6 l 1,39,-1
 24 6 l 1,40,-1
 24 9 l 1,41,-1
 24 12 l 1,42,-1
 24 15 l 1,43,-1
 24 18 l 1,44,-1
 24 21 l 1,45,-1
 24 24 l 1,46,-1
 24 27 l 1,47,-1
 24 30 l 1,48,-1
 24 33 l 1,49,-1
 24 36 l 1,50,-1
 21 36 l 1,51,-1
 18 36 l 1,52,-1
 18 33 l 1,53,-1
 18 30 l 1,54,-1
 18 27 l 1,55,-1
 18 24 l 1,56,-1
 18 21 l 1,57,-1
 18 18 l 1,58,-1
 18 15 l 1,59,-1
 18 12 l 1,36,-1
6 36 m 1,60,-1
 9 36 l 1,61,-1
 12 36 l 1,62,-1
 15 36 l 1,63,-1
 18 36 l 1,64,-1
 18 39 l 1,65,-1
 18 42 l 1,66,-1
 15 42 l 1,67,-1
 12 42 l 1,68,-1
 9 42 l 1,69,-1
 6 42 l 1,70,-1
 6 39 l 1,71,-1
 6 36 l 1,60,-1
EndSplineSet
EndChar

StartChar: one
Encoding: 49 49 85
Width: 30
GlyphClass: 1
Flags: W
LayerCount: 2
Fore
SplineSet
21 0 m 1,0,-1
 24 0 l 1,1,-1
 24 3 l 1,2,-1
 24 6 l 1,3,-1
 24 9 l 1,4,-1
 24 12 l 1,5,-1
 24 15 l 1,6,-1
 24 18 l 1,7,-1
 24 21 l 1,8,-1
 24 24 l 1,9,-1
 24 27 l 1,10,-1
 24 30 l 1,11,-1
 24 33 l 1,12,-1
 24 36 l 1,13,-1
 24 39 l 1,14,-1
 24 42 l 1,15,-1
 21 42 l 1,16,-1
 18 42 l 1,17,-1
 15 42 l 1,18,-1
 12 42 l 1,19,-1
 12 39 l 1,20,-1
 12 36 l 1,21,-1
 15 36 l 1,22,-1
 18 36 l 1,23,-1
 18 33 l 1,24,-1
 18 30 l 1,25,-1
 18 27 l 1,26,-1
 18 24 l 1,27,-1
 18 21 l 1,28,-1
 18 18 l 1,29,-1
 18 15 l 1,30,-1
 18 12 l 1,31,-1
 18 9 l 1,32,-1
 18 6 l 1,33,-1
 18 3 l 1,34,-1
 18 0 l 1,35,-1
 21 0 l 1,0,-1
12 33 m 1,36,-1
 12 36 l 1,37,-1
 9 36 l 1,38,-1
 6 36 l 1,39,-1
 6 33 l 1,40,-1
 6 30 l 1,41,-1
 9 30 l 1,42,-1
 12 30 l 1,43,-1
 12 33 l 1,36,-1
3 30 m 1,44,-1
 0 30 l 1,45,-1
 0 27 l 1,46,-1
 0 24 l 1,47,-1
 3 24 l 1,48,-1
 6 24 l 1,49,-1
 6 27 l 1,50,-1
 6 30 l 1,51,-1
 3 30 l 1,44,-1
EndSplineSet
EndChar

StartChar: two
Encoding: 50 50 86
Width: 36
GlyphClass: 1
Flags: W
LayerCount: 2
Fore
SplineSet
0 6 m 1,0,-1
 0 3 l 1,1,-1
 0 0 l 1,2,-1
 3 0 l 1,3,-1
 6 0 l 1,4,-1
 9 0 l 1,5,-1
 12 0 l 1,6,-1
 15 0 l 1,7,-1
 18 0 l 1,8,-1
 21 0 l 1,9,-1
 24 0 l 1,10,-1
 27 0 l 1,11,-1
 30 0 l 1,12,-1
 30 3 l 1,13,-1
 30 6 l 1,14,-1
 27 6 l 1,15,-1
 24 6 l 1,16,-1
 21 6 l 1,17,-1
 18 6 l 1,18,-1
 15 6 l 1,19,-1
 12 6 l 1,20,-1
 9 6 l 1,21,-1
 6 6 l 1,22,-1
 6 9 l 1,23,-1
 6 12 l 1,24,-1
 3 12 l 1,25,-1
 0 12 l 1,26,-1
 0 9 l 1,27,-1
 0 6 l 1,0,-1
6 12 m 1,28,-1
 9 12 l 1,29,-1
 12 12 l 1,30,-1
 12 15 l 1,31,-1
 12 18 l 1,32,-1
 9 18 l 1,33,-1
 6 18 l 1,34,-1
 6 15 l 1,35,-1
 6 12 l 1,28,-1
12 18 m 1,36,-1
 15 18 l 1,37,-1
 18 18 l 1,38,-1
 18 21 l 1,39,-1
 18 24 l 1,40,-1
 15 24 l 1,41,-1
 12 24 l 1,42,-1
 12 21 l 1,43,-1
 12 18 l 1,36,-1
18 24 m 1,44,-1
 21 24 l 1,45,-1
 24 24 l 1,46,-1
 24 27 l 1,47,-1
 24 30 l 1,48,-1
 21 30 l 1,49,-1
 18 30 l 1,50,-1
 18 27 l 1,51,-1
 18 24 l 1,44,-1
24 30 m 1,52,-1
 27 30 l 1,53,-1
 30 30 l 1,54,-1
 30 33 l 1,55,-1
 30 36 l 1,56,-1
 27 36 l 1,57,-1
 24 36 l 1,58,-1
 24 33 l 1,59,-1
 24 30 l 1,52,-1
21 36 m 1,60,-1
 24 36 l 1,61,-1
 24 39 l 1,62,-1
 24 42 l 1,63,-1
 21 42 l 1,64,-1
 18 42 l 1,65,-1
 15 42 l 1,66,-1
 12 42 l 1,67,-1
 9 42 l 1,68,-1
 6 42 l 1,69,-1
 6 39 l 1,70,-1
 6 36 l 1,71,-1
 9 36 l 1,72,-1
 12 36 l 1,73,-1
 15 36 l 1,74,-1
 18 36 l 1,75,-1
 21 36 l 1,60,-1
6 33 m 1,76,-1
 6 36 l 1,77,-1
 3 36 l 1,78,-1
 0 36 l 1,79,-1
 0 33 l 1,80,-1
 0 30 l 1,81,-1
 3 30 l 1,82,-1
 6 30 l 1,83,-1
 6 33 l 1,76,-1
EndSplineSet
EndChar

StartChar: three
Encoding: 51 51 87
Width: 36
GlyphClass: 1
Flags: W
LayerCount: 2
Fore
SplineSet
0 0 m 1,0,-1
 3 0 l 1,1,-1
 6 0 l 1,2,-1
 9 0 l 1,3,-1
 12 0 l 1,4,-1
 15 0 l 1,5,-1
 18 0 l 1,6,-1
 21 0 l 1,7,-1
 24 0 l 1,8,-1
 24 3 l 1,9,-1
 24 6 l 1,10,-1
 21 6 l 1,11,-1
 18 6 l 1,12,-1
 15 6 l 1,13,-1
 12 6 l 1,14,-1
 9 6 l 1,15,-1
 6 6 l 1,16,-1
 3 6 l 1,17,-1
 0 6 l 1,18,-1
 0 3 l 1,19,-1
 0 0 l 1,0,-1
30 12 m 1,20,-1
 30 15 l 1,21,-1
 30 18 l 1,22,-1
 27 18 l 1,23,-1
 24 18 l 1,24,-1
 24 15 l 1,25,-1
 24 12 l 1,26,-1
 24 9 l 1,27,-1
 24 6 l 1,28,-1
 27 6 l 1,29,-1
 30 6 l 1,30,-1
 30 9 l 1,31,-1
 30 12 l 1,20,-1
27 24 m 1,32,-1
 30 24 l 1,33,-1
 30 27 l 1,34,-1
 30 30 l 1,35,-1
 30 33 l 1,36,-1
 30 36 l 1,37,-1
 27 36 l 1,38,-1
 24 36 l 1,39,-1
 24 33 l 1,40,-1
 24 30 l 1,41,-1
 24 27 l 1,42,-1
 24 24 l 1,43,-1
 27 24 l 1,32,-1
18 24 m 1,44,-1
 15 24 l 1,45,-1
 12 24 l 1,46,-1
 9 24 l 1,47,-1
 6 24 l 1,48,-1
 6 21 l 1,49,-1
 6 18 l 1,50,-1
 9 18 l 1,51,-1
 12 18 l 1,52,-1
 15 18 l 1,53,-1
 18 18 l 1,54,-1
 21 18 l 1,55,-1
 24 18 l 1,56,-1
 24 21 l 1,57,-1
 24 24 l 1,58,-1
 21 24 l 1,59,-1
 18 24 l 1,44,-1
18 36 m 1,60,-1
 21 36 l 1,61,-1
 24 36 l 1,62,-1
 24 39 l 1,63,-1
 24 42 l 1,64,-1
 21 42 l 1,65,-1
 18 42 l 1,66,-1
 15 42 l 1,67,-1
 12 42 l 1,68,-1
 9 42 l 1,69,-1
 6 42 l 1,70,-1
 3 42 l 1,71,-1
 0 42 l 1,72,-1
 0 39 l 1,73,-1
 0 36 l 1,74,-1
 3 36 l 1,75,-1
 6 36 l 1,76,-1
 9 36 l 1,77,-1
 12 36 l 1,78,-1
 15 36 l 1,79,-1
 18 36 l 1,60,-1
EndSplineSet
EndChar

StartChar: four
Encoding: 52 52 88
Width: 42
GlyphClass: 1
Flags: W
LayerCount: 2
Fore
SplineSet
12 30 m 1,0,-1
 12 27 l 1,1,-1
 12 24 l 1,2,-1
 15 24 l 1,3,-1
 18 24 l 1,4,-1
 18 27 l 1,5,-1
 18 30 l 1,6,-1
 18 33 l 1,7,-1
 18 36 l 1,8,-1
 15 36 l 1,9,-1
 12 36 l 1,10,-1
 12 33 l 1,11,-1
 12 30 l 1,0,-1
21 42 m 1,12,-1
 18 42 l 1,13,-1
 18 39 l 1,14,-1
 18 36 l 1,15,-1
 21 36 l 1,16,-1
 24 36 l 1,17,-1
 24 33 l 1,18,-1
 24 30 l 1,19,-1
 24 27 l 1,20,-1
 24 24 l 1,21,-1
 24 21 l 1,22,-1
 24 18 l 1,23,-1
 21 18 l 1,24,-1
 18 18 l 1,25,-1
 15 18 l 1,26,-1
 12 18 l 1,27,-1
 12 21 l 1,28,-1
 12 24 l 1,29,-1
 9 24 l 1,30,-1
 6 24 l 1,31,-1
 6 21 l 1,32,-1
 6 18 l 1,33,-1
 6 15 l 1,34,-1
 6 12 l 1,35,-1
 9 12 l 1,36,-1
 12 12 l 1,37,-1
 15 12 l 1,38,-1
 18 12 l 1,39,-1
 21 12 l 1,40,-1
 24 12 l 1,41,-1
 24 9 l 1,42,-1
 24 6 l 1,43,-1
 24 3 l 1,44,-1
 24 0 l 1,45,-1
 27 0 l 1,46,-1
 30 0 l 1,47,-1
 30 3 l 1,48,-1
 30 6 l 1,49,-1
 30 9 l 1,50,-1
 30 12 l 1,51,-1
 33 12 l 1,52,-1
 36 12 l 1,53,-1
 36 15 l 1,54,-1
 36 18 l 1,55,-1
 33 18 l 1,56,-1
 30 18 l 1,57,-1
 30 21 l 1,58,-1
 30 24 l 1,59,-1
 30 27 l 1,60,-1
 30 30 l 1,61,-1
 30 33 l 1,62,-1
 30 36 l 1,63,-1
 30 39 l 1,64,-1
 30 42 l 1,65,-1
 27 42 l 1,66,-1
 24 42 l 1,67,-1
 21 42 l 1,12,-1
EndSplineSet
EndChar

StartChar: five
Encoding: 53 53 89
Width: 36
GlyphClass: 1
Flags: W
LayerCount: 2
Fore
SplineSet
9 6 m 1,0,-1
 6 6 l 1,1,-1
 6 3 l 1,2,-1
 6 0 l 1,3,-1
 9 0 l 1,4,-1
 12 0 l 1,5,-1
 15 0 l 1,6,-1
 18 0 l 1,7,-1
 21 0 l 1,8,-1
 24 0 l 1,9,-1
 24 3 l 1,10,-1
 24 6 l 1,11,-1
 21 6 l 1,12,-1
 18 6 l 1,13,-1
 15 6 l 1,14,-1
 12 6 l 1,15,-1
 9 6 l 1,0,-1
0 6 m 1,16,-1
 3 6 l 1,17,-1
 6 6 l 1,18,-1
 6 9 l 1,19,-1
 6 12 l 1,20,-1
 3 12 l 1,21,-1
 0 12 l 1,22,-1
 0 9 l 1,23,-1
 0 6 l 1,16,-1
30 9 m 1,24,-1
 30 12 l 1,25,-1
 30 15 l 1,26,-1
 30 18 l 1,27,-1
 27 18 l 1,28,-1
 24 18 l 1,29,-1
 24 15 l 1,30,-1
 24 12 l 1,31,-1
 24 9 l 1,32,-1
 24 6 l 1,33,-1
 27 6 l 1,34,-1
 30 6 l 1,35,-1
 30 9 l 1,24,-1
6 33 m 1,36,-1
 6 36 l 1,37,-1
 9 36 l 1,38,-1
 12 36 l 1,39,-1
 15 36 l 1,40,-1
 18 36 l 1,41,-1
 21 36 l 1,42,-1
 24 36 l 1,43,-1
 27 36 l 1,44,-1
 30 36 l 1,45,-1
 30 39 l 1,46,-1
 30 42 l 1,47,-1
 27 42 l 1,48,-1
 24 42 l 1,49,-1
 21 42 l 1,50,-1
 18 42 l 1,51,-1
 15 42 l 1,52,-1
 12 42 l 1,53,-1
 9 42 l 1,54,-1
 6 42 l 1,55,-1
 3 42 l 1,56,-1
 0 42 l 1,57,-1
 0 39 l 1,58,-1
 0 36 l 1,59,-1
 0 33 l 1,60,-1
 0 30 l 1,61,-1
 0 27 l 1,62,-1
 0 24 l 1,63,-1
 3 24 l 1,64,-1
 6 24 l 1,65,-1
 6 27 l 1,66,-1
 6 30 l 1,67,-1
 6 33 l 1,36,-1
9 24 m 1,68,-1
 6 24 l 1,69,-1
 6 21 l 1,70,-1
 6 18 l 1,71,-1
 9 18 l 1,72,-1
 12 18 l 1,73,-1
 15 18 l 1,74,-1
 18 18 l 1,75,-1
 21 18 l 1,76,-1
 24 18 l 1,77,-1
 24 21 l 1,78,-1
 24 24 l 1,79,-1
 21 24 l 1,80,-1
 18 24 l 1,81,-1
 15 24 l 1,82,-1
 12 24 l 1,83,-1
 9 24 l 1,68,-1
EndSplineSet
EndChar

StartChar: six
Encoding: 54 54 90
Width: 36
GlyphClass: 1
Flags: W
LayerCount: 2
Fore
SplineSet
12 18 m 1,0,-1
 15 18 l 1,1,-1
 18 18 l 1,2,-1
 21 18 l 1,3,-1
 24 18 l 1,4,-1
 24 21 l 1,5,-1
 24 24 l 1,6,-1
 21 24 l 1,7,-1
 18 24 l 1,8,-1
 15 24 l 1,9,-1
 12 24 l 1,10,-1
 9 24 l 1,11,-1
 6 24 l 1,12,-1
 6 27 l 1,13,-1
 6 30 l 1,14,-1
 6 33 l 1,15,-1
 6 36 l 1,16,-1
 3 36 l 1,17,-1
 0 36 l 1,18,-1
 0 33 l 1,19,-1
 0 30 l 1,20,-1
 0 27 l 1,21,-1
 0 24 l 1,22,-1
 0 21 l 1,23,-1
 0 18 l 1,24,-1
 0 15 l 1,25,-1
 0 12 l 1,26,-1
 0 9 l 1,27,-1
 0 6 l 1,28,-1
 3 6 l 1,29,-1
 6 6 l 1,30,-1
 6 9 l 1,31,-1
 6 12 l 1,32,-1
 6 15 l 1,33,-1
 6 18 l 1,34,-1
 9 18 l 1,35,-1
 12 18 l 1,0,-1
12 6 m 1,36,-1
 9 6 l 1,37,-1
 6 6 l 1,38,-1
 6 3 l 1,39,-1
 6 0 l 1,40,-1
 9 0 l 1,41,-1
 12 0 l 1,42,-1
 15 0 l 1,43,-1
 18 0 l 1,44,-1
 21 0 l 1,45,-1
 24 0 l 1,46,-1
 24 3 l 1,47,-1
 24 6 l 1,48,-1
 21 6 l 1,49,-1
 18 6 l 1,50,-1
 15 6 l 1,51,-1
 12 6 l 1,36,-1
27 6 m 1,52,-1
 30 6 l 1,53,-1
 30 9 l 1,54,-1
 30 12 l 1,55,-1
 30 15 l 1,56,-1
 30 18 l 1,57,-1
 27 18 l 1,58,-1
 24 18 l 1,59,-1
 24 15 l 1,60,-1
 24 12 l 1,61,-1
 24 9 l 1,62,-1
 24 6 l 1,63,-1
 27 6 l 1,52,-1
27 36 m 1,64,-1
 24 36 l 1,65,-1
 24 33 l 1,66,-1
 24 30 l 1,67,-1
 27 30 l 1,68,-1
 30 30 l 1,69,-1
 30 33 l 1,70,-1
 30 36 l 1,71,-1
 27 36 l 1,64,-1
9 42 m 1,72,-1
 6 42 l 1,73,-1
 6 39 l 1,74,-1
 6 36 l 1,75,-1
 9 36 l 1,76,-1
 12 36 l 1,77,-1
 15 36 l 1,78,-1
 18 36 l 1,79,-1
 21 36 l 1,80,-1
 24 36 l 1,81,-1
 24 39 l 1,82,-1
 24 42 l 1,83,-1
 21 42 l 1,84,-1
 18 42 l 1,85,-1
 15 42 l 1,86,-1
 12 42 l 1,87,-1
 9 42 l 1,72,-1
EndSplineSet
EndChar

StartChar: seven
Encoding: 55 55 91
Width: 36
GlyphClass: 1
Flags: W
LayerCount: 2
Fore
SplineSet
9 6 m 1,0,-1
 12 6 l 1,1,-1
 12 9 l 1,2,-1
 12 12 l 1,3,-1
 9 12 l 1,4,-1
 6 12 l 1,5,-1
 6 9 l 1,6,-1
 6 6 l 1,7,-1
 9 6 l 1,0,-1
12 12 m 1,8,-1
 15 12 l 1,9,-1
 18 12 l 1,10,-1
 18 15 l 1,11,-1
 18 18 l 1,12,-1
 15 18 l 1,13,-1
 12 18 l 1,14,-1
 12 15 l 1,15,-1
 12 12 l 1,8,-1
21 24 m 1,16,-1
 18 24 l 1,17,-1
 18 21 l 1,18,-1
 18 18 l 1,19,-1
 21 18 l 1,20,-1
 24 18 l 1,21,-1
 24 21 l 1,22,-1
 24 24 l 1,23,-1
 21 24 l 1,16,-1
30 27 m 1,24,-1
 30 30 l 1,25,-1
 30 33 l 1,26,-1
 30 36 l 1,27,-1
 30 39 l 1,28,-1
 30 42 l 1,29,-1
 27 42 l 1,30,-1
 24 42 l 1,31,-1
 21 42 l 1,32,-1
 18 42 l 1,33,-1
 15 42 l 1,34,-1
 12 42 l 1,35,-1
 9 42 l 1,36,-1
 6 42 l 1,37,-1
 3 42 l 1,38,-1
 0 42 l 1,39,-1
 0 39 l 1,40,-1
 0 36 l 1,41,-1
 3 36 l 1,42,-1
 6 36 l 1,43,-1
 9 36 l 1,44,-1
 12 36 l 1,45,-1
 15 36 l 1,46,-1
 18 36 l 1,47,-1
 21 36 l 1,48,-1
 24 36 l 1,49,-1
 24 33 l 1,50,-1
 24 30 l 1,51,-1
 24 27 l 1,52,-1
 24 24 l 1,53,-1
 27 24 l 1,54,-1
 30 24 l 1,55,-1
 30 27 l 1,24,-1
3 6 m 1,56,-1
 0 6 l 1,57,-1
 0 3 l 1,58,-1
 0 0 l 1,59,-1
 3 0 l 1,60,-1
 6 0 l 1,61,-1
 6 3 l 1,62,-1
 6 6 l 1,63,-1
 3 6 l 1,56,-1
EndSplineSet
EndChar

StartChar: eight
Encoding: 56 56 92
Width: 36
GlyphClass: 1
Flags: W
LayerCount: 2
Fore
SplineSet
6 12 m 1,0,-1
 6 15 l 1,1,-1
 6 18 l 1,2,-1
 3 18 l 1,3,-1
 0 18 l 1,4,-1
 0 15 l 1,5,-1
 0 12 l 1,6,-1
 0 9 l 1,7,-1
 0 6 l 1,8,-1
 3 6 l 1,9,-1
 6 6 l 1,10,-1
 6 9 l 1,11,-1
 6 12 l 1,0,-1
15 0 m 1,12,-1
 18 0 l 1,13,-1
 21 0 l 1,14,-1
 24 0 l 1,15,-1
 24 3 l 1,16,-1
 24 6 l 1,17,-1
 21 6 l 1,18,-1
 18 6 l 1,19,-1
 15 6 l 1,20,-1
 12 6 l 1,21,-1
 9 6 l 1,22,-1
 6 6 l 1,23,-1
 6 3 l 1,24,-1
 6 0 l 1,25,-1
 9 0 l 1,26,-1
 12 0 l 1,27,-1
 15 0 l 1,12,-1
30 12 m 1,28,-1
 30 15 l 1,29,-1
 30 18 l 1,30,-1
 27 18 l 1,31,-1
 24 18 l 1,32,-1
 24 15 l 1,33,-1
 24 12 l 1,34,-1
 24 9 l 1,35,-1
 24 6 l 1,36,-1
 27 6 l 1,37,-1
 30 6 l 1,38,-1
 30 9 l 1,39,-1
 30 12 l 1,28,-1
27 24 m 1,40,-1
 30 24 l 1,41,-1
 30 27 l 1,42,-1
 30 30 l 1,43,-1
 30 33 l 1,44,-1
 30 36 l 1,45,-1
 27 36 l 1,46,-1
 24 36 l 1,47,-1
 24 33 l 1,48,-1
 24 30 l 1,49,-1
 24 27 l 1,50,-1
 24 24 l 1,51,-1
 27 24 l 1,40,-1
18 24 m 1,52,-1
 15 24 l 1,53,-1
 12 24 l 1,54,-1
 9 24 l 1,55,-1
 6 24 l 1,56,-1
 6 21 l 1,57,-1
 6 18 l 1,58,-1
 9 18 l 1,59,-1
 12 18 l 1,60,-1
 15 18 l 1,61,-1
 18 18 l 1,62,-1
 21 18 l 1,63,-1
 24 18 l 1,64,-1
 24 21 l 1,65,-1
 24 24 l 1,66,-1
 21 24 l 1,67,-1
 18 24 l 1,52,-1
18 36 m 1,68,-1
 21 36 l 1,69,-1
 24 36 l 1,70,-1
 24 39 l 1,71,-1
 24 42 l 1,72,-1
 21 42 l 1,73,-1
 18 42 l 1,74,-1
 15 42 l 1,75,-1
 12 42 l 1,76,-1
 9 42 l 1,77,-1
 6 42 l 1,78,-1
 6 39 l 1,79,-1
 6 36 l 1,80,-1
 9 36 l 1,81,-1
 12 36 l 1,82,-1
 15 36 l 1,83,-1
 18 36 l 1,68,-1
3 24 m 1,84,-1
 6 24 l 1,85,-1
 6 27 l 1,86,-1
 6 30 l 1,87,-1
 6 33 l 1,88,-1
 6 36 l 1,89,-1
 3 36 l 1,90,-1
 0 36 l 1,91,-1
 0 33 l 1,92,-1
 0 30 l 1,93,-1
 0 27 l 1,94,-1
 0 24 l 1,95,-1
 3 24 l 1,84,-1
EndSplineSet
EndChar

StartChar: nine
Encoding: 57 57 93
Width: 36
GlyphClass: 1
Flags: W
LayerCount: 2
Fore
SplineSet
18 24 m 1,0,-1
 15 24 l 1,1,-1
 12 24 l 1,2,-1
 9 24 l 1,3,-1
 6 24 l 1,4,-1
 6 21 l 1,5,-1
 6 18 l 1,6,-1
 9 18 l 1,7,-1
 12 18 l 1,8,-1
 15 18 l 1,9,-1
 18 18 l 1,10,-1
 21 18 l 1,11,-1
 24 18 l 1,12,-1
 24 15 l 1,13,-1
 24 12 l 1,14,-1
 24 9 l 1,15,-1
 24 6 l 1,16,-1
 27 6 l 1,17,-1
 30 6 l 1,18,-1
 30 9 l 1,19,-1
 30 12 l 1,20,-1
 30 15 l 1,21,-1
 30 18 l 1,22,-1
 30 21 l 1,23,-1
 30 24 l 1,24,-1
 30 27 l 1,25,-1
 30 30 l 1,26,-1
 30 33 l 1,27,-1
 30 36 l 1,28,-1
 27 36 l 1,29,-1
 24 36 l 1,30,-1
 24 33 l 1,31,-1
 24 30 l 1,32,-1
 24 27 l 1,33,-1
 24 24 l 1,34,-1
 21 24 l 1,35,-1
 18 24 l 1,0,-1
18 36 m 1,36,-1
 21 36 l 1,37,-1
 24 36 l 1,38,-1
 24 39 l 1,39,-1
 24 42 l 1,40,-1
 21 42 l 1,41,-1
 18 42 l 1,42,-1
 15 42 l 1,43,-1
 12 42 l 1,44,-1
 9 42 l 1,45,-1
 6 42 l 1,46,-1
 6 39 l 1,47,-1
 6 36 l 1,48,-1
 9 36 l 1,49,-1
 12 36 l 1,50,-1
 15 36 l 1,51,-1
 18 36 l 1,36,-1
3 36 m 1,52,-1
 0 36 l 1,53,-1
 0 33 l 1,54,-1
 0 30 l 1,55,-1
 0 27 l 1,56,-1
 0 24 l 1,57,-1
 3 24 l 1,58,-1
 6 24 l 1,59,-1
 6 27 l 1,60,-1
 6 30 l 1,61,-1
 6 33 l 1,62,-1
 6 36 l 1,63,-1
 3 36 l 1,52,-1
3 6 m 1,64,-1
 6 6 l 1,65,-1
 6 9 l 1,66,-1
 6 12 l 1,67,-1
 3 12 l 1,68,-1
 0 12 l 1,69,-1
 0 9 l 1,70,-1
 0 6 l 1,71,-1
 3 6 l 1,64,-1
21 0 m 1,72,-1
 24 0 l 1,73,-1
 24 3 l 1,74,-1
 24 6 l 1,75,-1
 21 6 l 1,76,-1
 18 6 l 1,77,-1
 15 6 l 1,78,-1
 12 6 l 1,79,-1
 9 6 l 1,80,-1
 6 6 l 1,81,-1
 6 3 l 1,82,-1
 6 0 l 1,83,-1
 9 0 l 1,84,-1
 12 0 l 1,85,-1
 15 0 l 1,86,-1
 18 0 l 1,87,-1
 21 0 l 1,72,-1
EndSplineSet
EndChar

StartChar: colon
Encoding: 58 58 94
Width: 12
GlyphClass: 1
Flags: W
LayerCount: 2
Fore
SplineSet
0 0 m 1,0,-1
 3 0 l 1,1,-1
 6 0 l 1,2,-1
 6 3 l 1,3,-1
 6 6 l 1,4,-1
 3 6 l 1,5,-1
 0 6 l 1,6,-1
 0 3 l 1,7,-1
 0 0 l 1,0,-1
6 24 m 1,8,-1
 6 27 l 1,9,-1
 3 27 l 1,10,-1
 0 27 l 1,11,-1
 0 24 l 1,12,-1
 0 21 l 1,13,-1
 3 21 l 1,14,-1
 6 21 l 1,15,-1
 6 24 l 1,8,-1
EndSplineSet
EndChar

StartChar: semicolon
Encoding: 59 59 95
Width: 12
GlyphClass: 1
Flags: W
LayerCount: 2
Fore
SplineSet
0 0 m 1,0,-1
 3 0 l 1,1,-1
 6 0 l 1,2,-1
 6 3 l 1,3,-1
 6 6 l 1,4,-1
 3 6 l 1,5,-1
 0 6 l 1,6,-1
 0 3 l 1,7,-1
 0 0 l 1,0,-1
6 24 m 1,8,-1
 6 27 l 1,9,-1
 3 27 l 1,10,-1
 0 27 l 1,11,-1
 0 24 l 1,12,-1
 0 21 l 1,13,-1
 3 21 l 1,14,-1
 6 21 l 1,15,-1
 6 24 l 1,8,-1
0 -3 m 1,16,-1
 0 0 l 1,17,-1
 -3 0 l 1,18,-1
 -6 0 l 1,19,-1
 -6 -3 l 1,20,-1
 -6 -6 l 1,21,-1
 -3 -6 l 1,22,-1
 0 -6 l 1,23,-1
 0 -3 l 1,16,-1
EndSplineSet
EndChar

StartChar: less
Encoding: 60 60 96
Width: 42
GlyphClass: 1
Flags: W
LayerCount: 2
Fore
SplineSet
21 12 m 1,0,-1
 18 12 l 1,1,-1
 18 9 l 1,2,-1
 18 6 l 1,3,-1
 21 6 l 1,4,-1
 24 6 l 1,5,-1
 27 6 l 1,6,-1
 30 6 l 1,7,-1
 30 9 l 1,8,-1
 30 12 l 1,9,-1
 27 12 l 1,10,-1
 24 12 l 1,11,-1
 21 12 l 1,0,-1
15 18 m 1,12,-1
 12 18 l 1,13,-1
 9 18 l 1,14,-1
 6 18 l 1,15,-1
 6 15 l 1,16,-1
 6 12 l 1,17,-1
 9 12 l 1,18,-1
 12 12 l 1,19,-1
 15 12 l 1,20,-1
 18 12 l 1,21,-1
 18 15 l 1,22,-1
 18 18 l 1,23,-1
 15 18 l 1,12,-1
24 30 m 1,24,-1
 27 30 l 1,25,-1
 30 30 l 1,26,-1
 30 33 l 1,27,-1
 30 36 l 1,28,-1
 27 36 l 1,29,-1
 24 36 l 1,30,-1
 21 36 l 1,31,-1
 18 36 l 1,32,-1
 18 33 l 1,33,-1
 18 30 l 1,34,-1
 21 30 l 1,35,-1
 24 30 l 1,24,-1
6 24 m 1,36,-1
 9 24 l 1,37,-1
 12 24 l 1,38,-1
 15 24 l 1,39,-1
 18 24 l 1,40,-1
 18 27 l 1,41,-1
 18 30 l 1,42,-1
 15 30 l 1,43,-1
 12 30 l 1,44,-1
 9 30 l 1,45,-1
 6 30 l 1,46,-1
 6 27 l 1,47,-1
 6 24 l 1,36,-1
3 18 m 1,48,-1
 6 18 l 1,49,-1
 6 21 l 1,50,-1
 6 24 l 1,51,-1
 3 24 l 1,52,-1
 0 24 l 1,53,-1
 0 21 l 1,54,-1
 0 18 l 1,55,-1
 3 18 l 1,48,-1
30 36 m 1,56,-1
 33 36 l 1,57,-1
 36 36 l 1,58,-1
 36 39 l 1,59,-1
 36 42 l 1,60,-1
 33 42 l 1,61,-1
 30 42 l 1,62,-1
 30 39 l 1,63,-1
 30 36 l 1,56,-1
33 6 m 1,64,-1
 30 6 l 1,65,-1
 30 3 l 1,66,-1
 30 0 l 1,67,-1
 33 0 l 1,68,-1
 36 0 l 1,69,-1
 36 3 l 1,70,-1
 36 6 l 1,71,-1
 33 6 l 1,64,-1
EndSplineSet
EndChar

StartChar: greater
Encoding: 62 62 97
Width: 42
GlyphClass: 1
Flags: W
LayerCount: 2
Fore
SplineSet
3 6 m 1,0,-1
 0 6 l 1,1,-1
 0 3 l 1,2,-1
 0 0 l 1,3,-1
 3 0 l 1,4,-1
 6 0 l 1,5,-1
 6 3 l 1,6,-1
 6 6 l 1,7,-1
 3 6 l 1,0,-1
6 39 m 1,8,-1
 6 42 l 1,9,-1
 3 42 l 1,10,-1
 0 42 l 1,11,-1
 0 39 l 1,12,-1
 0 36 l 1,13,-1
 3 36 l 1,14,-1
 6 36 l 1,15,-1
 6 39 l 1,8,-1
9 12 m 1,16,-1
 6 12 l 1,17,-1
 6 9 l 1,18,-1
 6 6 l 1,19,-1
 9 6 l 1,20,-1
 12 6 l 1,21,-1
 15 6 l 1,22,-1
 18 6 l 1,23,-1
 18 9 l 1,24,-1
 18 12 l 1,25,-1
 15 12 l 1,26,-1
 12 12 l 1,27,-1
 9 12 l 1,16,-1
24 30 m 1,28,-1
 21 30 l 1,29,-1
 18 30 l 1,30,-1
 18 27 l 1,31,-1
 18 24 l 1,32,-1
 21 24 l 1,33,-1
 24 24 l 1,34,-1
 27 24 l 1,35,-1
 30 24 l 1,36,-1
 30 27 l 1,37,-1
 30 30 l 1,38,-1
 27 30 l 1,39,-1
 24 30 l 1,28,-1
12 30 m 1,40,-1
 15 30 l 1,41,-1
 18 30 l 1,42,-1
 18 33 l 1,43,-1
 18 36 l 1,44,-1
 15 36 l 1,45,-1
 12 36 l 1,46,-1
 9 36 l 1,47,-1
 6 36 l 1,48,-1
 6 33 l 1,49,-1
 6 30 l 1,50,-1
 9 30 l 1,51,-1
 12 30 l 1,40,-1
27 12 m 1,52,-1
 30 12 l 1,53,-1
 30 15 l 1,54,-1
 30 18 l 1,55,-1
 27 18 l 1,56,-1
 24 18 l 1,57,-1
 21 18 l 1,58,-1
 18 18 l 1,59,-1
 18 15 l 1,60,-1
 18 12 l 1,61,-1
 21 12 l 1,62,-1
 24 12 l 1,63,-1
 27 12 l 1,52,-1
33 24 m 1,64,-1
 30 24 l 1,65,-1
 30 21 l 1,66,-1
 30 18 l 1,67,-1
 33 18 l 1,68,-1
 36 18 l 1,69,-1
 36 21 l 1,70,-1
 36 24 l 1,71,-1
 33 24 l 1,64,-1
EndSplineSet
EndChar

StartChar: bracketleft
Encoding: 91 91 98
Width: 18
GlyphClass: 1
Flags: W
LayerCount: 2
Fore
SplineSet
0 -6 m 1,0,-1
 3 -6 l 1,1,-1
 6 -6 l 1,2,-1
 9 -6 l 1,3,-1
 12 -6 l 1,4,-1
 12 -3 l 1,5,-1
 12 0 l 1,6,-1
 9 0 l 1,7,-1
 6 0 l 1,8,-1
 6 3 l 1,9,-1
 6 6 l 1,10,-1
 6 9 l 1,11,-1
 6 12 l 1,12,-1
 6 15 l 1,13,-1
 6 18 l 1,14,-1
 6 21 l 1,15,-1
 6 24 l 1,16,-1
 6 27 l 1,17,-1
 6 30 l 1,18,-1
 6 33 l 1,19,-1
 6 36 l 1,20,-1
 9 36 l 1,21,-1
 12 36 l 1,22,-1
 12 39 l 1,23,-1
 12 42 l 1,24,-1
 9 42 l 1,25,-1
 6 42 l 1,26,-1
 3 42 l 1,27,-1
 0 42 l 1,28,-1
 0 39 l 1,29,-1
 0 36 l 1,30,-1
 0 33 l 1,31,-1
 0 30 l 1,32,-1
 0 27 l 1,33,-1
 0 24 l 1,34,-1
 0 21 l 1,35,-1
 0 18 l 1,36,-1
 0 15 l 1,37,-1
 0 12 l 1,38,-1
 0 9 l 1,39,-1
 0 6 l 1,40,-1
 0 3 l 1,41,-1
 0 0 l 1,42,-1
 0 -3 l 1,43,-1
 0 -6 l 1,0,-1
EndSplineSet
EndChar

StartChar: backslash
Encoding: 92 92 99
Width: 30
GlyphClass: 1
Flags: W
LayerCount: 2
Fore
SplineSet
18 6 m 1,0,-1
 18 3 l 1,1,-1
 18 0 l 1,2,-1
 21 0 l 1,3,-1
 24 0 l 1,4,-1
 24 3 l 1,5,-1
 24 6 l 1,6,-1
 24 9 l 1,7,-1
 24 12 l 1,8,-1
 21 12 l 1,9,-1
 18 12 l 1,10,-1
 18 9 l 1,11,-1
 18 6 l 1,0,-1
6 33 m 1,12,-1
 6 30 l 1,13,-1
 6 27 l 1,14,-1
 6 24 l 1,15,-1
 9 24 l 1,16,-1
 12 24 l 1,17,-1
 12 27 l 1,18,-1
 12 30 l 1,19,-1
 12 33 l 1,20,-1
 12 36 l 1,21,-1
 9 36 l 1,22,-1
 6 36 l 1,23,-1
 6 33 l 1,12,-1
18 21 m 1,24,-1
 18 24 l 1,25,-1
 15 24 l 1,26,-1
 12 24 l 1,27,-1
 12 21 l 1,28,-1
 12 18 l 1,29,-1
 12 15 l 1,30,-1
 12 12 l 1,31,-1
 15 12 l 1,32,-1
 18 12 l 1,33,-1
 18 15 l 1,34,-1
 18 18 l 1,35,-1
 18 21 l 1,24,-1
6 39 m 1,36,-1
 6 42 l 1,37,-1
 6 45 l 1,38,-1
 6 48 l 1,39,-1
 3 48 l 1,40,-1
 0 48 l 1,41,-1
 0 45 l 1,42,-1
 0 42 l 1,43,-1
 0 39 l 1,44,-1
 0 36 l 1,45,-1
 3 36 l 1,46,-1
 6 36 l 1,47,-1
 6 39 l 1,36,-1
EndSplineSet
EndChar

StartChar: bracketright
Encoding: 93 93 100
Width: 18
GlyphClass: 1
Flags: W
LayerCount: 2
Fore
SplineSet
0 36 m 1,0,-1
 3 36 l 1,1,-1
 6 36 l 1,2,-1
 6 33 l 1,3,-1
 6 30 l 1,4,-1
 6 27 l 1,5,-1
 6 24 l 1,6,-1
 6 21 l 1,7,-1
 6 18 l 1,8,-1
 6 15 l 1,9,-1
 6 12 l 1,10,-1
 6 9 l 1,11,-1
 6 6 l 1,12,-1
 6 3 l 1,13,-1
 6 0 l 1,14,-1
 3 0 l 1,15,-1
 0 0 l 1,16,-1
 0 -3 l 1,17,-1
 0 -6 l 1,18,-1
 3 -6 l 1,19,-1
 6 -6 l 1,20,-1
 9 -6 l 1,21,-1
 12 -6 l 1,22,-1
 12 -3 l 1,23,-1
 12 0 l 1,24,-1
 12 3 l 1,25,-1
 12 6 l 1,26,-1
 12 9 l 1,27,-1
 12 12 l 1,28,-1
 12 15 l 1,29,-1
 12 18 l 1,30,-1
 12 21 l 1,31,-1
 12 24 l 1,32,-1
 12 27 l 1,33,-1
 12 30 l 1,34,-1
 12 33 l 1,35,-1
 12 36 l 1,36,-1
 12 39 l 1,37,-1
 12 42 l 1,38,-1
 9 42 l 1,39,-1
 6 42 l 1,40,-1
 3 42 l 1,41,-1
 0 42 l 1,42,-1
 0 39 l 1,43,-1
 0 36 l 1,0,-1
EndSplineSet
EndChar

StartChar: underscore
Encoding: 95 95 101
Width: 36
GlyphClass: 1
Flags: W
LayerCount: 2
Fore
SplineSet
3 6 m 1,0,-1
 0 6 l 1,1,-1
 0 3 l 1,2,-1
 0 0 l 1,3,-1
 3 0 l 1,4,-1
 6 0 l 1,5,-1
 9 0 l 1,6,-1
 12 0 l 1,7,-1
 15 0 l 1,8,-1
 18 0 l 1,9,-1
 21 0 l 1,10,-1
 24 0 l 1,11,-1
 27 0 l 1,12,-1
 30 0 l 1,13,-1
 30 3 l 1,14,-1
 30 6 l 1,15,-1
 27 6 l 1,16,-1
 24 6 l 1,17,-1
 21 6 l 1,18,-1
 18 6 l 1,19,-1
 15 6 l 1,20,-1
 12 6 l 1,21,-1
 9 6 l 1,22,-1
 6 6 l 1,23,-1
 3 6 l 1,0,-1
EndSplineSet
EndChar

StartChar: guillemotleft
Encoding: 171 171 102
Width: 39
GlyphClass: 1
Flags: W
LayerCount: 2
Fore
SplineSet
12 0 m 1,0,-1
 15 0 l 1,1,-1
 18 0 l 1,2,-1
 18 3 l 1,3,-1
 18 6 l 1,4,-1
 15 6 l 1,5,-1
 12 6 l 1,6,-1
 12 3 l 1,7,-1
 12 0 l 1,0,-1
6 6 m 1,8,-1
 9 6 l 1,9,-1
 12 6 l 1,10,-1
 12 9 l 1,11,-1
 12 12 l 1,12,-1
 9 12 l 1,13,-1
 6 12 l 1,14,-1
 6 9 l 1,15,-1
 6 6 l 1,8,-1
3 18 m 1,16,-1
 0 18 l 1,17,-1
 0 15 l 1,18,-1
 0 12 l 1,19,-1
 3 12 l 1,20,-1
 6 12 l 1,21,-1
 6 15 l 1,22,-1
 6 18 l 1,23,-1
 3 18 l 1,16,-1
9 24 m 1,24,-1
 6 24 l 1,25,-1
 6 21 l 1,26,-1
 6 18 l 1,27,-1
 9 18 l 1,28,-1
 12 18 l 1,29,-1
 12 21 l 1,30,-1
 12 24 l 1,31,-1
 9 24 l 1,24,-1
15 30 m 1,32,-1
 12 30 l 1,33,-1
 12 27 l 1,34,-1
 12 24 l 1,35,-1
 15 24 l 1,36,-1
 18 24 l 1,37,-1
 18 27 l 1,38,-1
 18 30 l 1,39,-1
 15 30 l 1,32,-1
27 21 m 1,40,-1
 27 24 l 1,41,-1
 24 24 l 1,42,-1
 21 24 l 1,43,-1
 21 21 l 1,44,-1
 21 18 l 1,45,-1
 24 18 l 1,46,-1
 27 18 l 1,47,-1
 27 21 l 1,40,-1
30 0 m 1,48,-1
 33 0 l 1,49,-1
 33 3 l 1,50,-1
 33 6 l 1,51,-1
 30 6 l 1,52,-1
 27 6 l 1,53,-1
 27 3 l 1,54,-1
 27 0 l 1,55,-1
 30 0 l 1,48,-1
30 24 m 1,56,-1
 33 24 l 1,57,-1
 33 27 l 1,58,-1
 33 30 l 1,59,-1
 30 30 l 1,60,-1
 27 30 l 1,61,-1
 27 27 l 1,62,-1
 27 24 l 1,63,-1
 30 24 l 1,56,-1
21 15 m 1,64,-1
 21 18 l 1,65,-1
 18 18 l 1,66,-1
 15 18 l 1,67,-1
 15 15 l 1,68,-1
 15 12 l 1,69,-1
 18 12 l 1,70,-1
 21 12 l 1,71,-1
 21 15 l 1,64,-1
21 6 m 1,72,-1
 24 6 l 1,73,-1
 27 6 l 1,74,-1
 27 9 l 1,75,-1
 27 12 l 1,76,-1
 24 12 l 1,77,-1
 21 12 l 1,78,-1
 21 9 l 1,79,-1
 21 6 l 1,72,-1
EndSplineSet
EndChar

StartChar: guillemotright
Encoding: 187 187 103
Width: 39
GlyphClass: 1
Flags: W
LayerCount: 2
Fore
SplineSet
12 9 m 1,0,-1
 12 12 l 1,1,-1
 9 12 l 1,2,-1
 6 12 l 1,3,-1
 6 9 l 1,4,-1
 6 6 l 1,5,-1
 9 6 l 1,6,-1
 12 6 l 1,7,-1
 12 9 l 1,0,-1
18 15 m 1,8,-1
 18 18 l 1,9,-1
 15 18 l 1,10,-1
 12 18 l 1,11,-1
 12 15 l 1,12,-1
 12 12 l 1,13,-1
 15 12 l 1,14,-1
 18 12 l 1,15,-1
 18 15 l 1,8,-1
3 24 m 1,16,-1
 6 24 l 1,17,-1
 6 27 l 1,18,-1
 6 30 l 1,19,-1
 3 30 l 1,20,-1
 0 30 l 1,21,-1
 0 27 l 1,22,-1
 0 24 l 1,23,-1
 3 24 l 1,16,-1
3 0 m 1,24,-1
 6 0 l 1,25,-1
 6 3 l 1,26,-1
 6 6 l 1,27,-1
 3 6 l 1,28,-1
 0 6 l 1,29,-1
 0 3 l 1,30,-1
 0 0 l 1,31,-1
 3 0 l 1,24,-1
12 21 m 1,32,-1
 12 24 l 1,33,-1
 9 24 l 1,34,-1
 6 24 l 1,35,-1
 6 21 l 1,36,-1
 6 18 l 1,37,-1
 9 18 l 1,38,-1
 12 18 l 1,39,-1
 12 21 l 1,32,-1
18 30 m 1,40,-1
 15 30 l 1,41,-1
 15 27 l 1,42,-1
 15 24 l 1,43,-1
 18 24 l 1,44,-1
 21 24 l 1,45,-1
 21 27 l 1,46,-1
 21 30 l 1,47,-1
 18 30 l 1,40,-1
24 24 m 1,48,-1
 21 24 l 1,49,-1
 21 21 l 1,50,-1
 21 18 l 1,51,-1
 24 18 l 1,52,-1
 27 18 l 1,53,-1
 27 21 l 1,54,-1
 27 24 l 1,55,-1
 24 24 l 1,48,-1
30 18 m 1,56,-1
 27 18 l 1,57,-1
 27 15 l 1,58,-1
 27 12 l 1,59,-1
 30 12 l 1,60,-1
 33 12 l 1,61,-1
 33 15 l 1,62,-1
 33 18 l 1,63,-1
 30 18 l 1,56,-1
27 9 m 1,64,-1
 27 12 l 1,65,-1
 24 12 l 1,66,-1
 21 12 l 1,67,-1
 21 9 l 1,68,-1
 21 6 l 1,69,-1
 24 6 l 1,70,-1
 27 6 l 1,71,-1
 27 9 l 1,64,-1
21 3 m 1,72,-1
 21 6 l 1,73,-1
 18 6 l 1,74,-1
 15 6 l 1,75,-1
 15 3 l 1,76,-1
 15 0 l 1,77,-1
 18 0 l 1,78,-1
 21 0 l 1,79,-1
 21 3 l 1,72,-1
EndSplineSet
EndChar

StartChar: emdash
Encoding: 8212 8212 104
Width: 33
GlyphClass: 1
Flags: W
LayerCount: 2
Fore
SplineSet
3 21 m 1,0,-1
 0 21 l 1,1,-1
 0 18 l 1,2,-1
 0 15 l 1,3,-1
 3 15 l 1,4,-1
 6 15 l 1,5,-1
 9 15 l 1,6,-1
 12 15 l 1,7,-1
 15 15 l 1,8,-1
 18 15 l 1,9,-1
 21 15 l 1,10,-1
 24 15 l 1,11,-1
 27 15 l 1,12,-1
 30 15 l 1,13,-1
 30 18 l 1,14,-1
 30 21 l 1,15,-1
 27 21 l 1,16,-1
 24 21 l 1,17,-1
 21 21 l 1,18,-1
 18 21 l 1,19,-1
 15 21 l 1,20,-1
 12 21 l 1,21,-1
 9 21 l 1,22,-1
 6 21 l 1,23,-1
 3 21 l 1,0,-1
EndSplineSet
EndChar

StartChar: parenleft
Encoding: 40 40 105
Width: 24
GlyphClass: 1
Flags: W
LayerCount: 2
Fore
SplineSet
12 -6 m 1,0,-1
 15 -6 l 1,1,-1
 18 -6 l 1,2,-1
 18 -3 l 1,3,-1
 18 0 l 1,4,-1
 15 0 l 1,5,-1
 12 0 l 1,6,-1
 12 -3 l 1,7,-1
 12 -6 l 1,0,-1
12 30 m 1,8,-1
 12 33 l 1,9,-1
 12 36 l 1,10,-1
 9 36 l 1,11,-1
 6 36 l 1,12,-1
 6 33 l 1,13,-1
 6 30 l 1,14,-1
 6 27 l 1,15,-1
 6 24 l 1,16,-1
 9 24 l 1,17,-1
 12 24 l 1,18,-1
 12 27 l 1,19,-1
 12 30 l 1,8,-1
6 21 m 1,20,-1
 6 24 l 1,21,-1
 3 24 l 1,22,-1
 0 24 l 1,23,-1
 0 21 l 1,24,-1
 0 18 l 1,25,-1
 0 15 l 1,26,-1
 0 12 l 1,27,-1
 3 12 l 1,28,-1
 6 12 l 1,29,-1
 6 15 l 1,30,-1
 6 18 l 1,31,-1
 6 21 l 1,20,-1
12 6 m 1,32,-1
 12 9 l 1,33,-1
 12 12 l 1,34,-1
 9 12 l 1,35,-1
 6 12 l 1,36,-1
 6 9 l 1,37,-1
 6 6 l 1,38,-1
 6 3 l 1,39,-1
 6 0 l 1,40,-1
 9 0 l 1,41,-1
 12 0 l 1,42,-1
 12 3 l 1,43,-1
 12 6 l 1,32,-1
12 36 m 1,44,-1
 15 36 l 1,45,-1
 18 36 l 1,46,-1
 18 39 l 1,47,-1
 18 42 l 1,48,-1
 15 42 l 1,49,-1
 12 42 l 1,50,-1
 12 39 l 1,51,-1
 12 36 l 1,44,-1
EndSplineSet
EndChar

StartChar: parenright
Encoding: 41 41 106
Width: 24
GlyphClass: 1
Flags: W
LayerCount: 2
Fore
SplineSet
3 42 m 1,0,-1
 0 42 l 1,1,-1
 0 39 l 1,2,-1
 0 36 l 1,3,-1
 3 36 l 1,4,-1
 6 36 l 1,5,-1
 6 39 l 1,6,-1
 6 42 l 1,7,-1
 3 42 l 1,0,-1
6 0 m 1,8,-1
 9 0 l 1,9,-1
 12 0 l 1,10,-1
 12 3 l 1,11,-1
 12 6 l 1,12,-1
 12 9 l 1,13,-1
 12 12 l 1,14,-1
 9 12 l 1,15,-1
 6 12 l 1,16,-1
 6 9 l 1,17,-1
 6 6 l 1,18,-1
 6 3 l 1,19,-1
 6 0 l 1,8,-1
18 15 m 1,20,-1
 18 18 l 1,21,-1
 18 21 l 1,22,-1
 18 24 l 1,23,-1
 15 24 l 1,24,-1
 12 24 l 1,25,-1
 12 21 l 1,26,-1
 12 18 l 1,27,-1
 12 15 l 1,28,-1
 12 12 l 1,29,-1
 15 12 l 1,30,-1
 18 12 l 1,31,-1
 18 15 l 1,20,-1
6 30 m 1,32,-1
 6 27 l 1,33,-1
 6 24 l 1,34,-1
 9 24 l 1,35,-1
 12 24 l 1,36,-1
 12 27 l 1,37,-1
 12 30 l 1,38,-1
 12 33 l 1,39,-1
 12 36 l 1,40,-1
 9 36 l 1,41,-1
 6 36 l 1,42,-1
 6 33 l 1,43,-1
 6 30 l 1,32,-1
6 -3 m 1,44,-1
 6 0 l 1,45,-1
 3 0 l 1,46,-1
 0 0 l 1,47,-1
 0 -3 l 1,48,-1
 0 -6 l 1,49,-1
 3 -6 l 1,50,-1
 6 -6 l 1,51,-1
 6 -3 l 1,44,-1
EndSplineSet
EndChar

StartChar: braceleft
Encoding: 123 123 107
Width: 24
GlyphClass: 1
Flags: W
LayerCount: 2
Fore
SplineSet
12 -6 m 1,0,-1
 15 -6 l 1,1,-1
 18 -6 l 1,2,-1
 18 -3 l 1,3,-1
 18 0 l 1,4,-1
 15 0 l 1,5,-1
 12 0 l 1,6,-1
 12 -3 l 1,7,-1
 12 -6 l 1,0,-1
12 30 m 1,8,-1
 12 33 l 1,9,-1
 12 36 l 1,10,-1
 9 36 l 1,11,-1
 6 36 l 1,12,-1
 6 33 l 1,13,-1
 6 30 l 1,14,-1
 6 27 l 1,15,-1
 6 24 l 1,16,-1
 6 21 l 1,17,-1
 9 21 l 1,18,-1
 12 21 l 1,19,-1
 12 24 l 1,20,-1
 12 27 l 1,21,-1
 12 30 l 1,8,-1
6 12 m 1,22,-1
 6 9 l 1,23,-1
 6 6 l 1,24,-1
 6 3 l 1,25,-1
 6 0 l 1,26,-1
 9 0 l 1,27,-1
 12 0 l 1,28,-1
 12 3 l 1,29,-1
 12 6 l 1,30,-1
 12 9 l 1,31,-1
 12 12 l 1,32,-1
 12 15 l 1,33,-1
 9 15 l 1,34,-1
 6 15 l 1,35,-1
 6 12 l 1,22,-1
3 15 m 1,36,-1
 6 15 l 1,37,-1
 6 18 l 1,38,-1
 6 21 l 1,39,-1
 3 21 l 1,40,-1
 0 21 l 1,41,-1
 0 18 l 1,42,-1
 0 15 l 1,43,-1
 3 15 l 1,36,-1
12 36 m 1,44,-1
 15 36 l 1,45,-1
 18 36 l 1,46,-1
 18 39 l 1,47,-1
 18 42 l 1,48,-1
 15 42 l 1,49,-1
 12 42 l 1,50,-1
 12 39 l 1,51,-1
 12 36 l 1,44,-1
EndSplineSet
EndChar

StartChar: braceright
Encoding: 125 125 108
Width: 24
GlyphClass: 1
Flags: W
LayerCount: 2
Fore
SplineSet
3 42 m 1,0,-1
 0 42 l 1,1,-1
 0 39 l 1,2,-1
 0 36 l 1,3,-1
 3 36 l 1,4,-1
 6 36 l 1,5,-1
 6 39 l 1,6,-1
 6 42 l 1,7,-1
 3 42 l 1,0,-1
9 15 m 1,8,-1
 6 15 l 1,9,-1
 6 12 l 1,10,-1
 6 9 l 1,11,-1
 6 6 l 1,12,-1
 6 3 l 1,13,-1
 6 0 l 1,14,-1
 9 0 l 1,15,-1
 12 0 l 1,16,-1
 12 3 l 1,17,-1
 12 6 l 1,18,-1
 12 9 l 1,19,-1
 12 12 l 1,20,-1
 12 15 l 1,21,-1
 9 15 l 1,8,-1
6 30 m 1,22,-1
 6 27 l 1,23,-1
 6 24 l 1,24,-1
 6 21 l 1,25,-1
 9 21 l 1,26,-1
 12 21 l 1,27,-1
 12 24 l 1,28,-1
 12 27 l 1,29,-1
 12 30 l 1,30,-1
 12 33 l 1,31,-1
 12 36 l 1,32,-1
 9 36 l 1,33,-1
 6 36 l 1,34,-1
 6 33 l 1,35,-1
 6 30 l 1,22,-1
15 15 m 1,36,-1
 18 15 l 1,37,-1
 18 18 l 1,38,-1
 18 21 l 1,39,-1
 15 21 l 1,40,-1
 12 21 l 1,41,-1
 12 18 l 1,42,-1
 12 15 l 1,43,-1
 15 15 l 1,36,-1
6 -3 m 1,44,-1
 6 0 l 1,45,-1
 3 0 l 1,46,-1
 0 0 l 1,47,-1
 0 -3 l 1,48,-1
 0 -6 l 1,49,-1
 3 -6 l 1,50,-1
 6 -6 l 1,51,-1
 6 -3 l 1,44,-1
EndSplineSet
EndChar
